<svg width="169" height="117" viewBox="0 0 169 117" fill="none" xmlns="http://www.w3.org/2000/svg">
<rect width="169" height="116.058" fill="black"/>
<path d="M24.1431 30.5378H144.871C144.6 32.302 144.354 33.9972 144.081 35.6923C143.064 42.2144 142.045 48.737 141.025 55.2601C139.954 62.1236 138.885 68.987 137.818 75.8505C137.344 78.8839 136.832 81.9138 136.4 84.9541C136.299 85.6818 136.019 85.8163 135.352 85.7784C129.063 85.4645 123.355 87.1218 118.323 90.9398C114.092 94.1473 111.195 98.3034 109.721 103.413C109.531 104.074 109.245 104.232 108.595 104.232C92.4708 104.215 76.3474 104.215 60.2245 104.232C59.5089 104.232 59.1899 103.991 58.8846 103.37C55.0252 95.6166 48.7067 91.1002 40.2394 89.6085C38.2252 89.255 36.1248 89.3446 34.0623 89.3239C33.4639 89.3239 33.2742 89.2015 33.1846 88.6204C32.3672 83.2882 31.5153 77.9613 30.6823 72.6326C29.6062 65.745 28.5336 58.8557 27.4644 51.9646C26.3987 45.1345 25.3312 38.3038 24.2621 31.4725C24.2189 31.1931 24.1896 30.9155 24.1431 30.5378ZM25.2036 31.4432C28.1732 50.4919 31.1255 69.413 34.0813 88.3738C37.2561 88.2013 40.2532 88.4203 43.178 89.267C50.4691 91.3778 55.9823 95.7011 59.4796 102.485C59.7986 103.104 60.1435 103.334 60.8488 103.334C76.3979 103.311 91.9471 103.311 107.496 103.334C108.471 103.334 108.833 103.051 109.166 102.146C112.742 92.3832 119.847 86.8545 129.975 85.0903C131.767 84.7782 133.617 84.8023 135.504 84.6661C138.263 66.974 141.029 49.2302 143.804 31.4346L25.2036 31.4432Z" fill="white"/>
<path d="M46.3733 21.8551V24.1469L46.5303 24.1745C46.5959 24.0407 46.6535 23.903 46.7027 23.7624C47.7874 20.0771 48.8859 16.3971 49.9396 12.7032C50.1293 12.0427 50.3483 11.653 51.1347 11.7478C51.9521 11.8461 52.985 11.5392 53.5489 11.9375C54.0663 12.3014 54.1094 13.3671 54.3353 14.1311C55.3183 17.4582 56.2955 20.7865 57.2669 24.1159C57.329 24.3263 57.3583 24.5453 57.4273 24.8712C56.4271 24.8712 55.5149 24.9091 54.6112 24.8419C54.4181 24.8264 54.1663 24.4573 54.0939 24.2073C53.4731 22.1517 52.8695 20.0857 52.2659 18.0233C52.1849 17.7525 52.0935 17.4852 51.9383 17.0179L51.0157 20.1754C52.6436 20.71 52.0849 22.2689 52.7902 23.364C51.971 23.364 51.3416 23.3933 50.7208 23.3536C50.2276 23.3243 49.9448 23.4847 49.9051 23.9848C49.843 24.766 49.3878 24.9022 48.6773 24.8936C45.8353 24.854 42.9865 24.8591 40.1514 24.8936C39.5254 24.8936 39.3064 24.7436 39.3081 24.0814C39.3081 21.862 39.2874 21.8602 41.4948 21.8602L46.3733 21.8551Z" fill="white"/>
<path d="M29.313 11.8236C31.3617 11.8236 33.3431 11.7253 35.3108 11.8546C36.9801 11.9633 37.9958 13.098 38.2424 14.7501C38.2924 15.095 38.3993 15.4606 38.3183 15.7744C37.8699 17.4989 38.1838 19.213 38.2786 20.9479C38.4166 23.4846 36.9732 24.8383 34.4399 24.8676C32.8309 24.8866 31.222 24.8676 29.6113 24.8676C29.5096 24.8522 29.4101 24.825 29.3147 24.7866L29.313 11.8236ZM33.3224 16.8488C33.5515 16.8232 33.7817 16.8094 34.0122 16.8074C34.7382 16.8436 35.2901 16.6349 35.2952 15.7986C35.3004 14.9622 34.7296 14.7846 34.0157 14.7742C32.2463 14.7483 32.2463 14.738 32.2463 16.528C32.2463 18.2715 32.2463 20.0132 32.2463 21.8377C33.031 21.8377 33.7139 21.855 34.3951 21.8377C34.9814 21.8187 35.2728 21.4687 35.2952 20.8961C35.3211 20.2839 35.0417 19.9115 34.4158 19.8442C34.0571 19.8063 33.6984 19.7804 33.3207 19.7476L33.3224 16.8488Z" fill="white"/>
<path d="M110.426 24.8695C109.509 24.8695 108.681 24.8971 107.857 24.8488C107.744 24.8178 107.641 24.7607 107.555 24.6822C107.469 24.6036 107.403 24.5059 107.362 24.397C106.622 21.9275 105.913 19.4477 105.149 16.8092C105.627 16.8092 106.011 16.8092 106.392 16.8092C107.106 16.8196 107.462 16.4643 107.457 15.759C107.451 15.0537 107.024 14.8019 106.392 14.7933C105.761 14.7847 105.146 14.7933 104.428 14.7933V24.8281H101.46V11.8255C101.721 11.8065 101.993 11.7686 102.266 11.7668C103.587 11.7668 104.911 11.8013 106.232 11.7565C109.717 11.6427 110.857 13.8052 110.371 16.8455C110.252 17.5835 109.672 18.2423 109.336 18.9545C109.202 19.2459 109.038 19.6115 109.105 19.8909C109.44 21.255 109.85 22.6018 110.228 23.9555C110.302 24.2228 110.347 24.4987 110.426 24.8695Z" fill="white"/>
<path d="M130.751 11.8255C132.801 11.8255 134.786 11.7254 136.754 11.8548C138.418 11.9652 139.401 13.0378 139.649 14.6726C139.897 16.3074 139.822 17.8836 138.456 19.1201C138.301 19.2597 138.311 19.696 138.38 19.9582C138.725 21.2912 139.12 22.6121 139.492 23.9383C139.566 24.2073 139.616 24.4832 139.706 24.8747C138.778 24.8747 137.954 24.8954 137.131 24.8574C137.029 24.8393 136.933 24.797 136.85 24.734C136.768 24.671 136.701 24.5891 136.657 24.4953C135.909 21.9724 135.186 19.4408 134.427 16.8006C134.969 16.8006 135.397 16.8196 135.821 16.8006C136.457 16.7661 136.726 16.3781 136.73 15.7659C136.733 15.1537 136.419 14.833 135.852 14.7985C135.172 14.7571 134.488 14.7881 133.686 14.7881V15.7901C133.686 18.5492 133.669 21.3084 133.7 24.0676C133.7 24.7195 133.5 24.9299 132.858 24.8867C132.179 24.8367 131.492 24.8764 130.751 24.8764V11.8255Z" fill="white"/>
<path d="M96.3698 24.7486C96.3698 23.9416 96.3543 23.1173 96.3819 22.293C96.3899 22.2009 96.4196 22.1119 96.4684 22.0334C96.5172 21.9549 96.5839 21.8891 96.663 21.8411C97.2873 21.6411 97.3855 21.1703 97.3838 20.6202C97.3838 19.0682 97.3976 17.5161 97.3838 15.9641C97.3735 15.0087 97.0958 14.788 96.0042 14.7742C94.6971 14.7587 94.3384 14.976 94.3194 15.933C94.2866 17.5109 94.297 19.0906 94.3194 20.6685C94.3194 20.9651 94.4143 21.4566 94.5919 21.5307C95.6162 21.9205 95.2903 22.7551 95.3231 23.4725C95.3437 23.8967 95.3231 24.3244 95.3231 24.7348C93.3813 25.1349 91.5326 23.845 91.4119 21.8273C91.2774 19.4776 91.2774 17.1222 91.4119 14.7725C91.5068 13.048 92.7915 11.9443 94.5591 11.8063C95.4201 11.7397 96.2849 11.7397 97.1458 11.8063C98.9962 11.946 100.231 13.0773 100.317 14.9277C100.434 17.191 100.434 19.4588 100.317 21.7222C100.195 23.8071 98.4323 25.1056 96.3698 24.7486Z" fill="white"/>
<path d="M87.2333 17.8215C87.2333 17.0368 87.2333 16.416 87.2333 15.7935C87.2471 15.1037 86.8884 14.8002 86.2314 14.7864C85.8865 14.7864 85.5416 14.7639 85.1967 14.7864C84.6397 14.8278 84.2758 15.1002 84.2758 15.7055C84.2758 17.4576 84.2655 19.208 84.2758 20.96C84.2758 21.5102 84.6207 21.7999 85.1467 21.8344C85.5487 21.8578 85.9518 21.8578 86.3538 21.8344C86.9384 21.8016 87.2333 21.4757 87.2316 20.8859C87.2316 20.2323 87.2316 19.5787 87.2316 18.8165C88.2335 19.1459 89.1285 19.4235 90.0115 19.7443C90.0906 19.7909 90.1579 19.8551 90.2082 19.932C90.2584 20.0088 90.2902 20.0963 90.3012 20.1875C90.4391 22.8104 89.6269 24.8315 86.3245 24.8712C85.6915 24.8975 85.0575 24.8768 84.4276 24.8091C82.4651 24.5384 81.4649 23.7037 81.3235 21.7257C81.1674 19.382 81.1795 17.0301 81.3597 14.6881C81.4908 12.8998 82.7393 11.9116 84.5466 11.7944C85.2363 11.7495 85.9261 11.7582 86.6159 11.7771C89.2027 11.8478 90.8392 13.9431 90.2908 16.4833C90.2747 16.5619 90.2425 16.6364 90.1962 16.702C90.1499 16.7676 90.0905 16.8229 90.0218 16.8644C89.1544 17.1851 88.2645 17.4731 87.2333 17.8215Z" fill="white"/>
<path d="M63.0473 17.7886C63.0473 17.0608 63.0352 16.49 63.0473 15.9192C63.0663 15.1156 62.6679 14.7621 61.8885 14.7811C61.6005 14.7811 61.3125 14.7673 61.0262 14.7811C60.4226 14.8104 60.0415 15.107 60.0364 15.7382C60.0243 17.4626 60.0174 19.1871 60.0364 20.9116C60.0364 21.5221 60.4089 21.8497 61.0348 21.8515C61.3504 21.8515 61.6677 21.8515 61.9833 21.8515C62.6852 21.8515 63.0404 21.4893 63.0387 20.7823C63.0387 20.1822 63.0387 19.5751 63.0387 18.8319C64.0337 19.1595 64.946 19.4441 65.8393 19.7717C65.9163 19.8253 65.9797 19.896 66.0246 19.9783C66.0695 20.0606 66.0946 20.1523 66.0979 20.246C66.1376 22.7965 65.4806 24.8486 62.0385 24.871C61.323 24.8888 60.6073 24.8484 59.8984 24.7503C58.1584 24.4779 57.0961 23.3587 57.0392 21.6049C56.9685 19.4251 56.9702 17.2385 57.0392 15.0518C57.0927 13.298 58.2153 12.0684 59.957 11.8529C60.9828 11.7313 62.0191 11.7278 63.0456 11.8425C64.808 12.0391 65.8565 13.2118 66.0359 14.9846C66.2152 16.7573 66.2083 16.7435 64.5528 17.3057C64.101 17.4644 63.6371 17.6023 63.0473 17.7886Z" fill="white"/>
<path d="M124.694 21.8499H129.601V24.8281H121.668V11.8203H129.611V14.7519H124.694V21.8499Z" fill="white"/>
<path d="M111.557 24.7642V11.7736C112.419 11.7736 113.261 11.7512 114.106 11.7943C114.268 11.7943 114.451 12.0496 114.565 12.2272C114.803 12.6169 114.958 13.0636 115.218 13.4343C116.468 15.2226 116.701 17.2282 116.544 19.3286C116.477 20.234 116.532 21.1497 116.372 22.1154L114.751 19.0786L114.539 19.1096V22.4913C114.539 25.1471 114.359 25.2867 111.557 24.7642Z" fill="white"/>
<path d="M67.2449 11.7996H70.0541V24.8626C69.1918 24.8626 68.3141 24.8833 67.4398 24.8419C67.3156 24.8419 67.1069 24.5315 67.1069 24.3642C67.1069 20.2254 67.1225 16.0866 67.1397 11.9565C67.1397 11.9323 67.169 11.9099 67.2449 11.7996Z" fill="white"/>
<path d="M120.545 24.8797C119.711 24.8797 118.941 24.8797 118.174 24.8797C117.536 24.8797 117.553 24.4124 117.553 23.9675C117.553 21.6417 117.553 19.3154 117.553 16.9885V11.8357H120.544L120.545 24.8797Z" fill="white"/>
<path d="M39.3616 11.8081H42.3173V20.8013H39.3616V11.8081Z" fill="white"/>
<path d="M76.6674 11.7737C74.8343 15.333 73.084 18.732 71.3319 22.1309L71.137 22.1137C71.137 21.2204 71.2163 20.3185 71.1215 19.4356C70.8645 17.0834 71.4922 15.0054 72.6735 12.9756C73.2133 12.0427 73.7393 11.6236 74.7843 11.7685C75.3344 11.8254 75.9069 11.7737 76.6674 11.7737Z" fill="white"/>
<path d="M76.6742 24.8678C75.5257 24.8678 74.5652 24.8885 73.6064 24.8488C73.4425 24.8488 73.2615 24.6022 73.1356 24.4332C72.3716 23.383 72.075 22.3345 73.0183 21.1895C73.3632 20.7635 73.5477 20.1979 73.903 19.5029L76.6742 24.8678Z" fill="white"/>
<path d="M125.676 19.8115V16.804H129.599V19.8115H125.676Z" fill="white"/>
<path d="M60.7866 76.3248L64.0166 69.0733C65.7687 65.1415 67.5276 61.2131 69.2608 57.2709C69.3738 56.9542 69.3994 56.6128 69.3349 56.2828C68.6451 51.9491 67.9381 47.6172 67.3845 43.1628C70.8904 46.467 74.4101 49.7711 77.9608 53.108L76.4795 55.6326L76.6157 55.7395C78.435 54.4514 80.2475 53.1528 82.0754 51.8767C82.8687 51.3214 83.6913 50.4022 84.5035 50.3988C85.2744 50.3988 86.0556 51.3628 86.823 51.9163C88.3853 53.0424 89.9391 54.1772 91.498 55.3032C91.7096 55.4687 91.9625 55.5731 92.2292 55.605C91.8964 54.9515 91.5274 54.3134 91.2497 53.6374C91.16 53.4167 91.2066 52.989 91.3653 52.8407C94.7671 49.6285 98.1868 46.4325 101.624 43.2525C101.655 43.2232 101.728 43.2353 101.857 43.218C101.252 46.5704 100.65 49.8987 100.053 53.2201C99.8653 54.2651 99.6394 55.305 99.4997 56.3552C99.458 56.7473 99.5204 57.1434 99.6807 57.5037C102.44 63.5348 105.209 69.559 107.989 75.5763C108.048 75.7057 108.103 75.8367 108.208 76.0747L100.793 80.448C100.6 77.1715 100.417 74.0674 100.233 70.9633L100.05 70.934L96.625 78.0044C96.0507 77.3629 95.5471 76.7973 94.9125 76.0851C94.2589 78.0406 93.6692 79.791 93.0915 81.5465C92.2723 84.0246 91.4808 86.513 90.6306 88.9808C90.4765 89.3664 90.2019 89.6918 89.8477 89.9086C88.8928 90.4872 87.8845 90.9729 86.8367 91.3589C87.4076 90.2328 87.9766 89.1067 88.5923 87.8892H80.3561L82.541 91.5003L82.4203 91.6727C81.1597 90.8708 79.3163 91.0881 78.6472 89.2584C77.7108 86.6717 76.7295 84.097 75.8242 81.4982C75.2327 79.7962 74.7395 78.0596 74.1324 76.1178L72.5425 78.1786C71.2163 75.5574 70.0454 73.2483 68.8745 70.9357L68.6675 70.953C68.5365 73.9846 68.4054 77.0163 68.2657 80.2531L60.7866 76.3248ZM80.4458 79.5133C80.5062 79.3409 80.5441 79.2823 80.5355 79.2374C79.9888 76.1937 79.4525 73.1465 78.8644 70.1097C78.8179 69.87 78.4488 69.5924 78.1746 69.5148C76.3294 68.9888 74.4722 68.5094 72.6166 68.0196C71.6854 67.7747 70.7507 67.5402 69.8195 67.3022C71.2112 68.4473 72.6149 69.5441 74.148 70.4063C76.2553 71.5979 77.7435 73.2052 78.5627 75.5091C79.0507 76.8628 79.787 78.1234 80.451 79.5133H80.4458ZM99.3445 67.3988C99.2459 67.3682 99.144 67.3497 99.041 67.3436C96.2628 68.0696 93.4812 68.7905 90.722 69.5441C90.5896 69.5976 90.4709 69.6803 90.3748 69.786C90.2787 69.8917 90.2076 70.0176 90.1667 70.1545C89.9115 71.272 89.7218 72.405 89.5166 73.5345C89.1625 75.4763 88.8119 77.4187 88.4647 79.3616C89.256 78.1215 89.9325 76.8118 90.4858 75.4487C91.2877 73.4087 92.4103 71.6928 94.4521 70.7167C94.7279 70.5643 94.9919 70.3913 95.2419 70.1994L99.3445 67.3988Z" fill="white"/>
<path d="M116.072 43.0801C116.072 45.8893 116.087 48.5588 116.044 51.2248C116.044 51.4904 115.727 51.8629 115.461 51.9905C114.82 52.2975 114.123 52.4923 113.449 52.9252C114.101 52.9252 114.756 52.8821 115.403 52.9424C115.806 52.9786 116.279 53.07 116.579 53.3132C120.109 56.1638 123.611 59.0471 127.121 61.9253C127.227 62.0336 127.326 62.1488 127.417 62.2702C125.244 62.2702 123.194 62.284 121.144 62.2512C120.895 62.2512 120.635 62.0098 120.409 61.8408C118.9 60.7147 117.4 59.5765 115.753 58.547C116.698 60.2353 117.633 61.9322 118.609 63.6032C118.698 63.755 119.047 63.7929 119.281 63.8136C119.645 63.8481 120.016 63.8222 120.468 63.9671L112.818 68.9043L112.859 69.0129C113.04 68.944 113.23 68.8922 113.402 68.806C116.201 67.4092 118.991 65.9985 121.802 64.6224C122.128 64.462 122.603 64.3499 122.92 64.462C127.135 65.9675 131.334 67.5161 135.536 69.0543C135.635 69.1063 135.73 69.1639 135.822 69.2268C134.995 69.9718 134.139 70.6357 133.417 71.4203C132.555 72.3516 131.66 72.724 130.383 72.3516C129.349 72.048 128.245 71.9808 127.119 71.9566L130.913 73.5087L126.155 77.4009C124.856 76.3782 123.577 75.3729 122.299 74.364C121.437 73.688 120.562 73.0379 119.745 72.3171C119.279 71.9066 118.883 71.9135 118.343 72.1325C115.82 73.1672 113.283 74.1657 110.755 75.1763C110.493 75.2815 110.224 75.3746 109.869 75.5056C109.107 73.7984 108.363 72.1274 107.618 70.4598C105.677 66.1089 103.756 61.7494 101.771 57.4192C101.405 56.6208 101.529 56.2121 102.174 55.6326C106.544 51.7301 110.866 47.7759 115.203 43.8389C115.479 43.5923 115.755 43.356 116.072 43.0801Z" fill="white"/>
<path d="M55.482 52.7425C54.7922 52.4959 54.0834 52.2803 53.4126 51.9837C53.1815 51.882 52.8849 51.5802 52.8832 51.3663C52.847 48.6399 52.859 45.9152 52.859 43.1785C52.9626 43.2285 53.0603 43.2898 53.1505 43.3613C57.771 47.5437 62.3914 51.7245 67.0119 55.9035C67.3723 56.2294 67.5172 56.4829 67.2896 56.9899C64.5752 63.0394 61.8735 69.0952 59.1845 75.1574C59.1155 75.2749 59.0364 75.3863 58.9482 75.4902L54.0765 73.5571C52.9039 73.0897 51.7209 72.6448 50.5637 72.1413C49.9912 71.8912 49.5722 71.9585 49.0824 72.3568C47.1855 73.9002 45.254 75.3867 43.3606 76.9284C42.9001 77.3044 42.607 77.3475 42.131 76.9284C40.8135 75.7834 39.4391 74.7038 37.9715 73.5036L41.7654 71.9516L41.7344 71.7998C40.4651 72.0033 39.1856 72.1585 37.9301 72.4258C37.1507 72.5982 36.573 72.4603 35.9987 71.8878C35.0865 70.979 34.1018 70.1477 33.0464 69.1976C33.3809 69.0527 33.6206 68.9337 33.869 68.8423C37.8043 67.4041 41.7361 65.9538 45.6852 64.5587C46.1597 64.4132 46.6708 64.4432 47.1251 64.6432C49.8929 65.9728 52.6297 67.3679 55.3785 68.7388C55.6006 68.8622 55.8524 68.9219 56.1063 68.9113L48.3461 63.9103C48.5185 63.8327 48.5961 63.7585 48.653 63.774C50.005 64.1465 50.562 63.3412 51.0673 62.2737C51.664 61.02 52.4003 59.8319 52.9315 58.4799C51.8485 59.2955 50.7069 60.0457 49.6963 60.9442C48.5082 61.9995 47.2234 62.4617 45.6248 62.3237C44.297 62.203 42.9501 62.2996 41.6119 62.2996L41.4602 62.0564C41.6511 61.954 41.8349 61.8387 42.0103 61.7115C45.4127 58.9299 48.8048 56.1363 52.2244 53.3754C52.5905 53.1209 53.018 52.969 53.4626 52.9356C54.1093 52.8632 54.7698 52.9167 55.4251 52.9167L55.482 52.7425Z" fill="white"/>
</svg>
