<svg width="549" height="233" viewBox="0 0 549 233" fill="none" xmlns="http://www.w3.org/2000/svg">
<path d="M126.59 140.75C118.799 140.871 113.621 143.163 113.572 154.502L113.483 175.484L107.004 175.456L107.176 135.036L113.115 135.062L113.084 142.39C116.812 136.389 119.985 133.934 124.151 133.952C124.999 133.955 125.539 134.035 126.618 134.194L126.59 140.75ZM163.967 157.648L134.192 157.522C134.252 161.533 134.782 163.849 136.315 166.17C138.461 169.573 141.924 171.439 146.012 171.457C151.18 171.479 154.817 168.717 156.614 163.402L163.094 163.43C161.436 172.217 155.012 177.435 145.755 177.395C134.416 177.347 127.432 169.141 127.488 155.873C127.545 142.606 134.832 133.997 146.094 134.045C153.654 134.077 159.808 138.115 162.402 144.76C163.546 147.773 163.993 151.477 163.967 157.648ZM134.369 152.277L157.047 152.374C157.125 152.22 157.125 152.065 157.126 151.911C157.154 145.277 152.317 140.011 145.992 139.984C139.512 139.957 134.941 144.797 134.369 152.277ZM184.65 135.366L184.628 140.612L177.994 140.583L177.876 168.276C177.864 171.13 178.632 171.904 181.409 171.916C182.643 171.921 183.646 171.849 184.495 171.621L184.472 177.02C182.311 177.397 180.768 177.544 179.225 177.538C174.211 177.517 171.444 175.191 171.461 171.102L171.592 140.556L166.115 140.533L166.137 135.288L171.614 135.311L171.661 124.203L178.064 124.231L178.016 135.338L184.65 135.366ZM224.082 157.905L194.308 157.778C194.368 161.789 194.898 164.106 196.431 166.426C198.576 169.829 202.039 171.695 206.128 171.713C211.296 171.735 214.933 168.973 216.73 163.659L223.209 163.686C221.552 172.473 215.127 177.691 205.871 177.651C194.532 177.603 187.547 169.397 187.604 156.129C187.66 142.862 194.948 134.253 206.21 134.301C213.769 134.333 219.923 138.371 222.517 145.016C223.662 148.029 224.109 151.734 224.082 157.905ZM194.484 152.533L217.162 152.63C217.24 152.476 217.241 152.321 217.242 152.167C217.27 145.533 212.433 140.267 206.107 140.24C199.628 140.213 195.056 145.053 194.484 152.533ZM229.094 192.792L229.338 135.557L235.278 135.582L235.252 141.676C238.28 136.906 242.688 134.457 248.164 134.48C258.886 134.526 265.484 143.039 265.426 156.615C265.371 169.497 258.47 177.876 248.057 177.831C242.811 177.809 239.04 175.941 235.663 171.762L235.574 192.82L229.094 192.792ZM247.059 140.492C240.271 140.463 235.771 146.615 235.73 156.103C235.69 165.591 240.137 171.781 246.925 171.81C253.945 171.84 258.677 165.612 258.716 156.432C258.757 146.79 254.155 140.522 247.059 140.492Z" fill="white"/>
<path d="M165.986 99.921L136.212 99.7942C136.272 103.806 136.802 106.122 138.335 108.443C140.48 111.846 143.943 113.712 148.031 113.729C153.2 113.751 156.837 110.99 158.634 105.675L165.113 105.703C163.456 114.489 157.031 119.707 147.775 119.668C136.436 119.62 129.451 111.413 129.508 98.1457C129.564 84.8782 136.852 76.2697 148.114 76.3177C155.673 76.3499 161.827 80.3874 164.421 87.0323C165.566 90.0456 166.013 93.7501 165.986 99.921ZM136.388 94.5495L159.066 94.6461C159.144 94.4922 159.145 94.3379 159.146 94.1837C159.174 87.5499 154.337 82.2839 148.011 82.2569C141.532 82.2293 136.96 87.0695 136.388 94.5495ZM171.723 77.5754L177.662 77.6007L177.638 83.3088C181.13 78.464 184.687 76.4736 190.086 76.4966C195.332 76.5189 198.564 78.384 200.936 82.7139C204.735 78.1789 207.982 76.5729 213.382 76.5959C220.941 76.6281 225.089 80.6569 225.058 87.9078L224.929 118.223L218.45 118.195L218.568 90.3486C218.59 85.2575 215.826 82.2374 211.121 82.2173C205.875 82.195 201.613 86.8822 201.588 92.7446L201.48 118.123L195 118.095L195.119 90.2486C195.141 85.0805 192.454 82.1378 187.671 82.1174C182.426 82.095 178.163 86.7823 178.138 92.6447L178.03 118.023L171.551 117.995L171.723 77.5754ZM233.999 89.7972C234.431 78.8454 243.003 76.7221 250.254 76.753C260.204 76.7954 265.433 80.6746 265.403 87.8483L265.301 111.606C265.293 113.612 266.522 114.774 268.759 114.784C269.145 114.785 269.453 114.787 270.148 114.635L270.127 119.495C268.042 120.026 267.039 120.176 265.728 120.171C261.562 120.153 259.565 118.293 259.119 114.203C254.55 118.349 250.455 120.105 245.364 120.084C237.187 120.049 232.116 115.399 232.147 108.071C232.193 97.2719 240.451 96.3814 252.259 94.889C257.353 94.2936 258.978 93.1435 258.989 90.4437L258.996 88.7467C259.013 84.8898 255.782 82.7162 249.997 82.6915C243.98 82.6659 241.04 84.8904 240.479 89.8248L233.999 89.7972ZM246.776 114.459C254.413 114.491 258.908 109.496 258.924 105.64L258.955 98.3888C252.386 101.369 238.896 99.0747 238.859 107.945C238.841 112.034 241.762 114.437 246.776 114.459ZM298.778 78.1168L305.72 78.1464L287.539 126.975C285.277 132.905 281.487 135.28 277.09 135.261C275.393 135.254 274.083 134.94 272.775 134.24L272.799 128.454C274.186 128.769 275.266 128.928 276.191 128.932C278.891 128.943 280.284 127.869 281.376 125.02L283.872 118.628L270.392 77.9959L277.257 78.0251L287.459 109.541L298.778 78.1168ZM340.547 118.715L334.762 118.691L334.786 113.06C330.983 118.366 327.195 120.433 321.255 120.407C313.387 120.374 308.392 116.033 308.42 109.322L308.553 78.1585L314.956 78.1858L314.834 106.804C314.813 111.663 318.04 114.762 323.131 114.784C329.841 114.813 334.184 109.432 334.219 101.178L334.317 78.2683L340.719 78.2956L340.547 118.715ZM350.258 78.3362L356.198 78.3615L356.169 85.1496C359.741 79.5337 363.608 77.236 369.625 77.2617C377.415 77.2949 382.411 81.6359 382.382 88.3468L382.252 118.893L375.85 118.866L375.969 90.865C375.99 86.0054 372.763 82.9061 367.672 82.8844C361.038 82.8562 356.696 88.2373 356.661 96.491L356.566 118.783L350.086 118.756L350.258 78.3362Z" fill="white"/>
<path fill-rule="evenodd" clip-rule="evenodd" d="M49.4386 71.596C51.0599 74.0505 53.0905 76.1667 55.5305 77.9448C54.8645 74.6786 54.8775 71.6192 55.5696 68.7666C56.2616 65.9141 57.3601 63.4032 58.8651 61.234C60.5066 58.9294 62.4861 57.1022 64.8034 55.7523C67.1213 54.2664 69.6409 53.3253 72.3621 52.929C79.3008 52.0068 86.0995 52.0357 92.7581 53.0159C99.4173 53.8602 106.007 55.18 112.526 56.9755L116.192 58.2149C117.55 58.4926 118.977 58.7707 120.471 59.049C115.972 61.8853 111.946 65.4035 108.393 69.6036C104.975 73.8043 101.829 78.3461 98.9522 83.229C96.2119 88.1124 93.675 93.1327 91.3414 98.2898C89.1438 103.448 87.0833 108.334 85.16 112.949C83.6492 116.478 82.069 120.346 80.4194 124.555C78.7703 128.627 76.9173 132.698 74.8603 136.769C72.9399 140.704 70.7478 144.57 68.2841 148.367C65.9563 152.164 63.2223 155.552 60.0822 158.53C57.0786 161.373 53.6694 163.67 49.8546 165.421C46.1758 167.173 41.9569 168.039 37.1978 168.019C33.6625 168.004 30.538 167.31 27.8244 165.939C25.1107 164.568 22.8067 162.79 20.9123 160.607C19.1545 158.288 17.7378 155.698 16.6622 152.838C15.7231 149.842 15.0566 146.712 14.6626 143.447C14.2668 140.59 14.0759 137.53 14.0898 134.266C14.2397 131.003 14.6609 127.878 15.3535 124.889C16.0467 121.765 17.079 118.846 18.4503 116.132C19.9582 113.283 21.9402 110.844 24.3964 108.815C30.8259 103.503 44.2706 94.2069 56.6569 100.794C54.2157 99.2874 51.5006 98.256 48.5115 97.6994C45.523 97.0068 42.4642 96.8578 39.3351 97.2524C32.9408 98.041 27.289 100.125 22.3794 103.503C17.4705 106.745 13.2371 111.011 9.67915 116.299C6.12182 121.451 3.58169 127.219 2.05875 133.603C0.672363 139.852 0.374052 146.038 1.16382 152.16C2.08956 158.283 4.24108 163.935 7.6184 169.116C11.1323 174.162 16.1471 177.991 22.6628 180.603C28.7706 183.212 34.8165 184.394 40.8004 184.147C46.9204 183.901 52.7731 182.566 58.3584 180.143C63.9431 177.855 69.1235 174.75 73.8993 170.827C78.8118 166.768 83.114 162.299 86.8062 157.42C93.3711 148.474 98.9183 139.047 103.448 129.14L117.038 99.0112C120.194 92.2259 123.418 85.6448 126.708 79.268C130.135 72.7557 134.241 66.6543 139.024 60.9637C140.135 60.8918 141.869 60.9627 144.042 61.0515C149.586 61.2779 157.99 61.6212 166.215 60.0119C172.933 58.6975 178.446 57.399 183.979 53.6947C189.025 50.3168 192.715 45.7774 195.051 40.0763C196.013 37.7689 196.29 36.6142 195.882 36.6125C195.474 36.6108 194.316 37.0817 192.408 38.0254C189.274 39.6438 186.005 40.9216 182.602 41.859C182.071 42.0112 181.515 42.1878 180.911 42.379C177.8 43.3658 173.458 44.7426 165.174 45.1786C158.417 45.5342 139.374 42.7444 134.62 41.3644C129.868 39.8484 125.115 38.2645 120.363 36.6125C113.168 33.9983 105.901 32.1317 98.5629 31.0126C91.3615 29.7581 84.4957 29.5249 77.9655 30.3129C71.5719 30.9656 65.7855 32.7086 60.6063 35.542C55.4271 38.3754 51.3303 42.5052 48.3157 47.9314C47.0815 50.3737 46.2546 52.9537 45.8351 55.6715C45.5516 58.3898 45.676 61.1098 46.2083 63.8316C46.8771 66.418 47.9539 69.0061 49.4386 71.596Z" fill="white"/>
<path d="M63.3641 106.329C61.4703 104.01 59.2346 102.164 56.6569 100.794C44.2706 94.2069 30.8259 103.503 24.3964 108.815C26.5795 107.056 28.964 105.911 31.5498 105.378C34.2722 104.709 36.8557 104.72 39.3003 105.411C41.8815 105.966 44.1201 107.131 46.0162 108.907C48.0488 110.547 49.4673 112.729 50.2715 115.452C51.21 118.583 51.3992 122.051 50.8391 125.856C50.279 129.661 49.1076 133.328 47.3248 136.855C45.6781 140.384 43.4889 143.57 40.7573 146.414C38.0256 149.258 34.9575 151.284 31.553 152.493C31.5513 152.901 32.2968 153.448 33.7896 154.135C35.283 154.685 37.7291 155.035 41.1278 155.186C44.1192 155.198 46.9773 154.599 49.702 153.387C52.4272 152.038 54.9497 150.417 57.2693 148.524C59.5896 146.494 61.6393 144.123 63.4186 141.411C65.1978 138.699 66.5017 135.849 67.3303 132.861C68.2955 129.738 68.7847 126.613 68.798 123.485C68.9473 120.358 68.5524 117.297 67.6134 114.302C66.6749 111.17 65.2585 108.513 63.3641 106.329Z" fill="url(#paint0_linear_438_33)"/>
<path d="M49.4383 71.5957C51.0596 74.0501 53.0902 76.1664 55.5302 77.9445C37.0813 35.5417 87.8035 27.7718 134.62 41.3641C129.867 39.8481 125.115 38.2641 120.363 36.6122C113.167 33.998 105.9 32.1313 98.5626 31.0123C91.3612 29.7578 84.4954 29.5246 77.9652 30.3126C71.5715 30.9652 65.7851 32.7082 60.606 35.5417C55.4268 38.3751 51.33 42.5049 48.3154 47.9311C47.0812 50.3734 46.2543 52.9534 45.8348 55.6711C45.5513 58.3894 45.6757 61.1095 46.208 63.8313C46.8768 66.4177 47.9536 69.0058 49.4383 71.5957Z" fill="url(#paint1_linear_438_33)"/>
<mask id="path-5-outside-1_438_33" maskUnits="userSpaceOnUse" x="278.892" y="133.444" width="103.195" height="46.4385" fill="black">
<rect fill="white" x="278.892" y="133.444" width="103.195" height="46.4385"/>
<path d="M281.782 177.456C281.115 177.453 280.783 177.256 280.784 176.863C280.786 176.471 281.102 175.943 281.733 175.279L291.43 164.257C292.692 162.811 294.071 161.228 295.569 159.509C297.107 157.75 298.547 155.912 299.889 153.996C301.27 152.04 302.396 150.083 303.268 148.126C304.178 146.129 304.638 144.169 304.646 142.247C304.653 140.56 304.188 139.244 303.251 138.299C302.352 137.353 301.001 136.877 299.197 136.869C297.51 136.862 295.86 137.443 294.246 138.613C292.672 139.744 291.369 141.7 290.337 144.481C290.139 145.029 289.824 145.303 289.393 145.301C289.118 145.3 288.922 145.181 288.806 144.945C288.689 144.709 288.69 144.415 288.809 144.063C289.643 141.712 290.671 139.853 291.893 138.486C293.115 137.079 294.434 136.084 295.848 135.501C297.263 134.88 298.677 134.572 300.089 134.578C302.796 134.59 304.931 135.324 306.494 136.782C308.096 138.241 308.892 140.186 308.881 142.618C308.872 144.697 308.315 146.735 307.208 148.731C306.101 150.727 304.68 152.682 302.946 154.597C301.251 156.512 299.478 158.368 297.626 160.165C295.775 161.961 294.12 163.68 292.661 165.322L286.157 172.591C285.842 172.942 285.723 173.256 285.8 173.531C285.917 173.806 286.23 173.944 286.74 173.947L293.331 173.975C294.86 173.981 296.097 173.81 297.04 173.461C298.022 173.112 298.868 172.508 299.578 171.648C300.327 170.748 301.078 169.457 301.831 167.773L303.019 165.13C303.217 164.7 303.512 164.485 303.904 164.487C304.492 164.489 304.687 164.843 304.488 165.549L301.264 176.421C301.145 176.852 300.928 177.145 300.613 177.301C300.299 177.457 299.926 177.533 299.494 177.532L281.782 177.456ZM316.397 178.133C313.533 178.121 311.479 176.818 310.235 174.223C308.991 171.59 308.378 168.115 308.397 163.8C308.406 161.564 308.671 159.133 309.193 156.507C309.753 153.881 310.529 151.295 311.521 148.749C312.512 146.164 313.68 143.816 315.022 141.703C316.405 139.551 317.922 137.851 319.575 136.603C321.228 135.315 322.977 134.676 324.82 134.683C327.684 134.696 329.738 136.019 330.982 138.652C332.226 141.247 332.839 144.701 332.821 149.017C332.812 151.213 332.527 153.625 331.966 156.251C331.445 158.877 330.689 161.482 329.697 164.067C328.705 166.613 327.519 168.962 326.136 171.113C324.794 173.226 323.296 174.926 321.642 176.214C319.989 177.501 318.241 178.141 316.397 178.133ZM316.698 176.605C317.992 176.61 319.191 176.046 320.295 174.913C321.437 173.781 322.483 172.255 323.433 170.337C324.382 168.419 325.215 166.304 325.931 163.992C326.686 161.681 327.324 159.33 327.844 156.939C328.365 154.549 328.747 152.314 328.991 150.236C329.275 148.119 329.419 146.334 329.426 144.883C329.438 141.902 329.016 139.723 328.159 138.346C327.341 136.93 326.128 136.219 324.52 136.212C323.225 136.207 322.007 136.77 320.864 137.903C319.761 139.036 318.734 140.561 317.785 142.48C316.835 144.359 315.983 146.473 315.227 148.824C314.511 151.135 313.893 153.486 313.373 155.877C312.853 158.229 312.451 160.463 312.168 162.58C311.923 164.698 311.798 166.482 311.792 167.934C311.785 169.503 311.916 170.935 312.186 172.231C312.494 173.527 312.999 174.588 313.702 175.415C314.405 176.202 315.403 176.599 316.698 176.605ZM329.652 177.66C328.985 177.657 328.652 177.46 328.654 177.067C328.656 176.675 328.972 176.147 329.602 175.483L339.3 164.461C340.561 163.015 341.941 161.432 343.439 159.713C344.976 157.954 346.416 156.116 347.758 154.2C349.14 152.244 350.266 150.287 351.137 148.33C352.048 146.333 352.508 144.373 352.516 142.451C352.523 140.764 352.058 139.448 351.12 138.503C350.222 137.557 348.871 137.081 347.066 137.073C345.379 137.066 343.729 137.647 342.116 138.817C340.542 139.948 339.239 141.904 338.207 144.685C338.009 145.233 337.694 145.507 337.262 145.505C336.988 145.504 336.792 145.385 336.675 145.149C336.559 144.913 336.56 144.619 336.679 144.267C337.513 141.916 338.541 140.057 339.763 138.69C340.985 137.283 342.303 136.288 343.718 135.705C345.133 135.084 346.546 134.776 347.959 134.782C350.665 134.793 352.8 135.528 354.363 136.986C355.965 138.445 356.761 140.39 356.751 142.822C356.742 144.901 356.184 146.939 355.077 148.935C353.97 150.931 352.55 152.886 350.815 154.801C349.12 156.716 347.347 158.572 345.496 160.369C343.644 162.165 341.989 163.884 340.531 165.526L334.027 172.795C333.712 173.146 333.593 173.46 333.67 173.735C333.787 174.01 334.1 174.148 334.61 174.151L341.2 174.179C342.73 174.185 343.967 174.014 344.91 173.665C345.892 173.316 346.738 172.712 347.448 171.852C348.197 170.952 348.948 169.661 349.7 167.977L350.888 165.334C351.086 164.904 351.381 164.689 351.774 164.691C352.362 164.693 352.557 165.047 352.358 165.753L349.134 176.625C349.014 177.056 348.797 177.349 348.483 177.505C348.168 177.661 347.795 177.737 347.364 177.736L329.652 177.66ZM363.208 178.333C361.442 178.325 359.973 177.809 358.801 176.784C357.629 175.72 356.752 174.304 356.171 172.536C355.59 170.729 355.305 168.727 355.314 166.53C355.325 163.902 355.768 161.217 356.643 158.474C357.518 155.693 358.745 153.011 360.325 150.428C361.906 147.846 363.72 145.48 365.769 143.331C367.858 141.143 370.102 139.329 372.501 137.888C374.939 136.407 377.454 135.418 380.045 134.919C380.752 134.765 381.104 134.982 381.102 135.57C381.101 135.845 381.021 136.041 380.864 136.158C380.707 136.236 380.471 136.313 380.157 136.39C376.543 137.395 373.398 139.147 370.719 141.646C368.041 144.145 365.752 147.333 363.853 151.208C363.734 151.443 363.733 151.639 363.85 151.797C363.967 151.915 364.144 151.896 364.38 151.74C364.891 151.468 365.461 151.274 366.089 151.159C366.756 151.044 367.365 150.988 367.914 150.99C370.385 151.001 372.323 152.009 373.727 154.016C375.13 156.023 375.825 158.674 375.811 161.969C375.805 163.499 375.503 165.204 374.907 167.084C374.31 168.965 373.459 170.766 372.353 172.487C371.248 174.169 369.928 175.576 368.393 176.707C366.858 177.799 365.13 178.341 363.208 178.333ZM363.096 176.802C364.273 176.807 365.334 176.4 366.279 175.58C367.264 174.721 368.112 173.626 368.824 172.296C369.535 170.926 370.13 169.457 370.608 167.89C371.085 166.323 371.445 164.814 371.686 163.364C371.928 161.874 372.051 160.58 372.056 159.481C372.065 157.245 371.7 155.518 370.96 154.298C370.259 153.079 369.163 152.467 367.672 152.46C366.378 152.455 365.219 152.862 364.195 153.681C363.211 154.501 362.343 155.596 361.592 156.965C360.88 158.296 360.286 159.745 359.808 161.312C359.331 162.879 358.971 164.408 358.73 165.897C358.527 167.387 358.423 168.701 358.419 169.839C358.409 171.996 358.775 173.704 359.515 174.963C360.255 176.182 361.449 176.795 363.096 176.802Z"/>
</mask>
<path d="M281.782 177.456C281.115 177.453 280.783 177.256 280.784 176.863C280.786 176.471 281.102 175.943 281.733 175.279L291.43 164.257C292.692 162.811 294.071 161.228 295.569 159.509C297.107 157.75 298.547 155.912 299.889 153.996C301.27 152.04 302.396 150.083 303.268 148.126C304.178 146.129 304.638 144.169 304.646 142.247C304.653 140.56 304.188 139.244 303.251 138.299C302.352 137.353 301.001 136.877 299.197 136.869C297.51 136.862 295.86 137.443 294.246 138.613C292.672 139.744 291.369 141.7 290.337 144.481C290.139 145.029 289.824 145.303 289.393 145.301C289.118 145.3 288.922 145.181 288.806 144.945C288.689 144.709 288.69 144.415 288.809 144.063C289.643 141.712 290.671 139.853 291.893 138.486C293.115 137.079 294.434 136.084 295.848 135.501C297.263 134.88 298.677 134.572 300.089 134.578C302.796 134.59 304.931 135.324 306.494 136.782C308.096 138.241 308.892 140.186 308.881 142.618C308.872 144.697 308.315 146.735 307.208 148.731C306.101 150.727 304.68 152.682 302.946 154.597C301.251 156.512 299.478 158.368 297.626 160.165C295.775 161.961 294.12 163.68 292.661 165.322L286.157 172.591C285.842 172.942 285.723 173.256 285.8 173.531C285.917 173.806 286.23 173.944 286.74 173.947L293.331 173.975C294.86 173.981 296.097 173.81 297.04 173.461C298.022 173.112 298.868 172.508 299.578 171.648C300.327 170.748 301.078 169.457 301.831 167.773L303.019 165.13C303.217 164.7 303.512 164.485 303.904 164.487C304.492 164.489 304.687 164.843 304.488 165.549L301.264 176.421C301.145 176.852 300.928 177.145 300.613 177.301C300.299 177.457 299.926 177.533 299.494 177.532L281.782 177.456ZM316.397 178.133C313.533 178.121 311.479 176.818 310.235 174.223C308.991 171.59 308.378 168.115 308.397 163.8C308.406 161.564 308.671 159.133 309.193 156.507C309.753 153.881 310.529 151.295 311.521 148.749C312.512 146.164 313.68 143.816 315.022 141.703C316.405 139.551 317.922 137.851 319.575 136.603C321.228 135.315 322.977 134.676 324.82 134.683C327.684 134.696 329.738 136.019 330.982 138.652C332.226 141.247 332.839 144.701 332.821 149.017C332.812 151.213 332.527 153.625 331.966 156.251C331.445 158.877 330.689 161.482 329.697 164.067C328.705 166.613 327.519 168.962 326.136 171.113C324.794 173.226 323.296 174.926 321.642 176.214C319.989 177.501 318.241 178.141 316.397 178.133ZM316.698 176.605C317.992 176.61 319.191 176.046 320.295 174.913C321.437 173.781 322.483 172.255 323.433 170.337C324.382 168.419 325.215 166.304 325.931 163.992C326.686 161.681 327.324 159.33 327.844 156.939C328.365 154.549 328.747 152.314 328.991 150.236C329.275 148.119 329.419 146.334 329.426 144.883C329.438 141.902 329.016 139.723 328.159 138.346C327.341 136.93 326.128 136.219 324.52 136.212C323.225 136.207 322.007 136.77 320.864 137.903C319.761 139.036 318.734 140.561 317.785 142.48C316.835 144.359 315.983 146.473 315.227 148.824C314.511 151.135 313.893 153.486 313.373 155.877C312.853 158.229 312.451 160.463 312.168 162.58C311.923 164.698 311.798 166.482 311.792 167.934C311.785 169.503 311.916 170.935 312.186 172.231C312.494 173.527 312.999 174.588 313.702 175.415C314.405 176.202 315.403 176.599 316.698 176.605ZM329.652 177.66C328.985 177.657 328.652 177.46 328.654 177.067C328.656 176.675 328.972 176.147 329.602 175.483L339.3 164.461C340.561 163.015 341.941 161.432 343.439 159.713C344.976 157.954 346.416 156.116 347.758 154.2C349.14 152.244 350.266 150.287 351.137 148.33C352.048 146.333 352.508 144.373 352.516 142.451C352.523 140.764 352.058 139.448 351.12 138.503C350.222 137.557 348.871 137.081 347.066 137.073C345.379 137.066 343.729 137.647 342.116 138.817C340.542 139.948 339.239 141.904 338.207 144.685C338.009 145.233 337.694 145.507 337.262 145.505C336.988 145.504 336.792 145.385 336.675 145.149C336.559 144.913 336.56 144.619 336.679 144.267C337.513 141.916 338.541 140.057 339.763 138.69C340.985 137.283 342.303 136.288 343.718 135.705C345.133 135.084 346.546 134.776 347.959 134.782C350.665 134.793 352.8 135.528 354.363 136.986C355.965 138.445 356.761 140.39 356.751 142.822C356.742 144.901 356.184 146.939 355.077 148.935C353.97 150.931 352.55 152.886 350.815 154.801C349.12 156.716 347.347 158.572 345.496 160.369C343.644 162.165 341.989 163.884 340.531 165.526L334.027 172.795C333.712 173.146 333.593 173.46 333.67 173.735C333.787 174.01 334.1 174.148 334.61 174.151L341.2 174.179C342.73 174.185 343.967 174.014 344.91 173.665C345.892 173.316 346.738 172.712 347.448 171.852C348.197 170.952 348.948 169.661 349.7 167.977L350.888 165.334C351.086 164.904 351.381 164.689 351.774 164.691C352.362 164.693 352.557 165.047 352.358 165.753L349.134 176.625C349.014 177.056 348.797 177.349 348.483 177.505C348.168 177.661 347.795 177.737 347.364 177.736L329.652 177.66ZM363.208 178.333C361.442 178.325 359.973 177.809 358.801 176.784C357.629 175.72 356.752 174.304 356.171 172.536C355.59 170.729 355.305 168.727 355.314 166.53C355.325 163.902 355.768 161.217 356.643 158.474C357.518 155.693 358.745 153.011 360.325 150.428C361.906 147.846 363.72 145.48 365.769 143.331C367.858 141.143 370.102 139.329 372.501 137.888C374.939 136.407 377.454 135.418 380.045 134.919C380.752 134.765 381.104 134.982 381.102 135.57C381.101 135.845 381.021 136.041 380.864 136.158C380.707 136.236 380.471 136.313 380.157 136.39C376.543 137.395 373.398 139.147 370.719 141.646C368.041 144.145 365.752 147.333 363.853 151.208C363.734 151.443 363.733 151.639 363.85 151.797C363.967 151.915 364.144 151.896 364.38 151.74C364.891 151.468 365.461 151.274 366.089 151.159C366.756 151.044 367.365 150.988 367.914 150.99C370.385 151.001 372.323 152.009 373.727 154.016C375.13 156.023 375.825 158.674 375.811 161.969C375.805 163.499 375.503 165.204 374.907 167.084C374.31 168.965 373.459 170.766 372.353 172.487C371.248 174.169 369.928 175.576 368.393 176.707C366.858 177.799 365.13 178.341 363.208 178.333ZM363.096 176.802C364.273 176.807 365.334 176.4 366.279 175.58C367.264 174.721 368.112 173.626 368.824 172.296C369.535 170.926 370.13 169.457 370.608 167.89C371.085 166.323 371.445 164.814 371.686 163.364C371.928 161.874 372.051 160.58 372.056 159.481C372.065 157.245 371.7 155.518 370.96 154.298C370.259 153.079 369.163 152.467 367.672 152.46C366.378 152.455 365.219 152.862 364.195 153.681C363.211 154.501 362.343 155.596 361.592 156.965C360.88 158.296 360.286 159.745 359.808 161.312C359.331 162.879 358.971 164.408 358.73 165.897C358.527 167.387 358.423 168.701 358.419 169.839C358.409 171.996 358.775 173.704 359.515 174.963C360.255 176.182 361.449 176.795 363.096 176.802Z" fill="white"/>
<path d="M281.733 175.279L282.402 175.914L282.414 175.901L282.426 175.888L281.733 175.279ZM291.43 164.257L292.123 164.867L292.126 164.864L291.43 164.257ZM295.569 159.509L294.875 158.901L294.873 158.902L295.569 159.509ZM299.889 153.996L299.135 153.463L299.132 153.466L299.889 153.996ZM303.268 148.126L302.428 147.743L302.424 147.75L303.268 148.126ZM303.251 138.299L302.582 138.934L302.588 138.942L302.595 138.948L303.251 138.299ZM294.246 138.613L294.785 139.363L294.788 139.361L294.246 138.613ZM290.337 144.481L289.472 144.16L289.47 144.167L290.337 144.481ZM288.809 144.063L287.939 143.754L287.935 143.767L288.809 144.063ZM291.893 138.486L292.581 139.101L292.59 139.091L291.893 138.486ZM295.848 135.501L296.2 136.355L296.21 136.351L296.22 136.346L295.848 135.501ZM306.494 136.782L305.864 137.457L305.872 137.465L306.494 136.782ZM307.208 148.731L308.015 149.179L307.208 148.731ZM302.946 154.597L302.262 153.977L302.255 153.985L302.946 154.597ZM297.626 160.165L298.269 160.827V160.827L297.626 160.165ZM292.661 165.322L293.349 165.937L293.351 165.935L292.661 165.322ZM286.157 172.591L286.845 173.207L286.845 173.206L286.157 172.591ZM285.8 173.531L284.912 173.78L284.928 173.837L284.95 173.891L285.8 173.531ZM297.04 173.461L296.731 172.591L296.72 172.595L297.04 173.461ZM299.578 171.648L298.869 171.057L298.866 171.06L299.578 171.648ZM301.831 167.773L300.989 167.395L300.988 167.397L301.831 167.773ZM303.019 165.13L302.18 164.745L302.177 164.752L303.019 165.13ZM304.488 165.549L305.373 165.811L305.376 165.799L304.488 165.549ZM301.264 176.421L300.379 176.159L300.377 176.167L300.375 176.174L301.264 176.421ZM300.613 177.301L301.022 178.128L301.022 178.128L300.613 177.301ZM281.782 177.456L281.786 176.533C281.662 176.533 281.578 176.523 281.526 176.512C281.473 176.502 281.474 176.494 281.504 176.512C281.54 176.533 281.602 176.583 281.651 176.669C281.699 176.756 281.708 176.832 281.707 176.867L280.784 176.863L279.861 176.859C279.859 177.377 280.109 177.831 280.561 178.099C280.938 178.323 281.385 178.377 281.778 178.379L281.782 177.456ZM280.784 176.863L281.707 176.867C281.707 176.906 281.698 176.843 281.815 176.647C281.926 176.462 282.113 176.218 282.402 175.914L281.733 175.279L281.063 174.643C280.722 175.003 280.436 175.356 280.231 175.699C280.032 176.032 279.863 176.429 279.861 176.859L280.784 176.863ZM281.733 175.279L282.426 175.888L292.123 164.867L291.43 164.257L290.737 163.648L281.04 174.669L281.733 175.279ZM291.43 164.257L292.126 164.864C293.387 163.418 294.767 161.835 296.265 160.115L295.569 159.509L294.873 158.902C293.376 160.622 291.996 162.205 290.735 163.651L291.43 164.257ZM295.569 159.509L296.264 160.116C297.824 158.332 299.284 156.469 300.645 154.525L299.889 153.996L299.132 153.466C297.809 155.356 296.39 157.167 294.875 158.901L295.569 159.509ZM299.889 153.996L300.642 154.528C302.055 152.529 303.212 150.52 304.111 148.501L303.268 148.126L302.424 147.75C301.58 149.647 300.485 151.551 299.135 153.463L299.889 153.996ZM303.268 148.126L304.107 148.509C305.065 146.41 305.56 144.321 305.569 142.251L304.646 142.247L303.723 142.243C303.716 144.017 303.292 145.848 302.428 147.743L303.268 148.126ZM304.646 142.247L305.569 142.251C305.577 140.388 305.059 138.811 303.906 137.649L303.251 138.299L302.595 138.948C303.317 139.677 303.73 140.732 303.723 142.243L304.646 142.247ZM303.251 138.299L303.92 137.663C302.79 136.474 301.157 135.954 299.2 135.946L299.197 136.869L299.193 137.792C300.845 137.799 301.915 138.233 302.582 138.934L303.251 138.299ZM299.197 136.869L299.2 135.946C297.284 135.938 295.447 136.603 293.704 137.866L294.246 138.613L294.788 139.361C296.272 138.284 297.735 137.786 299.193 137.792L299.197 136.869ZM294.246 138.613L293.708 137.864C291.925 139.145 290.536 141.292 289.472 144.16L290.337 144.481L291.203 144.802C292.202 142.108 293.42 140.344 294.785 139.363L294.246 138.613ZM290.337 144.481L289.47 144.167C289.438 144.255 289.408 144.314 289.384 144.352C289.361 144.389 289.347 144.401 289.348 144.4C289.35 144.398 289.361 144.39 289.379 144.383C289.396 144.377 289.405 144.378 289.396 144.378L289.393 145.301L289.389 146.224C289.819 146.226 290.225 146.083 290.557 145.794C290.872 145.522 291.073 145.161 291.205 144.795L290.337 144.481ZM289.393 145.301L289.396 144.378C289.393 144.378 289.447 144.378 289.518 144.422C289.592 144.466 289.625 144.521 289.633 144.536L288.806 144.945L287.978 145.355C288.102 145.606 288.292 145.837 288.562 146.001C288.829 146.162 289.118 146.223 289.389 146.224L289.393 145.301ZM288.806 144.945L289.633 144.536C289.645 144.561 289.642 144.573 289.642 144.552C289.642 144.526 289.648 144.464 289.684 144.358L288.809 144.063L287.935 143.767C287.77 144.254 287.715 144.822 287.978 145.355L288.806 144.945ZM288.809 144.063L289.679 144.371C290.486 142.096 291.462 140.353 292.581 139.101L291.893 138.486L291.205 137.871C289.88 139.354 288.8 141.329 287.939 143.754L288.809 144.063ZM291.893 138.486L292.59 139.091C293.738 137.769 294.944 136.872 296.2 136.355L295.848 135.501L295.497 134.648C293.923 135.296 292.492 136.388 291.196 137.88L291.893 138.486ZM295.848 135.501L296.22 136.346C297.527 135.772 298.814 135.496 300.085 135.501L300.089 134.578L300.093 133.655C298.54 133.648 296.999 133.988 295.477 134.656L295.848 135.501ZM300.089 134.578L300.085 135.501C302.624 135.512 304.513 136.197 305.864 137.457L306.494 136.782L307.123 136.108C305.349 134.452 302.968 133.667 300.093 133.655L300.089 134.578ZM306.494 136.782L305.872 137.465C307.256 138.725 307.968 140.408 307.958 142.614L308.881 142.618L309.804 142.622C309.816 139.964 308.935 137.757 307.115 136.1L306.494 136.782ZM308.881 142.618L307.958 142.614C307.95 144.523 307.44 146.409 306.4 148.283L307.208 148.731L308.015 149.179C309.189 147.06 309.795 144.871 309.804 142.622L308.881 142.618ZM307.208 148.731L306.4 148.283C305.332 150.21 303.955 152.108 302.262 153.978L302.946 154.597L303.63 155.217C305.406 153.256 306.869 151.244 308.015 149.179L307.208 148.731ZM302.946 154.597L302.255 153.985C300.575 155.883 298.818 157.722 296.983 159.502L297.626 160.165L298.269 160.827C300.137 159.014 301.926 157.142 303.637 155.209L302.946 154.597ZM297.626 160.165L296.983 159.502C295.118 161.312 293.447 163.048 291.971 164.709L292.661 165.322L293.351 165.935C294.792 164.313 296.431 162.61 298.269 160.827L297.626 160.165ZM292.661 165.322L291.973 164.706L285.47 171.975L286.157 172.591L286.845 173.206L293.349 165.937L292.661 165.322ZM286.157 172.591L285.47 171.975C285.085 172.404 284.704 173.042 284.912 173.78L285.8 173.531L286.689 173.281C286.699 173.318 286.702 173.354 286.7 173.383C286.698 173.41 286.692 173.423 286.695 173.417C286.697 173.411 286.706 173.389 286.731 173.352C286.755 173.315 286.792 173.266 286.845 173.207L286.157 172.591ZM285.8 173.531L284.95 173.891C285.296 174.706 286.14 174.867 286.736 174.87L286.74 173.947L286.744 173.024C286.657 173.023 286.593 173.017 286.55 173.01C286.507 173.002 286.492 172.995 286.496 172.997C286.502 173 286.53 173.013 286.565 173.046C286.601 173.081 286.631 173.125 286.65 173.171L285.8 173.531ZM286.74 173.947L286.736 174.87L293.327 174.898L293.331 173.975L293.334 173.052L286.744 173.024L286.74 173.947ZM293.331 173.975L293.327 174.898C294.915 174.904 296.274 174.729 297.36 174.326L297.04 173.461L296.72 172.595C295.92 172.891 294.805 173.058 293.334 173.052L293.331 173.975ZM297.04 173.461L297.349 174.331C298.499 173.922 299.481 173.215 300.29 172.235L299.578 171.648L298.866 171.06C298.255 171.801 297.545 172.302 296.731 172.591L297.04 173.461ZM299.578 171.648L300.287 172.238C301.112 171.248 301.904 169.872 302.673 168.15L301.831 167.773L300.988 167.397C300.252 169.042 299.542 170.249 298.869 171.057L299.578 171.648ZM301.831 167.773L302.672 168.152L303.86 165.509L303.019 165.13L302.177 164.752L300.989 167.395L301.831 167.773ZM303.019 165.13L303.857 165.516C303.909 165.403 303.944 165.384 303.931 165.393C303.924 165.398 303.913 165.404 303.901 165.408C303.89 165.412 303.887 165.41 303.9 165.41L303.904 164.487L303.908 163.564C303.531 163.562 303.164 163.668 302.846 163.9C302.538 164.124 302.326 164.428 302.18 164.745L303.019 165.13ZM303.904 164.487L303.9 165.41C303.962 165.41 303.945 165.42 303.889 165.395C303.859 165.381 303.82 165.358 303.78 165.321C303.739 165.285 303.706 165.242 303.683 165.199C303.636 165.114 303.641 165.059 303.641 165.082C303.64 165.106 303.635 165.174 303.6 165.298L304.488 165.549L305.376 165.799C305.493 165.386 305.579 164.816 305.3 164.309C304.973 163.715 304.368 163.566 303.908 163.564L303.904 164.487ZM304.488 165.549L303.603 165.286L300.379 176.159L301.264 176.421L302.149 176.683L305.373 165.811L304.488 165.549ZM301.264 176.421L300.375 176.174C300.305 176.427 300.222 176.465 300.204 176.474L300.613 177.301L301.022 178.128C301.633 177.826 301.984 177.277 302.153 176.668L301.264 176.421ZM300.613 177.301L300.204 176.474C300.044 176.553 299.819 176.61 299.498 176.609L299.494 177.532L299.49 178.455C300.033 178.457 300.553 178.36 301.022 178.128L300.613 177.301ZM299.494 177.532L299.498 176.609L281.786 176.533L281.782 177.456L281.778 178.379L299.49 178.455L299.494 177.532ZM310.235 174.223L309.401 174.617L309.403 174.622L310.235 174.223ZM309.193 156.507L308.29 156.314L308.287 156.327L309.193 156.507ZM311.521 148.749L312.381 149.084L312.382 149.08L311.521 148.749ZM315.022 141.703L314.246 141.204L314.243 141.208L315.022 141.703ZM319.575 136.603L320.131 137.339L320.142 137.331L319.575 136.603ZM330.982 138.652L330.148 139.046L330.15 139.051L330.982 138.652ZM331.966 156.251L331.064 156.058L331.061 156.071L331.966 156.251ZM329.697 164.067L330.557 164.402L330.559 164.398L329.697 164.067ZM326.136 171.113L325.36 170.615L325.357 170.618L326.136 171.113ZM321.642 176.214L322.21 176.942V176.942L321.642 176.214ZM320.295 174.913L319.645 174.258L319.639 174.264L319.633 174.269L320.295 174.913ZM323.433 170.337L324.26 170.746V170.746L323.433 170.337ZM325.931 163.992L325.054 163.706L325.052 163.713L325.05 163.719L325.931 163.992ZM327.844 156.939L326.942 156.743V156.743L327.844 156.939ZM328.991 150.236L328.076 150.113L328.075 150.121L328.074 150.128L328.991 150.236ZM328.159 138.346L327.36 138.808L327.367 138.821L327.375 138.834L328.159 138.346ZM320.864 137.903L320.214 137.247L320.209 137.253L320.203 137.259L320.864 137.903ZM317.785 142.48L318.609 142.896L318.612 142.889L317.785 142.48ZM315.227 148.824L314.349 148.541L314.346 148.551L315.227 148.824ZM313.373 155.877L314.274 156.077L314.275 156.073L313.373 155.877ZM312.168 162.58L311.253 162.458L311.252 162.466L311.251 162.475L312.168 162.58ZM312.186 172.231L311.282 172.419L311.285 172.432L311.288 172.444L312.186 172.231ZM313.702 175.415L312.999 176.013L313.006 176.021L313.013 176.029L313.702 175.415ZM316.397 178.133L316.401 177.21C315.112 177.205 314.059 176.91 313.203 176.367C312.347 175.824 311.629 174.994 311.067 173.824L310.235 174.223L309.403 174.622C310.086 176.047 311.017 177.166 312.214 177.926C313.412 178.686 314.819 179.049 316.393 179.056L316.397 178.133ZM310.235 174.223L311.07 173.829C309.906 171.365 309.302 168.042 309.32 163.804L308.397 163.8L307.474 163.796C307.455 168.188 308.076 171.814 309.401 174.617L310.235 174.223ZM308.397 163.8L309.32 163.804C309.329 161.637 309.586 159.266 310.098 156.686L309.193 156.507L308.287 156.327C307.757 159 307.483 161.491 307.474 163.796L308.397 163.8ZM309.193 156.507L310.095 156.699C310.645 154.123 311.407 151.585 312.381 149.084L311.521 148.749L310.661 148.414C309.651 151.005 308.861 153.639 308.29 156.314L309.193 156.507ZM311.521 148.749L312.382 149.08C313.354 146.546 314.495 144.254 315.801 142.198L315.022 141.703L314.243 141.208C312.864 143.378 311.67 145.782 310.659 148.419L311.521 148.749ZM315.022 141.703L315.799 142.202C317.136 140.121 318.583 138.509 320.131 137.339L319.575 136.603L319.019 135.866C317.261 137.194 315.674 138.981 314.246 141.204L315.022 141.703ZM319.575 136.603L320.142 137.331C321.656 136.152 323.207 135.599 324.817 135.606L324.82 134.683L324.824 133.76C322.746 133.752 320.801 134.478 319.008 135.875L319.575 136.603ZM324.82 134.683L324.817 135.606C326.103 135.612 327.154 135.91 328.009 136.461C328.865 137.012 329.585 137.855 330.148 139.046L330.982 138.652L331.817 138.258C331.135 136.815 330.206 135.68 329.008 134.909C327.81 134.137 326.401 133.767 324.824 133.76L324.82 134.683ZM330.982 138.652L330.15 139.051C331.311 141.473 331.916 144.773 331.898 149.013L332.821 149.017L333.744 149.02C333.763 144.63 333.142 141.02 331.814 138.253L330.982 138.652ZM332.821 149.017L331.898 149.013C331.889 151.134 331.614 153.481 331.064 156.058L331.966 156.251L332.869 156.443C333.44 153.768 333.734 151.293 333.744 149.02L332.821 149.017ZM331.966 156.251L331.061 156.071C330.55 158.644 329.809 161.199 328.835 163.737L329.697 164.067L330.559 164.398C331.569 161.766 332.34 159.11 332.872 156.43L331.966 156.251ZM329.697 164.067L328.837 163.732C327.866 166.225 326.707 168.518 325.36 170.615L326.136 171.113L326.913 171.612C328.33 169.405 329.545 167.001 330.557 164.402L329.697 164.067ZM326.136 171.113L325.357 170.618C324.061 172.659 322.631 174.274 321.075 175.485L321.642 176.214L322.21 176.942C323.961 175.578 325.526 173.794 326.915 171.609L326.136 171.113ZM321.642 176.214L321.075 175.485C319.562 176.664 318.01 177.217 316.401 177.21L316.397 178.133L316.393 179.056C318.472 179.065 320.417 178.338 322.21 176.942L321.642 176.214ZM316.698 176.605L316.694 177.528C318.293 177.534 319.719 176.827 320.956 175.557L320.295 174.913L319.633 174.269C318.663 175.266 317.692 175.686 316.702 175.682L316.698 176.605ZM320.295 174.913L320.944 175.569C322.179 174.345 323.279 172.728 324.26 170.746L323.433 170.337L322.606 169.927C321.687 171.783 320.695 173.216 319.645 174.258L320.295 174.913ZM323.433 170.337L324.26 170.746C325.234 168.779 326.084 166.618 326.813 164.265L325.931 163.992L325.05 163.719C324.346 165.99 323.531 168.058 322.606 169.927L323.433 170.337ZM325.931 163.992L326.809 164.279C327.574 161.938 328.219 159.557 328.746 157.136L327.844 156.939L326.942 156.743C326.429 159.103 325.799 161.424 325.054 163.706L325.931 163.992ZM327.844 156.939L328.746 157.136C329.272 154.72 329.659 152.456 329.908 150.344L328.991 150.236L328.074 150.128C327.834 152.172 327.457 154.377 326.942 156.743L327.844 156.939ZM328.991 150.236L329.906 150.359C330.192 148.218 330.342 146.392 330.349 144.887L329.426 144.883L328.503 144.879C328.497 146.277 328.357 148.019 328.076 150.113L328.991 150.236ZM329.426 144.883L330.349 144.887C330.362 141.856 329.94 139.461 328.942 137.858L328.159 138.346L327.375 138.834C328.092 139.984 328.515 141.947 328.503 144.879L329.426 144.883ZM328.159 138.346L328.958 137.884C327.98 136.19 326.467 135.297 324.524 135.289L324.52 136.212L324.516 137.135C325.789 137.14 326.703 137.67 327.36 138.808L328.159 138.346ZM324.52 136.212L324.524 135.289C322.928 135.282 321.486 135.987 320.214 137.247L320.864 137.903L321.514 138.558C322.527 137.554 323.522 137.131 324.516 137.135L324.52 136.212ZM320.864 137.903L320.203 137.259C319.013 138.48 317.936 140.094 316.958 142.07L317.785 142.48L318.612 142.889C319.533 141.029 320.508 139.591 321.525 138.547L320.864 137.903ZM317.785 142.48L316.961 142.063C315.986 143.992 315.116 146.153 314.349 148.541L315.227 148.824L316.106 149.106C316.849 146.794 317.684 144.725 318.609 142.896L317.785 142.48ZM315.227 148.824L314.346 148.551C313.622 150.888 312.997 153.265 312.471 155.681L313.373 155.877L314.275 156.073C314.79 153.708 315.401 151.383 316.109 149.097L315.227 148.824ZM313.373 155.877L312.472 155.678C311.947 158.052 311.54 160.312 311.253 162.458L312.168 162.58L313.083 162.703C313.362 160.614 313.759 158.406 314.274 156.077L313.373 155.877ZM312.168 162.58L311.251 162.475C311.004 164.612 310.875 166.432 310.869 167.93L311.792 167.934L312.715 167.937C312.721 166.532 312.843 164.784 313.085 162.686L312.168 162.58ZM311.792 167.934L310.869 167.93C310.862 169.552 310.997 171.049 311.282 172.419L312.186 172.231L313.089 172.043C312.835 170.821 312.708 169.454 312.715 167.937L311.792 167.934ZM312.186 172.231L311.288 172.444C311.622 173.85 312.183 175.052 312.999 176.013L313.702 175.415L314.405 174.817C313.816 174.124 313.366 173.203 313.083 172.017L312.186 172.231ZM313.702 175.415L313.013 176.029C313.929 177.055 315.202 177.521 316.694 177.528L316.698 176.605L316.702 175.682C315.605 175.677 314.881 175.35 314.391 174.8L313.702 175.415ZM329.602 175.483L330.272 176.118L330.284 176.105L330.295 176.092L329.602 175.483ZM339.3 164.461L339.993 165.071L339.995 165.068L339.3 164.461ZM343.439 159.713L342.744 159.105L342.743 159.106L343.439 159.713ZM347.758 154.2L347.004 153.667L347.002 153.67L347.758 154.2ZM351.137 148.33L350.297 147.947L350.294 147.954L351.137 148.33ZM351.12 138.503L350.451 139.138L350.458 139.146L350.465 139.152L351.12 138.503ZM342.116 138.817L342.654 139.567L342.658 139.565L342.116 138.817ZM338.207 144.685L337.342 144.364L337.339 144.371L338.207 144.685ZM336.679 144.267L335.809 143.958L335.805 143.971L336.679 144.267ZM339.763 138.69L340.451 139.305L340.459 139.295L339.763 138.69ZM343.718 135.705L344.069 136.559L344.079 136.555L344.089 136.55L343.718 135.705ZM354.363 136.986L353.734 137.661L353.742 137.669L354.363 136.986ZM355.077 148.935L355.884 149.383L355.077 148.935ZM350.815 154.801L350.131 154.181L350.124 154.189L350.815 154.801ZM345.496 160.369L346.139 161.031V161.031L345.496 160.369ZM340.531 165.526L341.219 166.141L341.221 166.139L340.531 165.526ZM334.027 172.795L334.714 173.411L334.715 173.41L334.027 172.795ZM333.67 173.735L332.781 173.984L332.797 174.041L332.82 174.095L333.67 173.735ZM344.91 173.665L344.601 172.795L344.589 172.799L344.91 173.665ZM347.448 171.851L346.738 171.261L346.736 171.264L347.448 171.851ZM349.7 167.977L348.858 167.599L348.857 167.601L349.7 167.977ZM350.888 165.334L350.05 164.949L350.046 164.956L350.888 165.334ZM352.358 165.753L353.243 166.015L353.246 166.003L352.358 165.753ZM349.134 176.625L348.249 176.363L348.246 176.371L348.244 176.378L349.134 176.625ZM348.483 177.505L348.892 178.332L348.892 178.332L348.483 177.505ZM329.652 177.66L329.656 176.737C329.532 176.737 329.448 176.727 329.396 176.716C329.343 176.706 329.344 176.698 329.374 176.716C329.409 176.737 329.472 176.787 329.52 176.873C329.569 176.96 329.577 177.036 329.577 177.071L328.654 177.067L327.731 177.063C327.729 177.581 327.979 178.035 328.431 178.303C328.807 178.527 329.254 178.581 329.648 178.583L329.652 177.66ZM328.654 177.067L329.577 177.071C329.577 177.11 329.567 177.047 329.684 176.851C329.795 176.666 329.983 176.422 330.272 176.118L329.602 175.483L328.933 174.847C328.591 175.207 328.306 175.56 328.1 175.903C327.901 176.236 327.733 176.633 327.731 177.063L328.654 177.067ZM329.602 175.483L330.295 176.092L339.993 165.071L339.3 164.461L338.607 163.852L328.909 174.873L329.602 175.483ZM339.3 164.461L339.995 165.068C341.257 163.622 342.637 162.039 344.135 160.319L343.439 159.713L342.743 159.106C341.245 160.826 339.866 162.409 338.604 163.855L339.3 164.461ZM343.439 159.713L344.134 160.32C345.693 158.536 347.153 156.673 348.514 154.729L347.758 154.2L347.002 153.67C345.679 155.56 344.26 157.371 342.744 159.105L343.439 159.713ZM347.758 154.2L348.512 154.732C349.924 152.733 351.082 150.724 351.981 148.705L351.137 148.33L350.294 147.954C349.45 149.851 348.355 151.755 347.004 153.667L347.758 154.2ZM351.137 148.33L351.977 148.713C352.934 146.614 353.43 144.525 353.439 142.455L352.516 142.451L351.593 142.447C351.585 144.221 351.162 146.052 350.298 147.947L351.137 148.33ZM352.516 142.451L353.439 142.455C353.447 140.592 352.929 139.015 351.776 137.853L351.12 138.503L350.465 139.152C351.187 139.881 351.599 140.936 351.593 142.447L352.516 142.451ZM351.12 138.503L351.789 137.867C350.66 136.678 349.027 136.158 347.07 136.15L347.066 137.073L347.062 137.996C348.714 138.003 349.784 138.437 350.451 139.138L351.12 138.503ZM347.066 137.073L347.07 136.15C345.154 136.142 343.316 136.807 341.574 138.07L342.116 138.817L342.658 139.565C344.142 138.488 345.605 137.99 347.062 137.996L347.066 137.073ZM342.116 138.817L341.577 138.068C339.794 139.349 338.406 141.496 337.342 144.364L338.207 144.685L339.072 145.006C340.072 142.312 341.289 140.548 342.654 139.567L342.116 138.817ZM338.207 144.685L337.339 144.371C337.307 144.459 337.277 144.518 337.254 144.556C337.23 144.593 337.216 144.605 337.217 144.604C337.219 144.602 337.231 144.594 337.249 144.587C337.266 144.581 337.274 144.582 337.266 144.582L337.262 145.505L337.258 146.428C337.689 146.43 338.094 146.287 338.427 145.998C338.741 145.726 338.942 145.365 339.075 144.999L338.207 144.685ZM337.262 145.505L337.266 144.582C337.262 144.582 337.316 144.582 337.388 144.626C337.462 144.67 337.495 144.725 337.503 144.74L336.675 145.149L335.848 145.559C335.972 145.81 336.162 146.041 336.431 146.204C336.698 146.366 336.987 146.427 337.258 146.428L337.262 145.505ZM336.675 145.149L337.503 144.74C337.515 144.765 337.512 144.777 337.512 144.756C337.512 144.73 337.518 144.668 337.553 144.562L336.679 144.267L335.805 143.971C335.64 144.458 335.584 145.026 335.848 145.559L336.675 145.149ZM336.679 144.267L337.549 144.575C338.356 142.3 339.332 140.557 340.451 139.305L339.763 138.69L339.074 138.075C337.749 139.558 336.669 141.533 335.809 143.958L336.679 144.267ZM339.763 138.69L340.459 139.295C341.608 137.973 342.813 137.076 344.069 136.559L343.718 135.705L343.367 134.852C341.793 135.5 340.362 136.592 339.066 138.084L339.763 138.69ZM343.718 135.705L344.089 136.55C345.397 135.976 346.683 135.7 347.955 135.705L347.959 134.782L347.963 133.859C346.409 133.852 344.869 134.192 343.347 134.86L343.718 135.705ZM347.959 134.782L347.955 135.705C350.493 135.716 352.382 136.401 353.734 137.661L354.363 136.986L354.993 136.312C353.218 134.656 350.837 133.871 347.963 133.859L347.959 134.782ZM354.363 136.986L353.742 137.669C355.126 138.929 355.837 140.612 355.828 142.818L356.751 142.822L357.674 142.826C357.685 140.168 356.805 137.961 354.984 136.304L354.363 136.986ZM356.751 142.822L355.828 142.818C355.82 144.727 355.309 146.613 354.27 148.487L355.077 148.935L355.884 149.383C357.059 147.264 357.664 145.075 357.674 142.826L356.751 142.822ZM355.077 148.935L354.27 148.487C353.202 150.414 351.824 152.312 350.131 154.181L350.815 154.801L351.5 155.421C353.275 153.46 354.739 151.448 355.884 149.383L355.077 148.935ZM350.815 154.801L350.124 154.189C348.445 156.087 346.688 157.926 344.853 159.706L345.496 160.369L346.139 161.031C348.007 159.218 349.796 157.345 351.507 155.413L350.815 154.801ZM345.496 160.369L344.853 159.706C342.988 161.516 341.317 163.252 339.841 164.913L340.531 165.526L341.221 166.139C342.662 164.517 344.301 162.814 346.139 161.031L345.496 160.369ZM340.531 165.526L339.843 164.91L333.339 172.179L334.027 172.795L334.715 173.41L341.219 166.141L340.531 165.526ZM334.027 172.795L333.34 172.179C332.955 172.608 332.574 173.246 332.781 173.984L333.67 173.735L334.559 173.485C334.569 173.522 334.572 173.557 334.57 173.587C334.568 173.614 334.562 173.627 334.564 173.621C334.567 173.615 334.576 173.593 334.6 173.556C334.625 173.519 334.661 173.47 334.714 173.411L334.027 172.795ZM333.67 173.735L332.82 174.095C333.166 174.91 334.009 175.071 334.606 175.074L334.61 174.151L334.614 173.228C334.526 173.227 334.463 173.221 334.42 173.214C334.376 173.206 334.361 173.199 334.366 173.201C334.372 173.204 334.4 173.217 334.434 173.25C334.471 173.285 334.501 173.329 334.52 173.375L333.67 173.735ZM334.61 174.151L334.606 175.074L341.196 175.102L341.2 174.179L341.204 173.256L334.614 173.228L334.61 174.151ZM341.2 174.179L341.196 175.102C342.785 175.108 344.144 174.933 345.23 174.53L344.91 173.665L344.589 172.799C343.789 173.095 342.675 173.262 341.204 173.256L341.2 174.179ZM344.91 173.665L345.218 174.535C346.369 174.126 347.351 173.419 348.159 172.439L347.448 171.851L346.736 171.264C346.125 172.005 345.414 172.506 344.601 172.795L344.91 173.665ZM347.448 171.851L348.157 172.442C348.982 171.452 349.773 170.076 350.543 168.354L349.7 167.977L348.857 167.601C348.122 169.246 347.412 170.453 346.738 171.261L347.448 171.851ZM349.7 167.977L350.542 168.356L351.73 165.713L350.888 165.334L350.046 164.956L348.858 167.599L349.7 167.977ZM350.888 165.334L351.727 165.72C351.779 165.607 351.814 165.588 351.801 165.597C351.794 165.602 351.783 165.608 351.771 165.612C351.759 165.615 351.757 165.614 351.77 165.614L351.774 164.691L351.778 163.768C351.401 163.766 351.034 163.872 350.715 164.104C350.407 164.328 350.195 164.632 350.05 164.949L350.888 165.334ZM351.774 164.691L351.77 165.614C351.831 165.614 351.815 165.624 351.759 165.599C351.728 165.585 351.689 165.562 351.649 165.525C351.609 165.489 351.576 165.446 351.552 165.403C351.505 165.318 351.51 165.263 351.51 165.286C351.51 165.309 351.504 165.378 351.469 165.502L352.358 165.753L353.246 166.003C353.363 165.59 353.449 165.02 353.17 164.513C352.843 163.919 352.237 163.77 351.778 163.768L351.774 164.691ZM352.358 165.753L351.473 165.49L348.249 176.363L349.134 176.625L350.019 176.887L353.243 166.015L352.358 165.753ZM349.134 176.625L348.244 176.378C348.174 176.631 348.091 176.669 348.073 176.678L348.483 177.505L348.892 178.332C349.503 178.03 349.854 177.481 350.023 176.872L349.134 176.625ZM348.483 177.505L348.073 176.678C347.913 176.757 347.688 176.814 347.368 176.813L347.364 177.736L347.36 178.659C347.902 178.661 348.423 178.564 348.892 178.332L348.483 177.505ZM347.364 177.736L347.368 176.813L329.656 176.737L329.652 177.66L329.648 178.583L347.36 178.659L347.364 177.736ZM358.801 176.784L358.181 177.467L358.187 177.473L358.193 177.479L358.801 176.784ZM356.171 172.536L355.292 172.818L355.294 172.824L356.171 172.536ZM356.643 158.474L357.522 158.755L357.523 158.751L356.643 158.474ZM360.325 150.428L359.538 149.947V149.947L360.325 150.428ZM365.769 143.331L365.102 142.694L365.101 142.694L365.769 143.331ZM372.501 137.888L372.976 138.679L372.98 138.677L372.501 137.888ZM380.045 134.919L380.22 135.825L380.231 135.823L380.242 135.821L380.045 134.919ZM380.864 136.158L381.273 136.985L381.348 136.948L381.415 136.899L380.864 136.158ZM380.157 136.39L379.937 135.494L379.923 135.497L379.91 135.501L380.157 136.39ZM370.719 141.646L371.349 142.321L371.349 142.321L370.719 141.646ZM363.853 151.208L364.677 151.625L364.682 151.615L363.853 151.208ZM363.85 151.797L363.11 152.347L363.149 152.4L363.195 152.447L363.85 151.797ZM364.38 151.74L363.946 150.926L363.908 150.946L363.871 150.97L364.38 151.74ZM366.089 151.159L365.933 150.249L365.923 150.251L366.089 151.159ZM373.727 154.016L372.97 154.545V154.545L373.727 154.016ZM374.907 167.084L374.027 166.805L374.027 166.805L374.907 167.084ZM372.353 172.487L373.125 172.994L373.13 172.986L372.353 172.487ZM368.393 176.707L368.928 177.459L368.934 177.455L368.94 177.45L368.393 176.707ZM366.279 175.58L366.884 176.277L366.886 176.276L366.279 175.58ZM368.824 172.296L369.637 172.731L369.643 172.721L368.824 172.296ZM370.608 167.89L371.491 168.159L371.491 168.159L370.608 167.89ZM371.686 163.364L372.597 163.515L372.597 163.511L371.686 163.364ZM370.96 154.298L370.16 154.759L370.165 154.768L370.171 154.777L370.96 154.298ZM364.195 153.681L363.618 152.961L363.611 152.966L363.605 152.972L364.195 153.681ZM361.592 156.965L360.783 156.522L360.778 156.53L361.592 156.965ZM359.808 161.312L360.691 161.581V161.581L359.808 161.312ZM358.73 165.897L357.819 165.75L357.817 165.761L357.815 165.773L358.73 165.897ZM359.515 174.963L358.719 175.431L358.726 175.442L359.515 174.963ZM363.208 178.333L363.212 177.41C361.637 177.403 360.391 176.948 359.408 176.089L358.801 176.784L358.193 177.479C359.555 178.67 361.248 179.247 363.204 179.256L363.208 178.333ZM358.801 176.784L359.421 176.101C358.386 175.161 357.588 173.891 357.048 172.248L356.171 172.536L355.294 172.824C355.916 174.717 356.871 176.278 358.181 177.467L358.801 176.784ZM356.171 172.536L357.05 172.254C356.503 170.552 356.228 168.649 356.237 166.534L355.314 166.53L354.391 166.526C354.381 168.805 354.678 170.906 355.292 172.818L356.171 172.536ZM355.314 166.53L356.237 166.534C356.248 164.008 356.673 161.416 357.522 158.755L356.643 158.474L355.764 158.194C354.863 161.017 354.403 163.796 354.391 166.526L355.314 166.53ZM356.643 158.474L357.523 158.751C358.375 156.044 359.57 153.431 361.113 150.91L360.325 150.428L359.538 149.947C357.92 152.591 356.661 155.341 355.762 158.197L356.643 158.474ZM360.325 150.428L361.113 150.91C362.659 148.382 364.434 146.069 366.437 143.968L365.769 143.331L365.101 142.694C363.006 144.892 361.152 147.309 359.538 149.947L360.325 150.428ZM365.769 143.331L366.437 143.969C368.473 141.836 370.653 140.074 372.976 138.679L372.501 137.888L372.025 137.096C369.55 138.583 367.243 140.451 365.102 142.694L365.769 143.331ZM372.501 137.888L372.98 138.677C375.332 137.249 377.745 136.302 380.22 135.825L380.045 134.919L379.871 134.012C377.164 134.534 374.546 135.566 372.022 137.099L372.501 137.888ZM380.045 134.919L380.242 135.821C380.364 135.794 380.43 135.793 380.454 135.794C380.476 135.796 380.428 135.797 380.355 135.752C380.318 135.729 380.282 135.699 380.252 135.663C380.221 135.627 380.202 135.593 380.191 135.566C380.169 135.517 380.179 135.506 380.179 135.567L381.102 135.57L382.025 135.574C382.027 135.108 381.881 134.524 381.324 134.181C380.838 133.881 380.275 133.924 379.849 134.017L380.045 134.919ZM381.102 135.57L380.179 135.567C380.179 135.62 380.171 135.615 380.186 135.577C380.194 135.556 380.208 135.529 380.231 135.498C380.255 135.468 380.283 135.44 380.313 135.417L380.864 136.158L381.415 136.899C381.889 136.546 382.023 136.016 382.025 135.574L381.102 135.57ZM380.864 136.158L380.455 135.331C380.389 135.363 380.231 135.422 379.937 135.494L380.157 136.39L380.377 137.287C380.712 137.205 381.025 137.108 381.273 136.985L380.864 136.158ZM380.157 136.39L379.91 135.501C376.157 136.544 372.879 138.368 370.09 140.971L370.719 141.646L371.349 142.321C373.916 139.925 376.93 138.245 380.404 137.28L380.157 136.39ZM370.719 141.646L370.09 140.971C367.316 143.559 364.964 146.843 363.024 150.802L363.853 151.208L364.682 151.615C366.54 147.822 368.766 144.731 371.349 142.321L370.719 141.646ZM363.853 151.208L363.029 150.792C362.815 151.215 362.712 151.813 363.11 152.347L363.85 151.797L364.591 151.246C364.618 151.282 364.643 151.328 364.661 151.383C364.68 151.438 364.686 151.491 364.686 151.536C364.686 151.621 364.661 151.656 364.677 151.625L363.853 151.208ZM363.85 151.797L363.195 152.447C363.466 152.72 363.823 152.826 364.169 152.789C364.466 152.757 364.713 152.626 364.889 152.51L364.38 151.74L363.871 150.97C363.811 151.01 363.852 150.966 363.973 150.953C364.042 150.946 364.138 150.949 364.245 150.985C364.354 151.022 364.442 151.082 364.506 151.147L363.85 151.797ZM364.38 151.74L364.814 152.555C365.233 152.331 365.711 152.167 366.255 152.067L366.089 151.159L365.923 150.251C365.211 150.382 364.549 150.604 363.946 150.926L364.38 151.74ZM366.089 151.159L366.246 152.069C366.872 151.961 367.425 151.911 367.91 151.913L367.914 150.99L367.918 150.067C367.304 150.065 366.641 150.127 365.933 150.249L366.089 151.159ZM367.914 150.99L367.91 151.913C370.085 151.923 371.74 152.787 372.97 154.545L373.727 154.016L374.483 153.487C372.905 151.232 370.686 150.079 367.918 150.067L367.914 150.99ZM373.727 154.016L372.97 154.545C374.233 156.35 374.902 158.796 374.888 161.965L375.811 161.969L376.734 161.973C376.749 158.552 376.028 155.696 374.483 153.487L373.727 154.016ZM375.811 161.969L374.888 161.965C374.882 163.379 374.603 164.99 374.027 166.805L374.907 167.084L375.786 167.364C376.403 165.418 376.727 163.619 376.734 161.973L375.811 161.969ZM374.907 167.084L374.027 166.805C373.456 168.606 372.64 170.333 371.577 171.988L372.353 172.487L373.13 172.986C374.278 171.199 375.165 169.324 375.786 167.364L374.907 167.084ZM372.353 172.487L371.582 171.98C370.533 173.576 369.287 174.901 367.845 175.964L368.393 176.707L368.94 177.45C370.568 176.251 371.962 174.762 373.125 172.994L372.353 172.487ZM368.393 176.707L367.858 175.955C366.484 176.933 364.945 177.417 363.212 177.41L363.208 178.333L363.204 179.256C365.315 179.265 367.232 178.665 368.928 177.459L368.393 176.707ZM363.096 176.802L363.092 177.725C364.508 177.731 365.782 177.234 366.884 176.277L366.279 175.58L365.674 174.883C364.887 175.566 364.039 175.883 363.1 175.879L363.096 176.802ZM366.279 175.58L366.886 176.276C367.967 175.333 368.881 174.145 369.637 172.731L368.824 172.296L368.01 171.86C367.342 173.108 366.561 174.11 365.672 174.885L366.279 175.58ZM368.824 172.296L369.643 172.721C370.382 171.298 370.998 169.777 371.491 168.159L370.608 167.89L369.725 167.621C369.263 169.137 368.689 170.553 368.004 171.87L368.824 172.296ZM370.608 167.89L371.491 168.159C371.978 166.558 372.348 165.01 372.597 163.515L371.686 163.364L370.776 163.212C370.541 164.619 370.192 166.088 369.725 167.621L370.608 167.89ZM371.686 163.364L372.597 163.511C372.844 161.99 372.974 160.646 372.979 159.485L372.056 159.481L371.133 159.478C371.128 160.514 371.012 161.757 370.775 163.216L371.686 163.364ZM372.056 159.481L372.979 159.485C372.989 157.167 372.614 155.245 371.749 153.82L370.96 154.298L370.171 154.777C370.786 155.791 371.142 157.323 371.133 159.478L372.056 159.481ZM370.96 154.298L371.76 153.838C370.883 152.314 369.472 151.545 367.676 151.537L367.672 152.46L367.668 153.383C368.854 153.388 369.634 153.845 370.16 154.759L370.96 154.298ZM367.672 152.46L367.676 151.537C366.168 151.531 364.804 152.011 363.618 152.961L364.195 153.681L364.772 154.402C365.633 153.712 366.588 153.379 367.668 153.383L367.672 152.46ZM364.195 153.681L363.605 152.972C362.514 153.88 361.578 155.072 360.783 156.522L361.592 156.965L362.401 157.409C363.109 156.119 363.908 155.122 364.786 154.39L364.195 153.681ZM361.592 156.965L360.778 156.53C360.036 157.918 359.419 159.423 358.925 161.043L359.808 161.312L360.691 161.581C361.153 160.067 361.725 158.674 362.406 157.401L361.592 156.965ZM359.808 161.312L358.925 161.043C358.437 162.647 358.067 164.216 357.819 165.75L358.73 165.897L359.641 166.045C359.875 164.6 360.225 163.112 360.691 161.581L359.808 161.312ZM358.73 165.897L357.815 165.773C357.609 167.291 357.501 168.646 357.496 169.835L358.419 169.839L359.342 169.843C359.346 168.756 359.445 167.484 359.644 166.022L358.73 165.897ZM358.419 169.839L357.496 169.835C357.486 172.084 357.864 173.977 358.719 175.431L359.515 174.963L360.31 174.495C359.685 173.432 359.333 171.908 359.342 169.843L358.419 169.839ZM359.515 174.963L358.726 175.442C359.661 176.982 361.183 177.717 363.092 177.725L363.096 176.802L363.1 175.879C361.715 175.873 360.849 175.382 360.304 174.484L359.515 174.963Z" fill="white" mask="url(#path-5-outside-1_438_33)"/>
<path d="M190.743 63.3835L190.789 52.479L193.122 52.489L193.075 63.3934L190.743 63.3835ZM192.357 57.726L197.287 52.5067L200.391 52.5199L195.19 57.7381L192.357 57.726ZM197.483 63.4122L192.327 57.7259L195.19 57.7381L200.648 63.4257L197.483 63.4122ZM201.673 63.4301L201.719 52.5256L204.052 52.5355L204.005 63.44L201.673 63.4301ZM203.287 57.7726L208.217 52.5533L211.321 52.5665L206.119 57.7847L203.287 57.7726ZM208.412 63.4588L203.257 57.7725L206.119 57.7847L211.578 63.4723L208.412 63.4588ZM212.603 63.4767L212.649 52.5722L215.663 52.585L220.469 62.238L219.726 62.4165L219.768 52.6025L222.039 52.6122L221.993 63.5167L218.979 63.5038L214.174 53.8509L214.916 53.6723L214.875 63.4863L212.603 63.4767ZM223.668 60.313L223.676 58.4956L229.219 58.5192L229.211 60.3366L223.668 60.313ZM230.869 63.5545L230.915 52.65L236.095 52.6721C236.902 52.6755 237.594 52.8198 238.168 53.105C238.752 53.3902 239.2 53.7859 239.511 54.2921C239.832 54.7983 239.991 55.3896 239.988 56.0661C239.985 56.7426 239.821 57.3376 239.496 57.8512C239.17 58.3647 238.714 58.7666 238.127 59.057C237.551 59.3372 236.863 59.4756 236.066 59.4722L232.734 59.458L232.741 57.6709L235.952 57.6846C236.487 57.6869 236.902 57.5422 237.196 57.2507C237.5 56.9491 237.653 56.5559 237.655 56.0713C237.657 55.5867 237.508 55.1973 237.206 54.9032C236.914 54.6091 236.501 54.461 235.966 54.4587L233.24 54.4471L233.201 63.5644L230.869 63.5545ZM241.044 63.5979L241.091 52.6934L246.27 52.7154C247.078 52.7189 247.769 52.8632 248.343 53.1484C248.928 53.4336 249.375 53.8292 249.686 54.3354C250.007 54.8416 250.166 55.433 250.163 56.1095C250.161 56.7859 249.996 57.381 249.671 57.8945C249.346 58.4081 248.89 58.81 248.303 59.1003C247.726 59.3806 247.039 59.519 246.241 59.5156L242.909 59.5014L242.917 57.7143L246.128 57.728C246.663 57.7302 247.078 57.5856 247.372 57.294C247.676 56.9924 247.829 56.5993 247.831 56.1147C247.833 55.63 247.683 55.2407 247.382 54.9466C247.09 54.6525 246.677 54.5043 246.142 54.5021L243.415 54.4904L243.377 63.6078L241.044 63.5979ZM251.22 63.6412L251.266 52.7367L254.901 52.7522L257.885 63.2758L256.568 63.2702L259.642 52.7724L263.292 52.788L263.245 63.6925L260.943 63.6827L260.987 53.4294L261.381 53.4311L258.384 63.6717L255.975 63.6615L253.096 53.4867L253.474 53.4883L253.431 63.6506L251.22 63.6412ZM272.165 63.8819C270.61 63.8753 269.445 63.4463 268.672 62.5948C267.908 61.7333 267.53 60.4848 267.537 58.8491L267.562 52.8062L269.895 52.8161L269.867 59.2679C269.863 60.217 270.067 60.9146 270.479 61.3606C270.891 61.8066 271.461 62.0312 272.188 62.0343C272.915 62.0374 273.486 61.8177 273.902 61.3752C274.318 60.9327 274.528 60.242 274.532 59.303L274.559 52.836L276.892 52.8459L276.866 58.9191C276.859 60.5346 276.465 61.7698 275.684 62.6247C274.903 63.4695 273.73 63.8886 272.165 63.8819ZM283.662 63.9309C282.481 63.9259 281.467 63.6893 280.621 63.2213C279.775 62.7532 279.121 62.0992 278.66 61.2592C278.21 60.4192 277.987 59.4388 277.991 58.3181C277.996 57.2075 278.232 56.2341 278.7 55.3981C279.169 54.5519 279.812 53.8933 280.632 53.4223C281.462 52.9512 282.423 52.7181 283.513 52.7227C284.412 52.7265 285.214 52.8915 285.919 53.2176C286.634 53.5438 287.208 53.9905 287.64 54.5577C288.082 55.1149 288.341 55.7623 288.419 56.4997L286.087 56.4897C285.988 55.8936 285.708 55.4279 285.245 55.0928C284.792 54.7475 284.222 54.5735 283.535 54.5705C282.899 54.5678 282.343 54.7169 281.867 55.0178C281.392 55.3086 281.021 55.7311 280.756 56.2853C280.492 56.8395 280.357 57.5053 280.354 58.2827C280.351 59.0905 280.479 59.7827 280.739 60.3593C280.999 60.9258 281.381 61.3616 281.885 61.6667C282.398 61.9617 283.029 62.1108 283.776 62.114C284.382 62.1165 284.897 62.043 285.322 61.8934C285.746 61.7437 286.07 61.5331 286.294 61.2614L288.501 62.1492C287.913 62.7324 287.23 63.1788 286.451 63.4884C285.682 63.7881 284.753 63.9356 283.662 63.9309ZM286.169 62.1393L286.181 59.1406L286.649 59.6121L283.771 59.5998L283.779 57.8127L288.519 57.8329L288.501 62.1492L286.169 62.1393ZM289.822 63.8057L289.869 52.9012L293.503 52.9167L296.488 63.4403L295.17 63.4347L298.244 52.9369L301.894 52.9525L301.847 63.857L299.545 63.8471L299.589 53.5939L299.983 53.5956L296.986 63.8362L294.578 63.826L291.698 53.6512L292.077 53.6528L292.033 63.8151L289.822 63.8057ZM306.239 63.8757L306.286 52.9712L311.465 52.9933C312.273 52.9967 312.964 53.141 313.538 53.4262C314.123 53.7114 314.57 54.1071 314.881 54.6132C315.202 55.1195 315.361 55.7108 315.358 56.3873C315.356 57.0638 315.191 57.6588 314.866 58.1723C314.541 58.6859 314.085 59.0878 313.498 59.3781C312.921 59.6584 312.234 59.7968 311.436 59.7934L308.104 59.7792L308.112 57.9921L311.323 58.0058C311.858 58.0081 312.273 57.8634 312.567 57.5719C312.871 57.2703 313.024 56.8771 313.026 56.3925C313.028 55.9078 312.878 55.5185 312.577 55.2244C312.285 54.9303 311.872 54.7822 311.337 54.7799L308.61 54.7683L308.572 63.8856L306.239 63.8757ZM316.415 63.919L316.461 53.0146L318.794 53.0245L318.747 63.929L316.415 63.919ZM317.505 63.9237L317.513 62.1366L324.54 62.1665L324.533 63.9536L317.505 63.9237ZM317.525 59.2287L317.533 57.4719L324.03 57.4996L324.023 59.2564L317.525 59.2287ZM317.544 54.8063L317.552 53.0192L324.397 53.0484L324.39 54.8355L317.544 54.8063ZM325.731 63.9587L325.778 53.0543L330.654 53.075C331.442 53.0784 332.128 53.2176 332.712 53.4927C333.297 53.7577 333.75 54.1333 334.071 54.6193C334.392 55.1053 334.551 55.6714 334.548 56.3176C334.545 56.9537 334.381 57.5134 334.056 57.9966C333.731 58.4698 333.275 58.8415 332.688 59.1116C332.102 59.3716 331.415 59.4999 330.627 59.4966L327.598 59.4837L327.605 57.7723L330.574 57.7849C331.129 57.7873 331.554 57.6629 331.848 57.4117C332.152 57.1505 332.305 56.7876 332.307 56.3232C332.309 55.8486 332.164 55.4896 331.872 55.246C331.58 54.9924 331.152 54.8643 330.586 54.8619L328.102 54.8513L328.064 63.9687L325.731 63.9587ZM331.88 63.9849L327.527 58.302L329.996 58.3125L335.03 63.9984L331.88 63.9849ZM335.908 64.0021L335.955 53.0976L338.287 53.1076L338.241 64.012L335.908 64.0021ZM345.039 64.1925C344.231 64.189 343.484 64.0495 342.799 63.774C342.124 63.4985 341.535 63.1123 341.032 62.6154C340.539 62.1085 340.153 61.5111 339.873 60.8233C339.604 60.1255 339.471 59.3576 339.474 58.5195C339.479 57.4089 339.72 56.4406 340.198 55.6147C340.677 54.7787 341.336 54.1302 342.176 53.6694C343.026 53.2085 343.991 52.9804 345.071 52.985C346.172 52.9897 347.14 53.2261 347.976 53.6941C348.812 54.1621 349.466 54.8161 349.937 55.6562C350.418 56.4963 350.656 57.4717 350.651 58.5823C350.648 59.4102 350.503 60.1719 350.217 60.8674C349.942 61.5528 349.551 62.1469 349.044 62.6496C348.547 63.1422 347.955 63.5234 347.267 63.793C346.589 64.0628 345.846 64.1959 345.039 64.1925ZM345.031 62.3447C345.668 62.3474 346.229 62.1883 346.715 61.8672C347.201 61.5462 347.581 61.1035 347.856 60.5393C348.141 59.965 348.286 59.2992 348.289 58.5419C348.292 57.7948 348.158 57.143 347.888 56.5865C347.618 56.03 347.241 55.5993 346.758 55.2943C346.274 54.9893 345.71 54.8355 345.063 54.8327C344.427 54.83 343.866 54.9791 343.38 55.2799C342.894 55.5808 342.514 56.0082 342.239 56.5624C341.974 57.1065 341.84 57.7572 341.837 58.5144C341.834 59.2818 341.967 59.9538 342.237 60.5305C342.507 61.0971 342.884 61.5429 343.367 61.8681C343.851 62.1832 344.405 62.342 345.031 62.3447ZM353.261 64.0761L353.269 62.2586L356.025 62.2704C356.813 62.2737 357.48 62.1201 358.026 61.8094C358.583 61.4887 359.004 61.0513 359.289 60.4971C359.584 59.9431 359.733 59.3076 359.736 58.5907C359.739 57.884 359.601 57.2624 359.32 56.7261C359.04 56.1897 358.622 55.7689 358.068 55.4637C357.524 55.1584 356.854 55.0041 356.056 55.0007L353.345 54.9892L353.353 53.1718L356.064 53.1833C357.285 53.1885 358.35 53.4152 359.257 53.8633C360.163 54.3014 360.862 54.9303 361.354 55.7503C361.855 56.5602 362.103 57.5204 362.099 58.6311C362.094 59.7417 361.837 60.7099 361.329 61.5357C360.821 62.3514 360.111 62.9845 359.201 63.435C358.3 63.8754 357.244 64.093 356.032 64.0879L353.261 64.0761ZM351.837 64.07L351.884 53.1655L354.216 53.1754L354.17 64.0799L351.837 64.07ZM363.285 64.1188L363.331 53.2143L365.664 53.2242L365.617 64.1287L363.285 64.1188ZM364.375 64.1234L364.383 62.3363L371.41 62.3662L371.403 64.1534L364.375 64.1234ZM364.395 59.4284L364.403 57.6716L370.9 57.6993L370.893 59.4561L364.395 59.4284ZM364.414 55.0061L364.422 53.2189L371.267 53.2481L371.26 55.0352L364.414 55.0061ZM375.649 64.1715L375.696 53.267L378.028 53.2769L377.982 64.1814L375.649 64.1715ZM379.495 64.1878L379.541 53.2834L381.874 53.2933L381.827 64.1978L379.495 64.1878Z" fill="white"/>
<path d="M530.204 167.755C530.204 162.924 526.287 159.007 521.455 159.007C516.623 159.007 512.706 162.924 512.706 167.755V168.4C510.948 165.398 507.689 163.381 503.958 163.381C498.363 163.381 493.828 167.916 493.828 173.511V176.74C491.372 171.306 485.905 167.525 479.554 167.525C473.204 167.525 467.736 171.306 465.281 176.74V173.511C465.281 167.916 460.745 163.381 455.151 163.381C451.42 163.381 448.161 165.398 446.403 168.4V167.755C446.403 162.924 442.486 159.007 437.654 159.007C432.822 159.007 428.905 162.924 428.905 167.755V190.547C428.905 195.379 432.822 199.296 437.654 199.296C440.747 199.296 443.465 197.691 445.021 195.268V198.605C445.021 204.2 449.556 208.735 455.151 208.735C458.882 208.735 462.141 206.718 463.899 203.716V207.008C463.899 215.655 470.908 222.664 479.554 222.664C488.201 222.664 495.21 215.655 495.21 207.008V203.716C496.968 206.718 500.227 208.735 503.958 208.735C509.553 208.735 514.088 204.2 514.088 198.605V195.268C515.644 197.691 518.362 199.296 521.455 199.296C526.287 199.296 530.204 195.379 530.204 190.547V167.755ZM532.087 190.547C532.087 196.419 527.327 201.179 521.455 201.179C519.43 201.179 517.538 200.612 515.928 199.631C515.412 205.735 510.332 210.539 504.113 210.618L503.958 210.619C501.38 210.619 498.992 209.806 497.036 208.424C496.315 217.448 488.764 224.547 479.554 224.547C470.345 224.547 462.793 217.448 462.072 208.424C460.169 209.768 457.857 210.575 455.358 210.617L455.151 210.619C448.861 210.619 443.701 205.785 443.181 199.631C441.571 200.612 439.679 201.179 437.654 201.179C431.782 201.179 427.022 196.419 427.022 190.547V167.755C427.022 161.884 431.782 157.124 437.654 157.124C442.251 157.124 446.167 160.042 447.65 164.127C449.705 162.483 452.312 161.498 455.151 161.498C460.935 161.498 465.764 165.586 466.907 171.03C470.097 167.71 474.583 165.642 479.554 165.642C484.525 165.642 489.011 167.71 492.201 171.03C493.345 165.585 498.174 161.498 503.958 161.498C506.796 161.498 509.404 162.483 511.458 164.127C512.942 160.042 516.857 157.124 521.455 157.124C527.327 157.124 532.087 161.884 532.087 167.755V190.547Z" fill="#28547A"/>
<path d="M430.739 175.646V89.0581C430.739 62.0916 452.587 40.2306 479.539 40.2306C506.49 40.2306 528.339 62.0916 528.339 89.0581V175.646C528.339 176.686 529.18 177.529 530.217 177.529C531.255 177.529 532.096 176.686 532.096 175.646V89.0581C532.096 60.0048 508.558 36.4644 479.539 36.4644C450.519 36.4644 426.982 60.0048 426.982 89.0581V175.646C426.982 176.686 427.823 177.529 428.86 177.529C429.898 177.529 430.739 176.686 430.739 175.646Z" fill="#E87400"/>
<path d="M479.439 18.6598C490.29 18.6598 499.086 27.456 499.086 38.3062C499.086 49.1566 490.29 57.9527 479.439 57.9527C468.589 57.9526 459.793 49.1565 459.793 38.3062C459.793 27.4561 468.589 18.6599 479.439 18.6598Z" stroke="#E87400" stroke-width="1.71195"/>
<mask id="mask0_438_33" style="mask-type:alpha" maskUnits="userSpaceOnUse" x="428" y="38" width="103" height="143">
<path d="M479.439 38.3479C451.385 38.3479 428.636 61.0491 428.636 89.0597V180.101H530.243V89.0597C530.243 61.0491 507.494 38.3479 479.439 38.3479ZM479.439 40.1898C506.48 40.1898 528.401 62.0696 528.401 89.0597V178.259H430.478V89.0597C430.478 62.0696 452.399 40.1898 479.439 40.1898Z" fill="white"/>
<path d="M479.439 40.1898C506.48 40.1898 528.401 62.0696 528.401 89.0597V178.259H430.478V89.0597C430.478 62.0696 452.399 40.1898 479.439 40.1898Z" fill="white"/>
</mask>
<g mask="url(#mask0_438_33)">
<path d="M428.423 86.1557L469.082 39.505H428.423V86.1557Z" fill="#E97400"/>
<path d="M469.082 39.505L428.423 86.1557V94.3731H440.92L472.078 39.505H469.082Z" fill="#F8B316"/>
<path d="M472.078 39.505L440.92 94.3731H460.094L475.245 39.505H472.078Z" fill="#E97400"/>
<path d="M475.245 39.505L460.094 94.3731H472.078L477.984 39.505H475.245Z" fill="#F8B316"/>
<path d="M530.455 86.1557L489.796 39.505H530.455V86.1557Z" fill="#E97400"/>
<path d="M489.796 39.505L530.455 86.1557V94.3731H517.958L486.8 39.505H489.796Z" fill="#F8B316"/>
<path d="M486.8 39.505L517.958 94.3731H498.784L483.633 39.505H486.8Z" fill="#E97400"/>
<path d="M483.633 39.505L498.784 94.3731H486.8L480.894 39.505H483.633Z" fill="#F8B316"/>
<path d="M477.984 39.505L472.078 94.3731H479.439H486.8L480.894 39.505H479.439H477.984Z" fill="#E97400"/>
</g>
<g filter="url(#filter0_d_438_33)">
<path d="M457.356 79.9686L475.502 69.4916C477.939 68.0849 480.941 68.0849 483.377 69.4916L501.524 79.9686V86.2636V97.6846H457.356V86.2636V79.9686Z" fill="#FFD23F"/>
<path d="M502.294 80.4133L501.524 79.9686V86.2636L508.029 83.7245L502.294 80.4133Z" fill="#FFD23F"/>
<path d="M457.356 79.9686L450.85 83.7245L457.356 86.2636V79.9686Z" fill="#FFD23F"/>
<g filter="url(#filter1_d_438_33)">
<path d="M428.766 96.328C428.766 93.5145 430.095 90.9148 432.532 89.5081L446.741 81.3044C449.178 79.8976 452.18 79.8976 454.616 81.3044L468.825 89.5081C471.262 90.9148 472.763 93.5145 472.763 96.328V104.279C472.763 108.628 469.237 116.091 464.888 116.091H428.766C428.766 116.091 428.766 108.628 428.766 104.279V100.319V96.328Z" fill="#FFE079"/>
</g>
<g filter="url(#filter2_d_438_33)">
<path d="M530.113 96.328C530.113 93.5145 528.783 90.9148 526.346 89.5081L512.137 81.3044C509.701 79.8976 506.699 79.8976 504.262 81.3044L490.053 89.5081C487.617 90.9148 486.116 93.5145 486.116 96.328V104.279C486.116 108.628 489.641 116.091 493.991 116.091H530.113C530.113 116.091 530.113 108.628 530.113 104.279V100.319V96.328Z" fill="#FFE079"/>
</g>
</g>
<g filter="url(#filter3_d_438_33)">
<path d="M457.356 100.855L475.502 90.3776C477.939 88.9708 480.941 88.9708 483.377 90.3776L501.524 100.855V107.149V110.964C501.524 116.142 496.612 119.911 491.611 118.571L457.356 109.392V108.366V100.855Z" fill="#FFD85D"/>
<path d="M502.294 101.299L501.524 100.855V107.149L508.029 104.61L502.294 101.299Z" fill="#FFD85D"/>
<path d="M457.356 100.855L450.85 104.61L457.356 108.366V100.855Z" fill="#FFD85D"/>
<g filter="url(#filter4_d_438_33)">
<path d="M428.766 117.214C428.766 114.4 430.095 111.8 432.532 110.394L446.741 102.19C449.178 100.783 452.18 100.783 454.616 102.19L468.825 110.394C471.262 111.8 472.763 114.4 472.763 117.214V125.164C472.763 129.513 469.237 136.977 464.888 136.977H428.766C428.766 136.977 428.766 129.513 428.766 125.164V121.204V117.214Z" fill="#FFE48B"/>
</g>
<g filter="url(#filter5_d_438_33)">
<path d="M530.113 117.214C530.113 114.4 528.783 111.8 526.346 110.394L512.137 102.19C509.701 100.783 506.699 100.783 504.262 102.19L490.053 110.394C487.617 111.8 486.116 114.4 486.116 117.214V125.164C486.116 129.513 489.641 136.977 493.991 136.977H530.113C530.113 136.977 530.113 129.513 530.113 125.164V121.204V117.214Z" fill="#FFE48B"/>
</g>
</g>
<path d="M457.356 125.165L475.502 114.688C477.939 113.281 480.941 113.281 483.377 114.688L501.524 125.165V131.46V135.274C501.524 140.452 496.612 144.221 491.611 142.881L457.356 133.702V132.676V125.165Z" fill="#FFE07B"/>
<path d="M502.294 125.609L501.524 125.165V131.46L508.029 128.921L502.294 125.609Z" fill="#FFE07B"/>
<path d="M457.356 125.165L450.85 128.921L457.356 132.676V125.165Z" fill="#FFE07B"/>
<path d="M428.766 141.524C428.766 138.71 430.095 136.11 432.532 134.704L446.741 126.5C449.178 125.093 452.18 125.093 454.616 126.5L468.825 134.704C471.262 136.11 472.763 138.71 472.763 141.524V149.474C472.763 153.823 469.237 157.349 464.888 157.349H428.766C428.766 157.349 428.766 153.823 428.766 149.474V145.514V141.524Z" fill="#FFE591"/>
<path d="M530.113 141.524C530.113 138.71 528.612 136.11 526.175 134.704L511.966 126.5C509.53 125.093 506.528 125.093 504.091 126.5L489.882 134.704C487.445 136.11 485.944 138.71 485.944 141.524V149.474C485.944 153.823 489.47 157.349 493.819 157.349H530.113C530.113 157.349 530.113 153.823 530.113 149.474V145.514V141.524Z" fill="#FBE08B"/>
<g filter="url(#filter6_d_438_33)">
<path d="M457.356 146.241L475.502 135.764C477.939 134.358 480.941 134.358 483.377 135.764L501.524 146.241V152.536V156.351C501.524 161.529 496.612 165.298 491.611 163.957L457.356 154.779V153.753V146.241Z" fill="#FFECAC"/>
<path d="M502.294 146.686L501.524 146.241V152.536L508.029 149.997L502.294 146.686Z" fill="#FFECAC"/>
<path d="M457.356 146.241L450.85 149.997L457.356 153.753V146.241Z" fill="#FFECAC"/>
<path d="M428.594 161.719C428.594 159.451 429.804 157.355 431.769 156.221L446.741 147.577C449.177 146.17 452.179 146.17 454.616 147.577L468.825 155.78C471.262 157.187 472.763 159.787 472.763 162.6V168.163C472.763 173.341 467.851 177.11 462.849 175.77L433.3 167.852C430.524 167.108 428.594 164.593 428.594 161.719Z" fill="#FFF2C4"/>
<g filter="url(#filter7_d_438_33)">
<path d="M530.113 161.719C530.113 159.451 528.903 157.355 526.938 156.221L511.966 147.577C509.53 146.17 506.528 146.17 504.091 147.577L489.882 155.78C487.445 157.187 485.944 159.787 485.944 162.6V168.163C485.944 173.341 490.856 177.11 495.858 175.77L525.407 167.852C528.183 167.108 530.113 164.593 530.113 161.719Z" fill="#FFF2C4"/>
</g>
</g>
<path d="M479.44 39.2686C451.892 39.2686 429.557 61.5593 429.557 89.0596V176.954H529.323V89.0596C529.323 61.5593 506.988 39.2686 479.44 39.2686Z" stroke="white" stroke-width="1.84178" stroke-linecap="round"/>
<mask id="mask1_438_33" style="mask-type:alpha" maskUnits="userSpaceOnUse" x="421" y="174" width="118" height="59">
<path d="M421.078 174.432H538.722V232.678H421.078V174.432Z" fill="#D9D9D9"/>
</mask>
<g mask="url(#mask1_438_33)">
<path d="M479.555 168.446C471.417 168.446 464.82 175.043 464.82 183.18V207.009C464.82 215.146 471.417 221.743 479.555 221.743C487.692 221.743 494.289 215.146 494.289 207.009V183.18C494.289 175.043 487.692 168.446 479.555 168.446Z" fill="#28547A" stroke="white" stroke-width="1.84178" stroke-linecap="round"/>
<path d="M437.653 159.928C441.976 159.928 445.481 163.432 445.481 167.755V190.548C445.481 194.871 441.976 198.375 437.653 198.375C433.331 198.375 429.826 194.871 429.826 190.548V167.755C429.826 163.432 433.331 159.928 437.653 159.928Z" fill="#28547A" stroke="white" stroke-width="1.84178" stroke-linecap="round"/>
<path d="M455.151 164.302C460.237 164.302 464.36 168.425 464.36 173.511V198.605C464.36 203.691 460.237 207.814 455.151 207.814C450.065 207.814 445.942 203.691 445.942 198.605V173.511C445.942 168.425 450.065 164.302 455.151 164.302Z" fill="#92B7CF" stroke="white" stroke-width="1.84178" stroke-linecap="round"/>
<path d="M521.455 159.928C517.132 159.928 513.627 163.432 513.627 167.755V190.548C513.627 194.871 517.132 198.375 521.455 198.375C525.778 198.375 529.282 194.871 529.282 190.548V167.755C529.282 163.432 525.778 159.928 521.455 159.928Z" fill="#28547A" stroke="white" stroke-width="1.84178" stroke-linecap="round"/>
<path d="M503.958 164.302C498.872 164.302 494.749 168.425 494.749 173.511V198.605C494.749 203.691 498.872 207.814 503.958 207.814C509.044 207.814 513.167 203.691 513.167 198.605V173.511C513.167 168.425 509.044 164.302 503.958 164.302Z" fill="#92B7CF" stroke="white" stroke-width="1.84178" stroke-linecap="round"/>
</g>
<path d="M463.446 168.561C469.423 155.709 468.856 139.323 463.446 128.733L479.677 138.057V183.296L463.446 168.561Z" fill="url(#paint2_linear_438_33)"/>
<path d="M495.947 168.567C489.97 155.715 490.537 139.329 495.947 128.739L479.677 138.057V183.296L495.947 168.567Z" fill="url(#paint3_linear_438_33)"/>
<path d="M495.325 168.44C489.107 172.285 483.69 177.265 479.67 183.295C484.861 181.295 489.63 179.524 494.168 177.918C493.614 175.468 493.967 172.472 495.325 168.44Z" fill="#83740F"/>
<path d="M479.67 183.295C486.936 186.063 494.722 187.219 502.462 186.904C497.876 184.039 495 181.594 494.168 177.918C489.63 179.524 484.861 181.295 479.67 183.295Z" fill="#988B19"/>
<path d="M514.434 160.687C507.688 162.227 501.155 164.834 495.325 168.44C493.967 172.472 493.614 175.468 494.168 177.918C499.669 175.97 504.832 174.264 510.001 172.681C509.14 168.604 510.241 164.078 514.434 160.687Z" fill="#988B19"/>
<path d="M502.462 186.904C509.222 186.629 515.948 185.231 522.261 182.805C516.376 183.33 511.22 178.455 510.001 172.681C504.832 174.264 499.669 175.97 494.168 177.918C495 181.594 497.876 184.039 502.462 186.904Z" fill="#AE9D24"/>
<path d="M529.628 159.052C524.581 158.988 519.449 159.542 514.434 160.687C510.241 164.078 509.14 168.604 510.001 172.681C515.679 170.941 521.363 169.35 527.51 167.751C526.975 164.856 527.835 161.668 529.628 159.052Z" fill="#AE9D24"/>
<path d="M522.261 182.805C527.154 180.924 531.8 178.426 536.023 175.353C530.725 174.185 528.142 171.173 527.51 167.751C521.363 169.35 515.679 170.941 510.001 172.681C511.22 178.455 516.376 183.33 522.261 182.805Z" fill="#C0AE30"/>
<path d="M548.622 162.575C542.743 160.289 536.259 159.136 529.628 159.052C527.835 161.668 526.975 164.856 527.51 167.751C533.881 166.093 540.75 164.426 548.622 162.575Z" fill="#DBC210"/>
<path d="M536.023 175.353C540.867 171.828 545.155 167.546 548.622 162.575C540.75 164.426 533.881 166.093 527.51 167.751C528.142 171.173 530.725 174.185 536.023 175.353Z" fill="#ECD216"/>
<path d="M464.015 168.44C470.232 172.285 475.65 177.265 479.67 183.295C474.478 181.295 469.71 179.524 465.172 177.918C465.726 175.468 465.373 172.472 464.015 168.44Z" fill="#83740F"/>
<path d="M479.67 183.295C472.404 186.063 464.618 187.219 456.878 186.904C461.464 184.039 464.34 181.594 465.172 177.918C469.71 179.524 474.478 181.295 479.67 183.295Z" fill="#988B19"/>
<path d="M444.906 160.687C451.652 162.227 458.185 164.834 464.015 168.44C465.373 172.472 465.726 175.468 465.172 177.918C459.671 175.97 454.508 174.264 449.339 172.681C450.2 168.604 449.099 164.078 444.906 160.687Z" fill="#988B19"/>
<path d="M456.878 186.904C450.118 186.629 443.392 185.231 437.079 182.805C442.964 183.33 448.12 178.455 449.339 172.681C454.508 174.264 459.671 175.97 465.172 177.918C464.34 181.594 461.464 184.039 456.878 186.904Z" fill="#AE9D24"/>
<path d="M429.712 159.052C434.759 158.988 439.891 159.542 444.906 160.687C449.099 164.078 450.2 168.604 449.339 172.681C443.661 170.941 437.977 169.35 431.83 167.751C432.365 164.856 431.505 161.668 429.712 159.052Z" fill="#AE9D24"/>
<path d="M437.079 182.805C432.186 180.924 427.54 178.426 423.317 175.353C428.614 174.185 431.197 171.173 431.83 167.751C437.977 169.35 443.661 170.941 449.339 172.681C448.12 178.455 442.964 183.33 437.079 182.805Z" fill="#C0AE30"/>
<path d="M410.718 162.575C416.597 160.289 423.081 159.136 429.712 159.052C431.505 161.668 432.365 164.856 431.83 167.751C425.458 166.093 418.59 164.426 410.718 162.575Z" fill="#DBC210"/>
<path d="M423.317 175.353C418.472 171.828 414.184 167.546 410.718 162.575C418.59 164.426 425.458 166.093 431.83 167.751C431.197 171.173 428.614 174.185 423.317 175.353Z" fill="#ECD216"/>
<path d="M446.998 130.666C447.187 130.666 447.341 130.819 447.341 131.009V147.358C447.341 147.547 447.494 147.7 447.683 147.7H458.126C458.315 147.7 458.468 147.547 458.468 147.358V131.009C458.468 130.819 458.622 130.666 458.811 130.666H459.153C459.342 130.666 459.496 130.819 459.496 131.009V150.867H452.904H446.313V131.009C446.313 130.819 446.467 130.666 446.656 130.666H446.998Z" fill="#734D2A"/>
<path d="M459.496 150.867H452.904H446.313V153.521C446.313 153.71 446.467 153.863 446.656 153.863H459.153C459.342 153.863 459.496 153.71 459.496 153.521V150.867Z" fill="#5E4126"/>
<path d="M479.44 95.0049C469.31 95.0049 459.065 100.645 459.065 113.192V118.603H499.814V113.192C499.814 100.645 489.569 95.0049 479.44 95.0049Z" fill="url(#paint4_linear_438_33)"/>
<path d="M499.814 104.214C489.684 104.214 479.439 109.855 479.439 122.402V127.812H520.188V122.402C520.188 109.855 509.943 104.214 499.814 104.214Z" fill="url(#paint5_linear_438_33)"/>
<path d="M459.18 104.214C449.05 104.214 438.805 109.855 438.805 122.402V127.812H479.555V122.402C479.555 109.855 469.31 104.214 459.18 104.214Z" fill="url(#paint6_linear_438_33)"/>
<path d="M458.719 131.841H479.094H499.469C499.469 119.293 489.224 113.653 479.094 113.653C468.964 113.653 458.719 119.293 458.719 131.841Z" fill="url(#paint7_linear_438_33)"/>
<path d="M497.377 129.786C497.269 130.916 498.201 131.841 499.336 131.841H517.656H535.976C537.111 131.841 538.043 130.916 537.935 129.786C536.877 118.676 527.215 113.653 517.656 113.653C508.097 113.653 498.435 118.676 497.377 129.786Z" fill="url(#paint8_linear_438_33)"/>
<path d="M420.253 129.786C420.145 130.916 421.077 131.841 422.212 131.841H440.532H458.852C459.987 131.841 460.919 130.916 460.811 129.786C459.753 118.676 450.091 113.653 440.532 113.653C430.973 113.653 421.311 118.676 420.253 129.786Z" fill="url(#paint9_linear_438_33)"/>
<circle cx="479.44" cy="38.3065" r="17.8694" fill="#FFC020" stroke="white" stroke-width="1.84206"/>
<circle cx="479.367" cy="38.3477" r="16.9483" fill="#E97400"/>
<circle cx="479.367" cy="38.3474" r="11.2989" fill="#FFBA1E" stroke="#FC9704" stroke-width="3.7663"/>
<path d="M442.389 33.554V36.1647V38.7755L456.684 36.1647L442.389 33.554Z" fill="#E87400"/>
<path d="M516.859 33.554V36.1647V38.7755L502.564 36.1647L516.859 33.554Z" fill="#E87400"/>
<path d="M455.999 8.6452L454.159 10.5284L452.318 12.4115L464.088 20.4577L455.999 8.6452Z" fill="#E87400"/>
<path d="M503.377 8.6452L505.218 10.5284L507.058 12.4115L495.288 20.4577L503.377 8.6452Z" fill="#E87400"/>
<path d="M476.971 0H479.624H482.278L479.624 14.038L476.971 0Z" fill="#E87400"/>
<defs>
<filter id="filter0_d_438_33" x="428.081" y="68.4366" width="102.717" height="49.0241" filterUnits="userSpaceOnUse" color-interpolation-filters="sRGB">
<feFlood flood-opacity="0" result="BackgroundImageFix"/>
<feColorMatrix in="SourceAlpha" type="matrix" values="0 0 0 0 0 0 0 0 0 0 0 0 0 0 0 0 0 0 127 0" result="hardAlpha"/>
<feOffset dy="0.684781"/>
<feGaussianBlur stdDeviation="0.342391"/>
<feComposite in2="hardAlpha" operator="out"/>
<feColorMatrix type="matrix" values="0 0 0 0 0 0 0 0 0 0 0 0 0 0 0 0 0 0 0.25 0"/>
<feBlend mode="normal" in2="BackgroundImageFix" result="effect1_dropShadow_438_33"/>
<feBlend mode="normal" in="SourceGraphic" in2="effect1_dropShadow_438_33" result="shape"/>
</filter>
<filter id="filter1_d_438_33" x="427.054" y="77.8526" width="47.421" height="39.2657" filterUnits="userSpaceOnUse" color-interpolation-filters="sRGB">
<feFlood flood-opacity="0" result="BackgroundImageFix"/>
<feColorMatrix in="SourceAlpha" type="matrix" values="0 0 0 0 0 0 0 0 0 0 0 0 0 0 0 0 0 0 127 0" result="hardAlpha"/>
<feOffset dy="-0.684781"/>
<feGaussianBlur stdDeviation="0.855977"/>
<feComposite in2="hardAlpha" operator="out"/>
<feColorMatrix type="matrix" values="0 0 0 0 0.870192 0 0 0 0 0.687726 0 0 0 0 0.0990121 0 0 0 0.4 0"/>
<feBlend mode="normal" in2="BackgroundImageFix" result="effect1_dropShadow_438_33"/>
<feBlend mode="normal" in="SourceGraphic" in2="effect1_dropShadow_438_33" result="shape"/>
</filter>
<filter id="filter2_d_438_33" x="484.404" y="77.8526" width="47.421" height="39.2657" filterUnits="userSpaceOnUse" color-interpolation-filters="sRGB">
<feFlood flood-opacity="0" result="BackgroundImageFix"/>
<feColorMatrix in="SourceAlpha" type="matrix" values="0 0 0 0 0 0 0 0 0 0 0 0 0 0 0 0 0 0 127 0" result="hardAlpha"/>
<feOffset dy="-0.684781"/>
<feGaussianBlur stdDeviation="0.855977"/>
<feComposite in2="hardAlpha" operator="out"/>
<feColorMatrix type="matrix" values="0 0 0 0 0.870192 0 0 0 0 0.687726 0 0 0 0 0.0990121 0 0 0 0.4 0"/>
<feBlend mode="normal" in2="BackgroundImageFix" result="effect1_dropShadow_438_33"/>
<feBlend mode="normal" in="SourceGraphic" in2="effect1_dropShadow_438_33" result="shape"/>
</filter>
<filter id="filter3_d_438_33" x="427.054" y="86.9258" width="104.771" height="51.0781" filterUnits="userSpaceOnUse" color-interpolation-filters="sRGB">
<feFlood flood-opacity="0" result="BackgroundImageFix"/>
<feColorMatrix in="SourceAlpha" type="matrix" values="0 0 0 0 0 0 0 0 0 0 0 0 0 0 0 0 0 0 127 0" result="hardAlpha"/>
<feOffset dy="-0.684781"/>
<feGaussianBlur stdDeviation="0.855977"/>
<feComposite in2="hardAlpha" operator="out"/>
<feColorMatrix type="matrix" values="0 0 0 0 0.578526 0 0 0 0 0.514883 0 0 0 0 0.0547002 0 0 0 0.2 0"/>
<feBlend mode="normal" in2="BackgroundImageFix" result="effect1_dropShadow_438_33"/>
<feBlend mode="normal" in="SourceGraphic" in2="effect1_dropShadow_438_33" result="shape"/>
</filter>
<filter id="filter4_d_438_33" x="427.054" y="98.7382" width="47.421" height="39.2657" filterUnits="userSpaceOnUse" color-interpolation-filters="sRGB">
<feFlood flood-opacity="0" result="BackgroundImageFix"/>
<feColorMatrix in="SourceAlpha" type="matrix" values="0 0 0 0 0 0 0 0 0 0 0 0 0 0 0 0 0 0 127 0" result="hardAlpha"/>
<feOffset dy="-0.684781"/>
<feGaussianBlur stdDeviation="0.855977"/>
<feComposite in2="hardAlpha" operator="out"/>
<feColorMatrix type="matrix" values="0 0 0 0 0.850962 0 0 0 0 0.719969 0 0 0 0 0.306837 0 0 0 0.2 0"/>
<feBlend mode="normal" in2="BackgroundImageFix" result="effect1_dropShadow_438_33"/>
<feBlend mode="normal" in="SourceGraphic" in2="effect1_dropShadow_438_33" result="shape"/>
</filter>
<filter id="filter5_d_438_33" x="484.404" y="98.7382" width="47.421" height="39.2657" filterUnits="userSpaceOnUse" color-interpolation-filters="sRGB">
<feFlood flood-opacity="0" result="BackgroundImageFix"/>
<feColorMatrix in="SourceAlpha" type="matrix" values="0 0 0 0 0 0 0 0 0 0 0 0 0 0 0 0 0 0 127 0" result="hardAlpha"/>
<feOffset dy="-0.684781"/>
<feGaussianBlur stdDeviation="0.855977"/>
<feComposite in2="hardAlpha" operator="out"/>
<feColorMatrix type="matrix" values="0 0 0 0 0.850962 0 0 0 0 0.719969 0 0 0 0 0.306837 0 0 0 0.2 0"/>
<feBlend mode="normal" in2="BackgroundImageFix" result="effect1_dropShadow_438_33"/>
<feBlend mode="normal" in="SourceGraphic" in2="effect1_dropShadow_438_33" result="shape"/>
</filter>
<filter id="filter6_d_438_33" x="426.882" y="132.313" width="104.942" height="44.7569" filterUnits="userSpaceOnUse" color-interpolation-filters="sRGB">
<feFlood flood-opacity="0" result="BackgroundImageFix"/>
<feColorMatrix in="SourceAlpha" type="matrix" values="0 0 0 0 0 0 0 0 0 0 0 0 0 0 0 0 0 0 127 0" result="hardAlpha"/>
<feOffset dy="-0.684781"/>
<feGaussianBlur stdDeviation="0.855977"/>
<feComposite in2="hardAlpha" operator="out"/>
<feColorMatrix type="matrix" values="0 0 0 0 0.942308 0 0 0 0 0.809528 0 0 0 0 0.380547 0 0 0 0.4 0"/>
<feBlend mode="normal" in2="BackgroundImageFix" result="effect1_dropShadow_438_33"/>
<feBlend mode="normal" in="SourceGraphic" in2="effect1_dropShadow_438_33" result="shape"/>
</filter>
<filter id="filter7_d_438_33" x="485.26" y="146.522" width="45.538" height="30.8903" filterUnits="userSpaceOnUse" color-interpolation-filters="sRGB">
<feFlood flood-opacity="0" result="BackgroundImageFix"/>
<feColorMatrix in="SourceAlpha" type="matrix" values="0 0 0 0 0 0 0 0 0 0 0 0 0 0 0 0 0 0 127 0" result="hardAlpha"/>
<feOffset dy="0.684781"/>
<feGaussianBlur stdDeviation="0.342391"/>
<feComposite in2="hardAlpha" operator="out"/>
<feColorMatrix type="matrix" values="0 0 0 0 0.831731 0 0 0 0 0.765519 0 0 0 0 0.542491 0 0 0 1 0"/>
<feBlend mode="normal" in2="BackgroundImageFix" result="effect1_dropShadow_438_33"/>
<feBlend mode="normal" in="SourceGraphic" in2="effect1_dropShadow_438_33" result="shape"/>
</filter>
<linearGradient id="paint0_linear_438_33" x1="98.3989" y1="29.8569" x2="98.3989" y2="184.179" gradientUnits="userSpaceOnUse">
<stop stop-color="#999999"/>
<stop offset="0.961538" stop-color="white"/>
</linearGradient>
<linearGradient id="paint1_linear_438_33" x1="124.947" y1="36.6126" x2="86.6054" y2="151.636" gradientUnits="userSpaceOnUse">
<stop stop-color="white"/>
<stop offset="1" stop-color="#737373"/>
</linearGradient>
<linearGradient id="paint2_linear_438_33" x1="486.6" y1="130.28" x2="478.881" y2="180.858" gradientUnits="userSpaceOnUse">
<stop offset="1" stop-color="#5E4126"/>
</linearGradient>
<linearGradient id="paint3_linear_438_33" x1="483.809" y1="131.57" x2="502.726" y2="169.404" gradientUnits="userSpaceOnUse">
<stop offset="1" stop-color="#734D2A"/>
</linearGradient>
<linearGradient id="paint4_linear_438_33" x1="479.44" y1="95.0049" x2="479.44" y2="118.603" gradientUnits="userSpaceOnUse">
<stop stop-color="#6DA712"/>
<stop offset="1" stop-color="#5A8F08"/>
</linearGradient>
<linearGradient id="paint5_linear_438_33" x1="499.814" y1="104.214" x2="499.814" y2="127.812" gradientUnits="userSpaceOnUse">
<stop stop-color="#6DA712"/>
<stop offset="1" stop-color="#4B7903"/>
</linearGradient>
<linearGradient id="paint6_linear_438_33" x1="459.18" y1="104.214" x2="459.18" y2="127.812" gradientUnits="userSpaceOnUse">
<stop stop-color="#6DA712"/>
<stop offset="1" stop-color="#4B7903"/>
</linearGradient>
<linearGradient id="paint7_linear_438_33" x1="479.094" y1="113.653" x2="479.025" y2="140.466" gradientUnits="userSpaceOnUse">
<stop offset="0.10329" stop-color="#63990F"/>
<stop offset="1" stop-color="#44680C"/>
</linearGradient>
<linearGradient id="paint8_linear_438_33" x1="517.656" y1="113.653" x2="517.587" y2="140.466" gradientUnits="userSpaceOnUse">
<stop offset="0.10329" stop-color="#63990F"/>
<stop offset="1" stop-color="#44680C"/>
</linearGradient>
<linearGradient id="paint9_linear_438_33" x1="440.532" y1="113.653" x2="440.463" y2="140.466" gradientUnits="userSpaceOnUse">
<stop offset="0.10329" stop-color="#63990F"/>
<stop offset="1" stop-color="#44680C"/>
</linearGradient>
</defs>
</svg>
