<svg width="226" height="116" viewBox="0 0 226 116" fill="none" xmlns="http://www.w3.org/2000/svg">
<path d="M192.292 68.1584C190.528 68.0635 187.942 67.851 185.356 67.8103C184.6 67.8325 183.873 68.1097 183.294 68.597C178.275 73.0505 172.565 75.4333 165.751 74.6466C162.509 74.3565 159.498 72.8454 157.328 70.4191C156.659 69.6595 156.116 69.7454 155.293 70.1116C151.608 71.7394 147.968 73.5117 144.166 74.8139C139.925 76.2698 135.575 76.2155 131.506 74C130.387 73.3573 129.362 72.5614 128.463 71.6354C127.609 70.7853 127.007 70.5728 125.891 71.3098C121.794 74.0227 117.3 75.0083 112.43 74.0226C109.767 73.4846 107.873 71.8614 106.245 69.8494C105.142 68.493 105.196 68.4613 103.907 69.5736C99.0425 73.7921 93.4631 75.3112 87.1783 73.8508C84.8396 73.294 82.6688 72.1838 80.8484 70.6135C80.0436 69.9353 79.4513 69.8132 78.5289 70.5367C72.9088 74.9269 66.4297 77.7031 59.8375 80.2396C58.0289 80.9404 56.2204 81.7407 54.3621 82.3601C53.4126 82.6766 53.2995 83.2237 53.39 84.0511C53.6522 86.4655 53.9777 88.8754 54.1134 91.2853C54.5158 98.6416 49.1399 102.806 42.8099 103.376C36.9004 103.914 31.407 98.7954 31.2261 92.8588C31.0814 87.7451 33.1884 83.6758 37.0949 80.5108C38.5523 79.3907 40.079 78.3639 41.666 77.4363C42.3668 76.9842 42.7692 76.532 42.7737 75.673C42.7737 74.5381 42.9229 73.4123 42.9546 72.2683C42.9601 71.9373 42.8443 71.6157 42.6291 71.3641C42.516 71.2601 42.0503 71.4364 41.8062 71.5856C35.8379 75.2886 29.3181 76.8937 22.3642 76.107C13.9679 75.1756 8.04039 70.5638 4.51823 62.9452C1.49342 56.3937 1.35325 49.5936 3.24772 42.7211C5.27782 35.3421 9.36516 29.3603 15.7539 25.0876C21.2084 21.3129 27.9275 19.832 34.4634 20.9641C39.5816 21.8006 44.1347 23.8035 47.8513 27.5111C48.5363 28.1392 49.0278 28.9498 49.268 29.8477C49.5083 30.7455 49.4874 31.6932 49.2077 32.5796C48.6289 34.6142 47.1957 35.8169 45.1384 36.2374C43.0043 36.6895 41.4806 35.4552 39.9886 34.2118C39.0962 33.3883 38.1572 32.6169 37.1763 31.9014C33.4868 29.4824 29.4899 29.6135 25.5337 30.9654C19.1223 33.1628 15.3605 38.0098 13.0637 44.1589C11.4681 48.2038 11.1974 52.6508 12.2905 56.8594C14.0991 63.7727 19.9769 67.1727 26.6504 66.7251C35.5802 66.1238 43.461 58.9845 45.1113 51.0675C45.5042 49.4703 46.0073 47.9021 46.6169 46.3743C46.99 45.289 47.7292 44.3674 48.7077 43.7676C49.6861 43.1678 50.8428 42.9273 51.9793 43.0873C54.6469 43.5394 56.4283 45.4701 56.2927 48.1151C56.2023 49.9236 55.7592 51.7322 55.4427 53.5679C54.7464 57.5422 54.0049 61.5074 53.3402 65.4863C53.0192 67.4169 52.8158 69.3701 52.6032 71.3143C52.4857 72.3814 52.7886 72.6708 53.7878 72.2955C60.6604 69.7409 67.5781 67.2722 73.1349 62.1856C73.8538 61.53 74.0392 61.0056 73.6594 60.0651C70.2407 52.0924 69.0243 43.3484 70.1372 34.7453C70.7521 30.0385 72.2713 25.6347 75.477 21.9136C76.534 20.6717 77.8512 19.6774 79.3353 19.0012C80.8194 18.3249 82.434 17.9834 84.0648 18.0006C85.6955 18.0179 87.3026 18.3935 88.772 19.101C90.2414 19.8085 91.5373 20.8304 92.5678 22.0945C96.0403 26.2496 96.8451 31.1372 96.9174 36.2871C96.9542 41.6907 95.5996 47.0128 92.9838 51.7412C91.1979 55.078 89.0638 58.2385 86.993 61.4125C86.3735 62.3665 86.4187 62.8548 87.3728 63.4788C88.7632 64.4208 90.4185 64.8934 92.0967 64.8275C93.7749 64.7616 95.3881 64.1607 96.7004 63.1125C99.8337 60.5851 101.565 57.1262 102.985 53.482C103.541 52.0577 103.966 50.5838 104.482 49.1459C104.735 48.3331 105.227 47.6153 105.894 47.0863C106.561 46.5572 107.372 46.2414 108.221 46.1799C110.21 45.9584 111.838 46.736 112.702 48.5265C113.11 49.4092 113.282 50.3832 113.199 51.3524C113.018 53.4955 112.53 55.6115 112.344 57.7592C112.175 59.1502 112.232 60.5594 112.512 61.9324C113.154 64.5413 115.677 65.7756 118.132 64.6046C120.036 63.625 121.852 62.4812 123.557 61.1864C124.101 60.6991 124.441 60.0238 124.507 59.2965C125.411 50.6696 133.098 44.9817 140.911 45.244C143.432 45.329 145.891 46.0507 148.059 47.3419C149.064 47.8979 149.829 48.8046 150.207 49.8889C150.586 50.9732 150.552 52.159 150.112 53.2197C149.207 55.4216 146.82 56.5158 144.383 55.8738C143.361 55.607 142.335 55.3629 141.308 55.1051C137.506 54.1421 134.906 56.9137 134.192 59.7712C133.45 62.7327 134.459 65.0884 137.176 65.8706C138.698 66.2459 140.284 66.2783 141.819 65.9655C146.956 65.0612 151.554 62.8955 155.085 58.9709C156.193 57.7366 156.731 55.9868 157.513 54.4495C158.73 51.9791 160.471 49.8042 162.616 48.0767C164.76 46.3492 167.256 45.1109 169.929 44.4482C170.301 44.3133 170.703 44.2836 171.091 44.3623C173.18 45.0857 175.242 44.2674 177.312 44.2945C182.227 44.3668 185.699 46.8039 187.947 51.0178C188.878 52.7721 188.959 54.7796 188.851 56.7645C188.774 58.3199 188.851 58.3922 190.438 58.4917C198.491 59.0026 206.507 58.8579 214.451 57.2392C215.486 57.0313 216.544 56.9227 217.616 56.8188C220.641 56.5203 222.766 57.9401 223.119 60.463C223.507 63.2572 221.884 65.3099 218.837 65.8887C210.098 67.6109 201.196 68.372 192.292 68.1584ZM79.6321 40.3835C79.7311 42.8928 80.3149 47.6132 80.8529 51.1987C80.9026 51.5378 81.2101 51.8317 81.4 52.1481C81.6758 51.913 82.0601 51.7367 82.2184 51.4383C83.0187 49.9643 83.8189 48.4813 84.5062 46.9531C86.7669 41.8665 87.7073 36.59 86.5634 31.0468C86.1882 29.2383 85.4331 28.2481 84.1671 28.0672C83.0729 27.9135 81.9923 28.7635 81.2689 30.3957C79.8718 33.5788 79.4965 36.9427 79.6321 40.3835ZM168.147 65.1381V65.2105C168.88 65.0974 169.617 65.0206 170.34 64.8668C170.96 64.7357 171.181 64.2745 170.634 63.8902C168.893 62.674 167.858 60.992 167.089 59.0704C166.818 58.3922 166.321 58.3018 165.887 58.9755C165.496 59.5535 165.146 60.1578 164.838 60.784C163.685 63.2617 164.689 64.9166 167.438 65.1245C167.677 65.1743 167.912 65.1381 168.147 65.1381ZM44.7134 91.1859C44.5416 90.06 44.4557 89.2462 44.2613 88.473C44.0669 87.6999 43.5966 87.519 43.14 88.1746C42.3585 89.2263 41.6972 90.3622 41.1686 91.5611C41.1132 91.879 41.1407 92.2058 41.2484 92.5099C41.3561 92.814 41.5404 93.0852 41.7835 93.2973C42.106 93.4218 42.4535 93.4675 42.7972 93.4305C43.1409 93.3936 43.4708 93.275 43.7594 93.0848C44.3201 92.6101 44.4873 91.7058 44.7134 91.2039V91.1859ZM179.532 56.2671C179.596 55.6262 179.408 54.9857 179.01 54.4799C178.611 53.9741 178.032 53.6424 177.394 53.5543C177.19 53.5243 176.981 53.5377 176.783 53.5937C176.584 53.6498 176.399 53.7471 176.241 53.8795C176.083 54.0118 175.954 54.1761 175.864 54.3616C175.773 54.5471 175.723 54.7497 175.716 54.9559C175.671 56.023 176.96 57.3523 178.257 57.2709C178.791 57.2483 179.275 56.4977 179.532 56.2852V56.2671Z" fill="#EB0000"/>
<path d="M103.718 32.6565C103.723 31.4067 104.098 30.1865 104.796 29.1496C105.494 28.1127 106.483 27.3056 107.639 26.83C108.794 26.3544 110.065 26.2316 111.291 26.4771C112.516 26.7225 113.642 27.3253 114.525 28.2094C115.408 29.0934 116.01 30.2192 116.255 31.4449C116.5 32.6706 116.376 33.9412 115.899 35.0966C115.423 36.2521 114.615 37.2407 113.578 37.9377C112.54 38.6348 111.32 39.0091 110.07 39.0136C108.388 39.0018 106.779 38.3281 105.59 37.1383C104.401 35.9486 103.728 34.3385 103.718 32.6565Z" fill="#EB0000"/>
</svg>
