<svg width="559" height="240" viewBox="0 0 559 240" fill="none" xmlns="http://www.w3.org/2000/svg">
<g filter="url(#filter0_d_438_33)">
<path d="M128.791 145.151C120.999 145.272 115.821 147.564 115.773 158.904L115.684 179.885L109.204 179.857L109.376 139.437L115.316 139.463L115.285 146.791C119.013 140.79 122.186 138.335 126.351 138.353C127.2 138.356 127.739 138.436 128.819 138.595L128.791 145.151ZM166.168 162.05L136.393 161.923C136.453 165.934 136.983 168.251 138.516 170.571C140.661 173.974 144.124 175.841 148.213 175.858C153.381 175.88 157.018 173.118 158.815 167.804L165.294 167.831C163.637 176.618 157.212 181.836 147.956 181.796C136.617 181.748 129.632 173.542 129.689 160.274C129.745 147.007 137.033 138.398 148.295 138.446C155.854 138.478 162.008 142.516 164.603 149.161C165.747 152.174 166.194 155.879 166.168 162.05ZM136.569 156.678L159.248 156.775C159.325 156.621 159.326 156.466 159.327 156.312C159.355 149.678 154.518 144.412 148.192 144.385C141.713 144.358 137.141 149.198 136.569 156.678ZM186.851 139.768L186.828 145.013L180.194 144.985L180.076 172.677C180.064 175.531 180.832 176.305 183.609 176.317C184.843 176.323 185.847 176.25 186.696 176.022L186.673 181.421C184.512 181.798 182.968 181.946 181.425 181.939C176.412 181.918 173.644 179.592 173.662 175.504L173.792 144.957L168.315 144.934L168.338 139.689L173.814 139.712L173.862 128.604L180.264 128.632L180.217 139.739L186.851 139.768ZM226.283 162.306L196.508 162.179C196.568 166.19 197.098 168.507 198.631 170.827C200.777 174.231 204.24 176.097 208.328 176.114C213.496 176.136 217.134 173.375 218.93 168.06L225.41 168.087C223.752 176.874 217.328 182.092 208.071 182.053C196.732 182.004 189.748 173.798 189.804 160.53C189.861 147.263 197.148 138.654 208.41 138.702C215.97 138.735 222.124 142.772 224.718 149.417C225.862 152.43 226.309 156.135 226.283 162.306ZM196.685 156.934L219.363 157.031C219.441 156.877 219.441 156.723 219.442 156.568C219.47 149.935 214.633 144.669 208.308 144.642C201.828 144.614 197.257 149.454 196.685 156.934ZM231.295 197.194L231.539 139.958L237.478 139.983L237.452 146.077C240.481 141.308 244.888 138.858 250.365 138.881C261.087 138.927 267.685 147.44 267.627 161.016C267.572 173.898 260.671 182.277 250.257 182.232C245.012 182.21 241.24 180.343 237.864 176.163L237.774 197.221L231.295 197.194ZM249.259 144.893C242.471 144.864 237.971 151.016 237.931 160.504C237.89 169.992 242.338 176.182 249.126 176.211C256.145 176.241 260.877 170.013 260.916 160.833C260.958 151.191 256.356 144.924 249.259 144.893Z" fill="white"/>
<path d="M168.187 104.322L138.412 104.195C138.472 108.207 139.002 110.523 140.535 112.844C142.68 116.247 146.144 118.113 150.232 118.13C155.4 118.153 159.037 115.391 160.834 110.076L167.314 110.104C165.656 118.89 159.231 124.108 149.975 124.069C138.636 124.021 131.651 115.814 131.708 102.547C131.764 89.2793 139.052 80.6708 150.314 80.7188C157.873 80.751 164.027 84.7884 166.622 91.4334C167.766 94.4466 168.213 98.1512 168.187 104.322ZM138.589 98.9506L161.267 99.0472C161.345 98.8933 161.345 98.739 161.346 98.5847C161.374 91.951 156.537 86.685 150.212 86.658C143.732 86.6304 139.16 91.4706 138.589 98.9506ZM173.923 81.9765L179.863 82.0018L179.838 87.7099C183.33 82.8651 186.887 80.8747 192.287 80.8977C197.532 80.92 200.764 82.7851 203.137 87.115C206.936 82.58 210.182 80.9739 215.582 80.997C223.141 81.0292 227.29 85.058 227.259 92.3089L227.13 122.624L220.65 122.596L220.769 94.7497C220.79 89.6586 218.026 86.6385 213.321 86.6184C208.076 86.5961 203.813 91.2833 203.788 97.1457L203.68 122.524L197.201 122.496L197.319 94.6497C197.341 89.4816 194.654 86.5389 189.871 86.5185C184.626 86.4961 180.364 91.1834 180.339 97.0458L180.23 122.424L173.751 122.396L173.923 81.9765ZM236.199 94.1983C236.632 83.2465 245.203 81.1232 252.454 81.1541C262.405 81.1965 267.633 85.0757 267.603 92.2494L267.502 116.008C267.493 118.013 268.722 119.175 270.959 119.185C271.345 119.187 271.654 119.188 272.348 119.037L272.328 123.896C270.243 124.427 269.239 124.577 267.928 124.572C263.763 124.554 261.765 122.694 261.32 118.604C256.751 122.75 252.655 124.507 247.564 124.485C239.387 124.45 234.316 119.8 234.347 112.472C234.393 101.673 242.651 100.783 254.459 99.2901C259.553 98.6947 261.178 97.5445 261.189 94.8448L261.197 93.1478C261.213 89.2909 257.983 87.1173 252.197 87.0926C246.181 87.067 243.24 89.2915 242.679 94.2259L236.199 94.1983ZM248.976 118.86C256.613 118.892 261.108 113.898 261.125 110.041L261.156 102.79C254.586 105.77 241.097 103.476 241.059 112.346C241.041 116.435 243.962 118.838 248.976 118.86ZM300.978 82.5179L307.921 82.5475L289.739 131.376C287.477 137.306 283.687 139.681 279.29 139.662C277.593 139.655 276.283 139.341 274.975 138.641L275 132.856C276.387 133.17 277.466 133.329 278.392 133.333C281.091 133.344 282.485 132.27 283.577 129.421L286.072 123.029L272.592 82.397L279.457 82.4262L289.659 113.942L300.978 82.5179ZM342.747 123.116L336.962 123.092L336.986 117.461C333.184 122.767 329.395 124.834 323.456 124.808C315.588 124.775 310.592 120.434 310.621 113.723L310.754 82.5596L317.156 82.5869L317.034 111.205C317.013 116.064 320.24 119.164 325.331 119.185C332.042 119.214 336.384 113.833 336.42 105.579L336.517 82.6694L342.92 82.6967L342.747 123.116ZM352.459 82.7373L358.398 82.7626L358.369 89.5507C361.942 83.9348 365.808 81.6371 371.825 81.6628C379.616 81.696 384.611 86.037 384.583 92.7479L384.452 123.294L378.05 123.267L378.169 95.2661C378.19 90.4065 374.964 87.3072 369.872 87.2855C363.239 87.2573 358.896 92.6384 358.861 100.892L358.766 123.185L352.286 123.157L352.459 82.7373Z" fill="white"/>
<path fill-rule="evenodd" clip-rule="evenodd" d="M51.6388 75.9971C53.2601 78.4516 55.2907 80.5679 57.7307 82.3459C57.0647 79.0797 57.0777 76.0203 57.7698 73.1678C58.4618 70.3152 59.5603 67.8043 61.0653 65.6351C62.7068 63.3305 64.6863 61.5033 67.0036 60.1534C69.3215 58.6676 71.8411 57.7265 74.5623 57.3301C81.501 56.4079 88.2997 56.4369 94.9583 57.4171C101.618 58.2613 108.207 59.5811 114.726 61.3766L118.392 62.616C119.751 62.8937 121.177 63.1718 122.672 63.4501C118.172 66.2864 114.146 69.8046 110.593 74.0047C107.176 78.2054 104.029 82.7472 101.152 87.6301C98.4121 92.5135 95.8752 97.5338 93.5416 102.691C91.344 107.849 89.2835 112.735 87.3602 117.35C85.8494 120.879 84.2692 124.748 82.6196 128.956C80.9705 133.028 79.1175 137.099 77.0605 141.17C75.1401 145.105 72.948 148.971 70.4843 152.768C68.1565 156.565 65.4225 159.953 62.2824 162.931C59.2788 165.774 55.8696 168.071 52.0548 169.822C48.376 171.574 44.1571 172.44 39.398 172.42C35.8627 172.405 32.7382 171.712 30.0245 170.34C27.3109 168.969 25.0069 167.191 23.1125 165.008C21.3547 162.689 19.938 160.099 18.8624 157.239C17.9233 154.244 17.2568 151.113 16.8627 147.848C16.467 144.991 16.2761 141.931 16.29 138.667C16.4399 135.405 16.8611 132.279 17.5537 129.29C18.2469 126.166 19.2792 123.247 20.6505 120.533C22.1584 117.684 24.1404 115.245 26.5966 113.216C33.0261 107.904 46.4708 98.6081 58.8571 105.195C56.4159 103.689 53.7008 102.657 50.7117 102.101C47.7232 101.408 44.6644 101.259 41.5352 101.653C35.141 102.442 29.4892 104.526 24.5796 107.904C19.6707 111.147 15.4373 115.412 11.8793 120.7C8.32202 125.852 5.78189 131.62 4.25895 138.004C2.87256 144.253 2.57425 150.439 3.36401 156.561C4.28975 162.684 6.44128 168.336 9.8186 173.518C13.3325 178.564 18.3473 182.392 24.863 185.004C30.9708 187.613 37.0166 188.795 43.0006 188.548C49.1206 188.302 54.9732 186.968 60.5586 184.544C66.1433 182.256 71.3237 179.151 76.0995 175.228C81.012 171.169 85.3142 166.701 89.0064 161.821C95.5713 152.875 101.119 143.448 105.648 133.541L119.238 103.412C122.394 96.627 125.618 90.0459 128.908 83.6691C132.336 77.1569 136.441 71.0554 141.224 65.3648C142.335 65.293 144.069 65.3638 146.242 65.4526C151.786 65.679 160.19 66.0224 168.415 64.413C175.134 63.0986 180.646 61.8001 186.179 58.0958C191.225 54.718 194.915 50.1785 197.251 44.4775C198.213 42.17 198.49 41.0154 198.082 41.0136C197.674 41.0119 196.516 41.4829 194.609 42.4266C191.474 44.0449 188.205 45.3228 184.802 46.2601C184.272 46.4123 183.715 46.5889 183.112 46.7801C180 47.7669 175.658 49.1437 167.374 49.5797C160.618 49.9353 141.574 47.1456 136.821 45.7655C132.068 44.2496 127.315 42.6656 122.563 41.0136C115.368 38.3994 108.101 36.5328 100.763 35.4137C93.5617 34.1592 86.6959 33.926 80.1657 34.714C73.772 35.3667 67.9856 37.1097 62.8065 39.9431C57.6273 42.7765 53.5305 46.9064 50.5159 52.3325C49.2817 54.7748 48.4548 57.3549 48.0353 60.0726C47.7518 62.7909 47.8762 65.5109 48.4085 68.2327C49.0773 70.8191 50.1541 73.4073 51.6388 75.9971Z" fill="white"/>
<path d="M65.5643 110.73C63.6705 108.411 61.4348 106.565 58.8571 105.195C46.4708 98.6081 33.0261 107.904 26.5966 113.216C28.7797 111.457 31.1642 110.312 33.75 109.779C36.4724 109.111 39.0559 109.122 41.5005 109.812C44.0817 110.367 46.3203 111.532 48.2164 113.308C50.249 114.948 51.6675 117.13 52.4717 119.853C53.4102 122.984 53.5994 126.453 53.0393 130.257C52.4792 134.062 51.3078 137.729 49.525 141.257C47.8783 144.785 45.6891 147.971 42.9575 150.815C40.2258 153.659 37.1577 155.685 33.7532 156.894C33.7515 157.302 34.497 157.85 35.9898 158.536C37.4832 159.086 39.9293 159.436 43.328 159.587C46.3194 159.6 49.1775 159 51.9022 157.788C54.6274 156.44 57.1499 154.819 59.4695 152.925C61.7898 150.895 63.8395 148.524 65.6188 145.812C67.398 143.1 68.7019 140.25 69.5305 137.262C70.4956 134.139 70.9849 131.014 70.9982 127.886C71.1475 124.76 70.7526 121.698 69.8136 118.703C68.8751 115.572 67.4587 112.914 65.5643 110.73Z" fill="url(#paint0_linear_438_33)"/>
<path d="M51.6389 75.9968C53.2601 78.4512 55.2907 80.5675 57.7307 82.3456C39.2819 39.9428 90.0041 32.1729 136.821 45.7652C132.068 44.2492 127.315 42.6652 122.563 41.0133C115.368 38.3991 108.101 36.5324 100.763 35.4133C93.5617 34.1589 86.696 33.9257 80.1658 34.7137C73.7721 35.3663 67.9857 37.1093 62.8065 39.9428C57.6274 42.7762 53.5305 46.906 50.5159 52.3322C49.2817 54.7745 48.4549 57.3545 48.0354 60.0722C47.7518 62.7905 47.8762 65.5106 48.4085 68.2324C49.0774 70.8188 50.1542 73.4069 51.6389 75.9968Z" fill="url(#paint1_linear_438_33)"/>
<mask id="path-5-outside-1_438_33" maskUnits="userSpaceOnUse" x="281.092" y="137.845" width="103.195" height="46.4385" fill="black">
<rect fill="white" x="281.092" y="137.845" width="103.195" height="46.4385"/>
<path d="M283.983 181.857C283.316 181.854 282.983 181.657 282.985 181.265C282.986 180.872 283.303 180.344 283.933 179.68L293.63 168.658C294.892 167.212 296.272 165.629 297.77 163.91C299.307 162.151 300.747 160.313 302.089 158.397C303.47 156.441 304.597 154.485 305.468 152.527C306.379 150.53 306.838 148.57 306.846 146.648C306.854 144.961 306.388 143.645 305.451 142.7C304.553 141.754 303.201 141.278 301.397 141.27C299.71 141.263 298.06 141.844 296.447 143.014C294.873 144.145 293.57 146.101 292.538 148.882C292.339 149.431 292.024 149.704 291.593 149.702C291.318 149.701 291.123 149.582 291.006 149.346C290.889 149.111 290.89 148.816 291.01 148.464C291.843 146.114 292.871 144.255 294.093 142.887C295.315 141.48 296.634 140.485 298.049 139.903C299.463 139.281 300.877 138.973 302.289 138.979C304.996 138.991 307.131 139.726 308.694 141.184C310.296 142.642 311.092 144.587 311.082 147.019C311.073 149.099 310.515 151.136 309.408 153.132C308.301 155.128 306.88 157.083 305.146 158.998C303.451 160.913 301.678 162.769 299.826 164.566C297.975 166.362 296.32 168.081 294.862 169.723L288.358 176.992C288.042 177.344 287.923 177.657 288.001 177.932C288.117 178.207 288.43 178.346 288.94 178.348L295.531 178.376C297.061 178.382 298.297 178.211 299.24 177.862C300.222 177.513 301.068 176.909 301.778 176.049C302.527 175.15 303.278 173.858 304.031 172.175L305.219 169.532C305.417 169.101 305.712 168.886 306.104 168.888C306.693 168.891 306.887 169.245 306.688 169.95L303.464 180.822C303.345 181.253 303.128 181.547 302.813 181.702C302.499 181.858 302.126 181.935 301.694 181.933L283.983 181.857ZM318.597 182.534C315.734 182.522 313.68 181.219 312.435 178.624C311.191 175.991 310.579 172.516 310.597 168.201C310.606 165.965 310.872 163.534 311.393 160.908C311.953 158.282 312.729 155.696 313.721 153.15C314.713 150.566 315.88 148.217 317.223 146.104C318.605 143.952 320.123 142.252 321.775 141.004C323.429 139.717 325.177 139.077 327.021 139.085C329.884 139.097 331.938 140.42 333.182 143.053C334.427 145.648 335.04 149.103 335.021 153.418C335.012 155.615 334.727 158.026 334.167 160.652C333.646 163.278 332.889 165.884 331.897 168.468C330.906 171.014 329.719 173.363 328.337 175.515C326.994 177.627 325.496 179.327 323.843 180.615C322.19 181.902 320.441 182.542 318.597 182.534ZM318.898 181.006C320.193 181.011 321.392 180.447 322.495 179.315C323.637 178.182 324.683 176.656 325.633 174.738C326.583 172.82 327.416 170.705 328.132 168.394C328.887 166.082 329.524 163.731 330.045 161.34C330.565 158.95 330.947 156.715 331.191 154.637C331.475 152.52 331.62 150.736 331.626 149.284C331.639 146.303 331.216 144.124 330.359 142.747C329.541 141.331 328.328 140.62 326.72 140.613C325.425 140.608 324.207 141.171 323.065 142.304C321.961 143.437 320.935 144.963 319.985 146.881C319.036 148.76 318.183 150.875 317.428 153.225C316.712 155.537 316.094 157.888 315.574 160.278C315.054 162.63 314.652 164.864 314.368 166.982C314.124 169.099 313.998 170.883 313.992 172.335C313.986 173.904 314.117 175.336 314.386 176.632C314.694 177.928 315.2 178.989 315.902 179.816C316.605 180.604 317.604 181 318.898 181.006ZM331.852 182.061C331.185 182.058 330.853 181.861 330.854 181.469C330.856 181.076 331.172 180.548 331.803 179.884L341.5 168.862C342.762 167.416 344.141 165.833 345.639 164.114C347.177 162.355 348.617 160.517 349.958 158.601C351.34 156.645 352.466 154.689 353.338 152.731C354.248 150.734 354.708 148.774 354.716 146.852C354.723 145.165 354.258 143.849 353.321 142.904C352.422 141.958 351.071 141.482 349.266 141.474C347.58 141.467 345.93 142.048 344.316 143.218C342.742 144.349 341.439 146.305 340.407 149.086C340.209 149.635 339.894 149.908 339.462 149.906C339.188 149.905 338.992 149.786 338.876 149.55C338.759 149.315 338.76 149.02 338.879 148.668C339.713 146.318 340.741 144.459 341.963 143.091C343.185 141.684 344.503 140.689 345.918 140.107C347.333 139.485 348.747 139.177 350.159 139.183C352.866 139.195 355.001 139.93 356.564 141.388C358.166 142.846 358.962 144.791 358.951 147.223C358.942 149.303 358.384 151.34 357.278 153.336C356.171 155.332 354.75 157.287 353.016 159.202C351.321 161.117 349.548 162.973 347.696 164.77C345.845 166.566 344.19 168.285 342.731 169.927L336.227 177.196C335.912 177.548 335.793 177.861 335.87 178.136C335.987 178.411 336.3 178.55 336.81 178.552L343.4 178.58C344.93 178.586 346.167 178.415 347.11 178.066C348.092 177.717 348.938 177.113 349.648 176.253C350.397 175.354 351.148 174.062 351.9 172.379L353.089 169.736C353.287 169.305 353.582 169.09 353.974 169.092C354.562 169.095 354.757 169.449 354.558 170.154L351.334 181.026C351.214 181.457 350.997 181.751 350.683 181.906C350.368 182.062 349.995 182.139 349.564 182.137L331.852 182.061ZM365.408 182.734C363.643 182.726 362.174 182.21 361.001 181.185C359.829 180.121 358.952 178.705 358.371 176.937C357.791 175.13 357.505 173.128 357.514 170.931C357.525 168.303 357.968 165.618 358.843 162.875C359.718 160.094 360.946 157.412 362.526 154.83C364.106 152.247 365.921 149.881 367.97 147.733C370.058 145.545 372.302 143.73 374.701 142.289C377.14 140.808 379.655 139.819 382.246 139.32C382.953 139.166 383.305 139.383 383.302 139.972C383.301 140.246 383.222 140.442 383.064 140.559C382.907 140.637 382.671 140.714 382.357 140.791C378.744 141.796 375.598 143.548 372.92 146.047C370.242 148.546 367.953 151.734 366.053 155.61C365.934 155.844 365.934 156.041 366.051 156.198C366.168 156.316 366.344 156.297 366.58 156.141C367.092 155.869 367.661 155.675 368.289 155.56C368.957 155.445 369.565 155.389 370.114 155.391C372.586 155.402 374.523 156.411 375.927 158.417C377.331 160.424 378.025 163.075 378.011 166.37C378.005 167.9 377.703 169.605 377.107 171.486C376.511 173.366 375.659 175.167 374.554 176.888C373.448 178.571 372.128 179.977 370.593 181.108C369.059 182.2 367.33 182.742 365.408 182.734ZM365.297 181.203C366.474 181.208 367.535 180.801 368.48 179.981C369.464 179.122 370.312 178.028 371.024 176.697C371.736 175.327 372.33 173.858 372.808 172.291C373.285 170.724 373.645 169.215 373.886 167.765C374.128 166.275 374.251 164.981 374.256 163.883C374.266 161.647 373.9 159.919 373.16 158.7C372.459 157.481 371.363 156.868 369.873 156.862C368.578 156.856 367.419 157.263 366.396 158.082C365.411 158.902 364.544 159.997 363.792 161.367C363.081 162.697 362.486 164.146 362.009 165.713C361.531 167.281 361.172 168.809 360.93 170.299C360.727 171.789 360.624 173.102 360.619 174.24C360.61 176.397 360.975 178.106 361.715 179.364C362.455 180.583 363.649 181.196 365.297 181.203Z"/>
</mask>
<path d="M283.983 181.857C283.316 181.854 282.983 181.657 282.985 181.265C282.986 180.872 283.303 180.344 283.933 179.68L293.63 168.658C294.892 167.212 296.272 165.629 297.77 163.91C299.307 162.151 300.747 160.313 302.089 158.397C303.47 156.441 304.597 154.485 305.468 152.527C306.379 150.53 306.838 148.57 306.846 146.648C306.854 144.961 306.388 143.645 305.451 142.7C304.553 141.754 303.201 141.278 301.397 141.27C299.71 141.263 298.06 141.844 296.447 143.014C294.873 144.145 293.57 146.101 292.538 148.882C292.339 149.431 292.024 149.704 291.593 149.702C291.318 149.701 291.123 149.582 291.006 149.346C290.889 149.111 290.89 148.816 291.01 148.464C291.843 146.114 292.871 144.255 294.093 142.887C295.315 141.48 296.634 140.485 298.049 139.903C299.463 139.281 300.877 138.973 302.289 138.979C304.996 138.991 307.131 139.726 308.694 141.184C310.296 142.642 311.092 144.587 311.082 147.019C311.073 149.099 310.515 151.136 309.408 153.132C308.301 155.128 306.88 157.083 305.146 158.998C303.451 160.913 301.678 162.769 299.826 164.566C297.975 166.362 296.32 168.081 294.862 169.723L288.358 176.992C288.042 177.344 287.923 177.657 288.001 177.932C288.117 178.207 288.43 178.346 288.94 178.348L295.531 178.376C297.061 178.382 298.297 178.211 299.24 177.862C300.222 177.513 301.068 176.909 301.778 176.049C302.527 175.15 303.278 173.858 304.031 172.175L305.219 169.532C305.417 169.101 305.712 168.886 306.104 168.888C306.693 168.891 306.887 169.245 306.688 169.95L303.464 180.822C303.345 181.253 303.128 181.547 302.813 181.702C302.499 181.858 302.126 181.935 301.694 181.933L283.983 181.857ZM318.597 182.534C315.734 182.522 313.68 181.219 312.435 178.624C311.191 175.991 310.579 172.516 310.597 168.201C310.606 165.965 310.872 163.534 311.393 160.908C311.953 158.282 312.729 155.696 313.721 153.15C314.713 150.566 315.88 148.217 317.223 146.104C318.605 143.952 320.123 142.252 321.775 141.004C323.429 139.717 325.177 139.077 327.021 139.085C329.884 139.097 331.938 140.42 333.182 143.053C334.427 145.648 335.04 149.103 335.021 153.418C335.012 155.615 334.727 158.026 334.167 160.652C333.646 163.278 332.889 165.884 331.897 168.468C330.906 171.014 329.719 173.363 328.337 175.515C326.994 177.627 325.496 179.327 323.843 180.615C322.19 181.902 320.441 182.542 318.597 182.534ZM318.898 181.006C320.193 181.011 321.392 180.447 322.495 179.315C323.637 178.182 324.683 176.656 325.633 174.738C326.583 172.82 327.416 170.705 328.132 168.394C328.887 166.082 329.524 163.731 330.045 161.34C330.565 158.95 330.947 156.715 331.191 154.637C331.475 152.52 331.62 150.736 331.626 149.284C331.639 146.303 331.216 144.124 330.359 142.747C329.541 141.331 328.328 140.62 326.72 140.613C325.425 140.608 324.207 141.171 323.065 142.304C321.961 143.437 320.935 144.963 319.985 146.881C319.036 148.76 318.183 150.875 317.428 153.225C316.712 155.537 316.094 157.888 315.574 160.278C315.054 162.63 314.652 164.864 314.368 166.982C314.124 169.099 313.998 170.883 313.992 172.335C313.986 173.904 314.117 175.336 314.386 176.632C314.694 177.928 315.2 178.989 315.902 179.816C316.605 180.604 317.604 181 318.898 181.006ZM331.852 182.061C331.185 182.058 330.853 181.861 330.854 181.469C330.856 181.076 331.172 180.548 331.803 179.884L341.5 168.862C342.762 167.416 344.141 165.833 345.639 164.114C347.177 162.355 348.617 160.517 349.958 158.601C351.34 156.645 352.466 154.689 353.338 152.731C354.248 150.734 354.708 148.774 354.716 146.852C354.723 145.165 354.258 143.849 353.321 142.904C352.422 141.958 351.071 141.482 349.266 141.474C347.58 141.467 345.93 142.048 344.316 143.218C342.742 144.349 341.439 146.305 340.407 149.086C340.209 149.635 339.894 149.908 339.462 149.906C339.188 149.905 338.992 149.786 338.876 149.55C338.759 149.315 338.76 149.02 338.879 148.668C339.713 146.318 340.741 144.459 341.963 143.091C343.185 141.684 344.503 140.689 345.918 140.107C347.333 139.485 348.747 139.177 350.159 139.183C352.866 139.195 355.001 139.93 356.564 141.388C358.166 142.846 358.962 144.791 358.951 147.223C358.942 149.303 358.384 151.34 357.278 153.336C356.171 155.332 354.75 157.287 353.016 159.202C351.321 161.117 349.548 162.973 347.696 164.77C345.845 166.566 344.19 168.285 342.731 169.927L336.227 177.196C335.912 177.548 335.793 177.861 335.87 178.136C335.987 178.411 336.3 178.55 336.81 178.552L343.4 178.58C344.93 178.586 346.167 178.415 347.11 178.066C348.092 177.717 348.938 177.113 349.648 176.253C350.397 175.354 351.148 174.062 351.9 172.379L353.089 169.736C353.287 169.305 353.582 169.09 353.974 169.092C354.562 169.095 354.757 169.449 354.558 170.154L351.334 181.026C351.214 181.457 350.997 181.751 350.683 181.906C350.368 182.062 349.995 182.139 349.564 182.137L331.852 182.061ZM365.408 182.734C363.643 182.726 362.174 182.21 361.001 181.185C359.829 180.121 358.952 178.705 358.371 176.937C357.791 175.13 357.505 173.128 357.514 170.931C357.525 168.303 357.968 165.618 358.843 162.875C359.718 160.094 360.946 157.412 362.526 154.83C364.106 152.247 365.921 149.881 367.97 147.733C370.058 145.545 372.302 143.73 374.701 142.289C377.14 140.808 379.655 139.819 382.246 139.32C382.953 139.166 383.305 139.383 383.302 139.972C383.301 140.246 383.222 140.442 383.064 140.559C382.907 140.637 382.671 140.714 382.357 140.791C378.744 141.796 375.598 143.548 372.92 146.047C370.242 148.546 367.953 151.734 366.053 155.61C365.934 155.844 365.934 156.041 366.051 156.198C366.168 156.316 366.344 156.297 366.58 156.141C367.092 155.869 367.661 155.675 368.289 155.56C368.957 155.445 369.565 155.389 370.114 155.391C372.586 155.402 374.523 156.411 375.927 158.417C377.331 160.424 378.025 163.075 378.011 166.37C378.005 167.9 377.703 169.605 377.107 171.486C376.511 173.366 375.659 175.167 374.554 176.888C373.448 178.571 372.128 179.977 370.593 181.108C369.059 182.2 367.33 182.742 365.408 182.734ZM365.297 181.203C366.474 181.208 367.535 180.801 368.48 179.981C369.464 179.122 370.312 178.028 371.024 176.697C371.736 175.327 372.33 173.858 372.808 172.291C373.285 170.724 373.645 169.215 373.886 167.765C374.128 166.275 374.251 164.981 374.256 163.883C374.266 161.647 373.9 159.919 373.16 158.7C372.459 157.481 371.363 156.868 369.873 156.862C368.578 156.856 367.419 157.263 366.396 158.082C365.411 158.902 364.544 159.997 363.792 161.367C363.081 162.697 362.486 164.146 362.009 165.713C361.531 167.281 361.172 168.809 360.93 170.299C360.727 171.789 360.624 173.102 360.619 174.24C360.61 176.397 360.975 178.106 361.715 179.364C362.455 180.583 363.649 181.196 365.297 181.203Z" fill="white"/>
<path d="M283.933 179.68L284.602 180.315L284.614 180.303L284.626 180.29L283.933 179.68ZM293.63 168.658L294.323 169.268L294.326 169.265L293.63 168.658ZM297.77 163.91L297.075 163.302L297.074 163.303L297.77 163.91ZM302.089 158.397L301.335 157.864L301.333 157.867L302.089 158.397ZM305.468 152.527L304.628 152.144L304.625 152.152L305.468 152.527ZM305.451 142.7L304.782 143.336L304.789 143.343L304.796 143.35L305.451 142.7ZM296.447 143.014L296.985 143.764L296.988 143.762L296.447 143.014ZM292.538 148.882L291.672 148.561L291.67 148.568L292.538 148.882ZM291.01 148.464L290.14 148.155L290.135 148.168L291.01 148.464ZM294.093 142.887L294.782 143.502L294.79 143.492L294.093 142.887ZM298.049 139.903L298.4 140.756L298.41 140.752L298.42 140.748L298.049 139.903ZM308.694 141.184L308.064 141.859L308.073 141.866L308.694 141.184ZM309.408 153.132L310.215 153.58L309.408 153.132ZM305.146 158.998L304.462 158.379L304.455 158.387L305.146 158.998ZM299.826 164.566L300.469 165.228V165.228L299.826 164.566ZM294.862 169.723L295.549 170.338L295.552 170.336L294.862 169.723ZM288.358 176.992L289.045 177.608L289.046 177.607L288.358 176.992ZM288.001 177.932L287.112 178.182L287.128 178.238L287.151 178.292L288.001 177.932ZM299.24 177.862L298.931 176.992L298.92 176.996L299.24 177.862ZM301.778 176.049L301.069 175.458L301.066 175.461L301.778 176.049ZM304.031 172.175L303.189 171.796L303.188 171.798L304.031 172.175ZM305.219 169.532L304.38 169.146L304.377 169.153L305.219 169.532ZM306.688 169.95L307.573 170.212L307.577 170.201L306.688 169.95ZM303.464 180.822L302.579 180.56L302.577 180.568L302.575 180.576L303.464 180.822ZM302.813 181.702L303.223 182.529L303.223 182.529L302.813 181.702ZM283.983 181.857L283.987 180.934C283.862 180.934 283.778 180.924 283.727 180.914C283.673 180.903 283.674 180.896 283.704 180.913C283.74 180.935 283.802 180.984 283.851 181.071C283.9 181.157 283.908 181.233 283.908 181.268L282.985 181.265L282.062 181.261C282.06 181.778 282.309 182.232 282.762 182.501C283.138 182.724 283.585 182.779 283.979 182.78L283.983 181.857ZM282.985 181.265L283.908 181.268C283.908 181.307 283.898 181.244 284.015 181.048C284.126 180.863 284.314 180.62 284.602 180.315L283.933 179.68L283.264 179.044C282.922 179.404 282.636 179.757 282.431 180.1C282.232 180.433 282.064 180.83 282.062 181.261L282.985 181.265ZM283.933 179.68L284.626 180.29L294.323 169.268L293.63 168.658L292.937 168.049L283.24 179.07L283.933 179.68ZM293.63 168.658L294.326 169.265C295.588 167.819 296.968 166.236 298.466 164.516L297.77 163.91L297.074 163.303C295.576 165.023 294.196 166.606 292.935 168.052L293.63 168.658ZM297.77 163.91L298.465 164.517C300.024 162.734 301.484 160.87 302.845 158.926L302.089 158.397L301.333 157.867C300.01 159.757 298.59 161.568 297.075 163.302L297.77 163.91ZM302.089 158.397L302.843 158.929C304.255 156.93 305.413 154.921 306.311 152.902L305.468 152.527L304.625 152.152C303.781 154.048 302.685 155.952 301.335 157.864L302.089 158.397ZM305.468 152.527L306.308 152.91C307.265 150.811 307.761 148.723 307.769 146.652L306.846 146.648L305.923 146.644C305.916 148.418 305.492 150.249 304.628 152.144L305.468 152.527ZM306.846 146.648L307.769 146.652C307.777 144.789 307.259 143.213 306.106 142.05L305.451 142.7L304.796 143.35C305.518 144.078 305.93 145.134 305.923 146.644L306.846 146.648ZM305.451 142.7L306.12 142.064C304.99 140.875 303.358 140.356 301.401 140.347L301.397 141.27L301.393 142.193C303.045 142.2 304.115 142.634 304.782 143.336L305.451 142.7ZM301.397 141.27L301.401 140.347C299.484 140.339 297.647 141.004 295.905 142.267L296.447 143.014L296.988 143.762C298.473 142.685 299.936 142.187 301.393 142.193L301.397 141.27ZM296.447 143.014L295.908 142.265C294.125 143.546 292.737 145.693 291.672 148.561L292.538 148.882L293.403 149.203C294.403 146.51 295.62 144.745 296.985 143.764L296.447 143.014ZM292.538 148.882L291.67 148.568C291.638 148.656 291.608 148.715 291.584 148.753C291.561 148.79 291.547 148.802 291.548 148.801C291.55 148.799 291.561 148.791 291.579 148.784C291.597 148.778 291.605 148.779 291.597 148.779L291.593 149.702L291.589 150.625C292.02 150.627 292.425 150.484 292.758 150.196C293.072 149.923 293.273 149.563 293.406 149.196L292.538 148.882ZM291.593 149.702L291.597 148.779C291.593 148.779 291.647 148.779 291.718 148.823C291.792 148.868 291.826 148.922 291.833 148.937L291.006 149.346L290.179 149.756C290.303 150.007 290.492 150.238 290.762 150.402C291.029 150.564 291.318 150.624 291.589 150.625L291.593 149.702ZM291.006 149.346L291.833 148.937C291.846 148.962 291.842 148.974 291.842 148.953C291.842 148.927 291.848 148.865 291.884 148.759L291.01 148.464L290.135 148.168C289.971 148.656 289.915 149.223 290.179 149.756L291.006 149.346ZM291.01 148.464L291.88 148.772C292.687 146.497 293.663 144.754 294.782 143.502L294.093 142.887L293.405 142.272C292.08 143.755 291 145.73 290.14 148.155L291.01 148.464ZM294.093 142.887L294.79 143.492C295.938 142.17 297.144 141.273 298.4 140.756L298.049 139.903L297.697 139.049C296.124 139.697 294.693 140.789 293.396 142.282L294.093 142.887ZM298.049 139.903L298.42 140.748C299.728 140.173 301.014 139.897 302.285 139.902L302.289 138.979L302.293 138.056C300.74 138.05 299.199 138.389 297.677 139.058L298.049 139.903ZM302.289 138.979L302.285 139.902C304.824 139.913 306.713 140.598 308.064 141.859L308.694 141.184L309.324 140.509C307.549 138.853 305.168 138.068 302.293 138.056L302.289 138.979ZM308.694 141.184L308.073 141.866C309.457 143.126 310.168 144.809 310.159 147.015L311.082 147.019L312.005 147.023C312.016 144.366 311.135 142.158 309.315 140.501L308.694 141.184ZM311.082 147.019L310.159 147.015C310.15 148.924 309.64 150.811 308.601 152.684L309.408 153.132L310.215 153.58C311.39 151.461 311.995 149.273 312.005 147.023L311.082 147.019ZM309.408 153.132L308.601 152.684C307.532 154.611 306.155 156.51 304.462 158.379L305.146 158.998L305.83 159.618C307.606 157.657 309.07 155.645 310.215 153.58L309.408 153.132ZM305.146 158.998L304.455 158.387C302.776 160.284 301.019 162.123 299.184 163.903L299.826 164.566L300.469 165.228C302.337 163.415 304.127 161.543 305.837 159.61L305.146 158.998ZM299.826 164.566L299.184 163.903C297.319 165.713 295.648 167.449 294.172 169.11L294.862 169.723L295.552 170.336C296.993 168.714 298.631 167.012 300.469 165.228L299.826 164.566ZM294.862 169.723L294.174 169.107L287.67 176.376L288.358 176.992L289.046 177.607L295.549 170.338L294.862 169.723ZM288.358 176.992L287.671 176.376C287.286 176.805 286.905 177.443 287.112 178.182L288.001 177.932L288.889 177.682C288.9 177.719 288.902 177.755 288.9 177.784C288.898 177.811 288.893 177.824 288.895 177.818C288.897 177.812 288.906 177.791 288.931 177.753C288.955 177.716 288.992 177.667 289.045 177.608L288.358 176.992ZM288.001 177.932L287.151 178.292C287.496 179.107 288.34 179.268 288.937 179.271L288.94 178.348L288.944 177.425C288.857 177.424 288.794 177.418 288.75 177.411C288.707 177.403 288.692 177.396 288.697 177.398C288.703 177.401 288.731 177.414 288.765 177.448C288.801 177.483 288.831 177.526 288.851 177.572L288.001 177.932ZM288.94 178.348L288.937 179.271L295.527 179.299L295.531 178.376L295.535 177.453L288.944 177.425L288.94 178.348ZM295.531 178.376L295.527 179.299C297.116 179.306 298.474 179.13 299.561 178.728L299.24 177.862L298.92 176.996C298.12 177.292 297.006 177.459 295.535 177.453L295.531 178.376ZM299.24 177.862L299.549 178.732C300.7 178.323 301.682 177.616 302.49 176.636L301.778 176.049L301.066 175.461C300.455 176.202 299.745 176.703 298.931 176.992L299.24 177.862ZM301.778 176.049L302.487 176.64C303.312 175.649 304.104 174.273 304.873 172.551L304.031 172.175L303.188 171.798C302.453 173.443 301.742 174.65 301.069 175.458L301.778 176.049ZM304.031 172.175L304.873 172.553L306.061 169.91L305.219 169.532L304.377 169.153L303.189 171.796L304.031 172.175ZM305.219 169.532L306.058 169.917C306.11 169.804 306.145 169.785 306.131 169.794C306.125 169.799 306.113 169.805 306.101 169.809C306.09 169.813 306.088 169.811 306.1 169.811L306.104 168.888L306.108 167.965C305.731 167.964 305.365 168.07 305.046 168.301C304.738 168.525 304.526 168.829 304.38 169.146L305.219 169.532ZM306.104 168.888L306.1 169.811C306.162 169.811 306.146 169.822 306.09 169.796C306.059 169.782 306.02 169.759 305.98 169.723C305.939 169.686 305.907 169.644 305.883 169.6C305.836 169.515 305.841 169.46 305.841 169.483C305.841 169.507 305.835 169.575 305.8 169.699L306.688 169.95L307.577 170.201C307.693 169.787 307.779 169.218 307.5 168.711C307.174 168.117 306.568 167.967 306.108 167.965L306.104 168.888ZM306.688 169.95L305.803 169.687L302.579 180.56L303.464 180.822L304.349 181.085L307.573 170.212L306.688 169.95ZM303.464 180.822L302.575 180.576C302.505 180.828 302.422 180.866 302.404 180.875L302.813 181.702L303.223 182.529C303.834 182.227 304.185 181.679 304.354 181.069L303.464 180.822ZM302.813 181.702L302.404 180.875C302.244 180.954 302.019 181.011 301.698 181.01L301.694 181.933L301.69 182.856C302.233 182.858 302.754 182.761 303.223 182.529L302.813 181.702ZM301.694 181.933L301.698 181.01L283.987 180.934L283.983 181.857L283.979 182.78L301.69 182.856L301.694 181.933ZM312.435 178.624L311.601 179.019L311.603 179.024L312.435 178.624ZM311.393 160.908L310.49 160.715L310.488 160.728L311.393 160.908ZM313.721 153.15L314.581 153.485L314.583 153.481L313.721 153.15ZM317.223 146.104L316.446 145.605L316.444 145.609L317.223 146.104ZM321.775 141.004L322.332 141.741L322.343 141.732L321.775 141.004ZM333.182 143.053L332.348 143.448L332.35 143.452L333.182 143.053ZM334.167 160.652L333.264 160.459L333.261 160.472L334.167 160.652ZM331.897 168.468L332.757 168.803L332.759 168.799L331.897 168.468ZM328.337 175.515L327.56 175.016L327.558 175.019L328.337 175.515ZM323.843 180.615L324.41 181.343V181.343L323.843 180.615ZM322.495 179.315L321.845 178.659L321.839 178.665L321.834 178.671L322.495 179.315ZM325.633 174.738L326.46 175.148V175.148L325.633 174.738ZM328.132 168.394L327.254 168.107L327.252 168.114L327.25 168.12L328.132 168.394ZM330.045 161.34L329.143 161.144V161.144L330.045 161.34ZM331.191 154.637L330.276 154.515L330.275 154.522L330.275 154.529L331.191 154.637ZM330.359 142.747L329.56 143.209L329.568 143.222L329.576 143.235L330.359 142.747ZM323.065 142.304L322.415 141.649L322.409 141.654L322.403 141.66L323.065 142.304ZM319.985 146.881L320.809 147.297L320.812 147.29L319.985 146.881ZM317.428 153.225L316.549 152.943L316.546 152.952L317.428 153.225ZM315.574 160.278L316.475 160.478L316.475 160.475L315.574 160.278ZM314.368 166.982L313.453 166.859L313.452 166.867L313.451 166.876L314.368 166.982ZM314.386 176.632L313.482 176.82L313.485 176.833L313.488 176.846L314.386 176.632ZM315.902 179.816L315.199 180.414L315.206 180.422L315.214 180.431L315.902 179.816ZM318.597 182.534L318.601 181.611C317.312 181.606 316.26 181.311 315.404 180.768C314.548 180.225 313.829 179.395 313.268 178.225L312.435 178.624L311.603 179.024C312.286 180.448 313.217 181.567 314.415 182.327C315.613 183.087 317.019 183.451 318.594 183.457L318.597 182.534ZM312.435 178.624L313.27 178.23C312.106 175.766 311.502 172.443 311.52 168.205L310.597 168.201L309.674 168.197C309.655 172.589 310.277 176.215 311.601 179.019L312.435 178.624ZM310.597 168.201L311.52 168.205C311.529 166.038 311.786 163.667 312.298 161.088L311.393 160.908L310.488 160.728C309.957 163.401 309.684 165.892 309.674 168.197L310.597 168.201ZM311.393 160.908L312.296 161.101C312.845 158.524 313.607 155.986 314.581 153.485L313.721 153.15L312.861 152.815C311.852 155.407 311.061 158.04 310.49 160.715L311.393 160.908ZM313.721 153.15L314.583 153.481C315.555 150.948 316.695 148.655 318.002 146.599L317.223 146.104L316.444 145.609C315.065 147.779 313.871 150.183 312.859 152.82L313.721 153.15ZM317.223 146.104L317.999 146.603C319.336 144.522 320.783 142.91 322.332 141.741L321.775 141.004L321.219 140.267C319.462 141.595 317.874 143.383 316.446 145.605L317.223 146.104ZM321.775 141.004L322.343 141.732C323.856 140.554 325.408 140.001 327.017 140.008L327.021 139.085L327.025 138.162C324.946 138.153 323.001 138.879 321.208 140.276L321.775 141.004ZM327.021 139.085L327.017 140.008C328.304 140.013 329.354 140.311 330.209 140.862C331.065 141.413 331.785 142.256 332.348 143.448L333.182 143.053L334.017 142.659C333.336 141.217 332.407 140.081 331.209 139.31C330.01 138.538 328.602 138.168 327.025 138.162L327.021 139.085ZM333.182 143.053L332.35 143.452C333.512 145.874 334.116 149.174 334.098 153.414L335.021 153.418L335.944 153.422C335.963 149.031 335.342 145.421 334.015 142.654L333.182 143.053ZM335.021 153.418L334.098 153.414C334.089 155.535 333.814 157.882 333.264 160.459L334.167 160.652L335.069 160.845C335.64 158.17 335.935 155.694 335.944 153.422L335.021 153.418ZM334.167 160.652L333.261 160.472C332.751 163.045 332.009 165.6 331.036 168.138L331.897 168.468L332.759 168.799C333.769 166.167 334.54 163.511 335.072 160.832L334.167 160.652ZM331.897 168.468L331.037 168.133C330.066 170.626 328.907 172.919 327.56 175.016L328.337 175.515L329.113 176.013C330.531 173.807 331.745 171.403 332.757 168.803L331.897 168.468ZM328.337 175.515L327.558 175.019C326.261 177.06 324.831 178.675 323.276 179.887L323.843 180.615L324.41 181.343C326.161 179.979 327.727 178.195 329.116 176.01L328.337 175.515ZM323.843 180.615L323.276 179.887C321.762 181.065 320.21 181.618 318.601 181.611L318.597 182.534L318.594 183.457C320.672 183.466 322.617 182.739 324.41 181.343L323.843 180.615ZM318.898 181.006L318.894 181.929C320.493 181.935 321.92 181.228 323.156 179.958L322.495 179.315L321.834 178.671C320.864 179.667 319.893 180.087 318.902 180.083L318.898 181.006ZM322.495 179.315L323.145 179.97C324.379 178.746 325.479 177.129 326.46 175.148L325.633 174.738L324.806 174.329C323.887 176.184 322.896 177.617 321.845 178.659L322.495 179.315ZM325.633 174.738L326.46 175.148C327.434 173.18 328.285 171.019 329.013 168.667L328.132 168.394L327.25 168.12C326.547 170.391 325.731 172.46 324.806 174.329L325.633 174.738ZM328.132 168.394L329.009 168.68C329.774 166.339 330.42 163.958 330.947 161.537L330.045 161.34L329.143 161.144C328.629 163.505 328 165.826 327.254 168.107L328.132 168.394ZM330.045 161.34L330.947 161.537C331.472 159.121 331.86 156.857 332.108 154.745L331.191 154.637L330.275 154.529C330.034 156.573 329.658 158.778 329.143 161.144L330.045 161.34ZM331.191 154.637L332.106 154.76C332.393 152.62 332.543 150.793 332.549 149.288L331.626 149.284L330.703 149.28C330.697 150.678 330.557 152.42 330.276 154.515L331.191 154.637ZM331.626 149.284L332.549 149.288C332.562 146.258 332.141 143.862 331.143 142.259L330.359 142.747L329.576 143.235C330.292 144.385 330.715 146.348 330.703 149.28L331.626 149.284ZM330.359 142.747L331.159 142.285C330.18 140.591 328.667 139.699 326.724 139.69L326.72 140.613L326.716 141.536C327.99 141.542 328.903 142.071 329.56 143.209L330.359 142.747ZM326.72 140.613L326.724 139.69C325.128 139.683 323.686 140.388 322.415 141.649L323.065 142.304L323.714 142.96C324.728 141.955 325.723 141.532 326.716 141.536L326.72 140.613ZM323.065 142.304L322.403 141.66C321.214 142.882 320.136 144.495 319.158 146.471L319.985 146.881L320.812 147.29C321.733 145.43 322.709 143.992 323.726 142.948L323.065 142.304ZM319.985 146.881L319.161 146.465C318.187 148.393 317.317 150.554 316.549 152.943L317.428 153.225L318.307 153.507C319.05 151.195 319.885 149.126 320.809 147.297L319.985 146.881ZM317.428 153.225L316.546 152.952C315.822 155.289 315.197 157.666 314.672 160.082L315.574 160.278L316.475 160.475C316.99 158.11 317.601 155.784 318.309 153.498L317.428 153.225ZM315.574 160.278L314.672 160.079C314.147 162.453 313.741 164.713 313.453 166.859L314.368 166.982L315.283 167.104C315.563 165.016 315.96 162.807 316.475 160.478L315.574 160.278ZM314.368 166.982L313.451 166.876C313.205 169.013 313.076 170.834 313.069 172.331L313.992 172.335L314.915 172.339C314.921 170.933 315.043 169.185 315.285 167.087L314.368 166.982ZM313.992 172.335L313.069 172.331C313.062 173.953 313.198 175.451 313.482 176.82L314.386 176.632L315.29 176.444C315.036 175.222 314.909 173.855 314.915 172.339L313.992 172.335ZM314.386 176.632L313.488 176.846C313.822 178.251 314.383 179.454 315.199 180.414L315.902 179.816L316.606 179.218C316.016 178.525 315.566 177.604 315.284 176.418L314.386 176.632ZM315.902 179.816L315.214 180.431C316.129 181.457 317.402 181.922 318.894 181.929L318.898 181.006L318.902 180.083C317.805 180.078 317.081 179.751 316.591 179.202L315.902 179.816ZM331.803 179.884L332.472 180.519L332.484 180.507L332.496 180.494L331.803 179.884ZM341.5 168.862L342.193 169.472L342.196 169.469L341.5 168.862ZM345.639 164.114L344.944 163.506L344.943 163.507L345.639 164.114ZM349.958 158.601L349.205 158.068L349.202 158.071L349.958 158.601ZM353.338 152.731L352.498 152.348L352.494 152.355L353.338 152.731ZM353.321 142.904L352.652 143.54L352.658 143.547L352.665 143.554L353.321 142.904ZM344.316 143.218L344.855 143.968L344.858 143.966L344.316 143.218ZM340.407 149.086L339.542 148.765L339.54 148.772L340.407 149.086ZM338.879 148.668L338.009 148.359L338.005 148.372L338.879 148.668ZM341.963 143.091L342.651 143.706L342.66 143.696L341.963 143.091ZM345.918 140.107L346.27 140.96L346.28 140.956L346.289 140.952L345.918 140.107ZM356.564 141.388L355.934 142.063L355.942 142.07L356.564 141.388ZM357.278 153.336L358.085 153.784L357.278 153.336ZM353.016 159.202L352.332 158.583L352.325 158.591L353.016 159.202ZM347.696 164.77L348.339 165.432V165.432L347.696 164.77ZM342.731 169.927L343.419 170.542L343.421 170.54L342.731 169.927ZM336.227 177.196L336.915 177.812L336.915 177.811L336.227 177.196ZM335.87 178.136L334.982 178.386L334.998 178.442L335.02 178.496L335.87 178.136ZM347.11 178.066L346.801 177.196L346.789 177.2L347.11 178.066ZM349.648 176.253L348.939 175.662L348.936 175.665L349.648 176.253ZM351.9 172.379L351.059 172L351.058 172.002L351.9 172.379ZM353.089 169.736L352.25 169.35L352.247 169.357L353.089 169.736ZM354.558 170.154L355.443 170.416L355.446 170.405L354.558 170.154ZM351.334 181.026L350.449 180.764L350.447 180.772L350.445 180.78L351.334 181.026ZM350.683 181.906L351.092 182.733L351.092 182.733L350.683 181.906ZM331.852 182.061L331.856 181.138C331.732 181.138 331.648 181.128 331.596 181.118C331.543 181.107 331.544 181.1 331.574 181.117C331.61 181.139 331.672 181.188 331.721 181.275C331.769 181.361 331.778 181.437 331.777 181.472L330.854 181.469L329.931 181.465C329.929 181.982 330.179 182.436 330.631 182.705C331.008 182.928 331.455 182.983 331.848 182.984L331.852 182.061ZM330.854 181.469L331.777 181.472C331.777 181.511 331.768 181.448 331.885 181.252C331.996 181.067 332.183 180.824 332.472 180.519L331.803 179.884L331.133 179.248C330.792 179.608 330.506 179.961 330.301 180.304C330.102 180.637 329.933 181.034 329.931 181.465L330.854 181.469ZM331.803 179.884L332.496 180.494L342.193 169.472L341.5 168.862L340.807 168.253L331.11 179.274L331.803 179.884ZM341.5 168.862L342.196 169.469C343.457 168.023 344.837 166.44 346.335 164.72L345.639 164.114L344.943 163.507C343.445 165.227 342.066 166.81 340.805 168.256L341.5 168.862ZM345.639 164.114L346.334 164.721C347.894 162.937 349.354 161.074 350.715 159.13L349.958 158.601L349.202 158.071C347.879 159.961 346.46 161.772 344.944 163.506L345.639 164.114ZM349.958 158.601L350.712 159.133C352.125 157.134 353.282 155.125 354.181 153.106L353.338 152.731L352.494 152.355C351.65 154.252 350.555 156.156 349.205 158.068L349.958 158.601ZM353.338 152.731L354.177 153.114C355.135 151.015 355.63 148.927 355.639 146.856L354.716 146.852L353.793 146.848C353.786 148.622 353.362 150.453 352.498 152.348L353.338 152.731ZM354.716 146.852L355.639 146.856C355.647 144.993 355.129 143.417 353.976 142.254L353.321 142.904L352.665 143.554C353.387 144.282 353.8 145.338 353.793 146.848L354.716 146.852ZM353.321 142.904L353.99 142.268C352.86 141.079 351.227 140.56 349.27 140.551L349.266 141.474L349.263 142.397C350.915 142.404 351.985 142.838 352.652 143.54L353.321 142.904ZM349.266 141.474L349.27 140.551C347.354 140.543 345.517 141.208 343.774 142.471L344.316 143.218L344.858 143.966C346.342 142.889 347.805 142.391 349.263 142.397L349.266 141.474ZM344.316 143.218L343.778 142.469C341.995 143.75 340.606 145.897 339.542 148.765L340.407 149.086L341.273 149.407C342.272 146.713 343.49 144.949 344.855 143.968L344.316 143.218ZM340.407 149.086L339.54 148.772C339.508 148.86 339.478 148.919 339.454 148.957C339.431 148.994 339.417 149.006 339.418 149.005C339.42 149.003 339.431 148.995 339.449 148.988C339.466 148.982 339.475 148.983 339.466 148.983L339.462 149.906L339.459 150.829C339.889 150.831 340.294 150.688 340.627 150.4C340.942 150.127 341.143 149.767 341.275 149.4L340.407 149.086ZM339.462 149.906L339.466 148.983C339.463 148.983 339.516 148.983 339.588 149.027C339.662 149.072 339.695 149.126 339.703 149.141L338.876 149.55L338.048 149.96C338.172 150.211 338.362 150.442 338.632 150.606C338.899 150.768 339.188 150.828 339.459 150.829L339.462 149.906ZM338.876 149.55L339.703 149.141C339.715 149.166 339.712 149.178 339.712 149.157C339.712 149.131 339.718 149.069 339.754 148.963L338.879 148.668L338.005 148.372C337.84 148.86 337.785 149.427 338.048 149.96L338.876 149.55ZM338.879 148.668L339.749 148.976C340.556 146.701 341.532 144.958 342.651 143.706L341.963 143.091L341.275 142.476C339.95 143.959 338.87 145.934 338.009 148.359L338.879 148.668ZM341.963 143.091L342.66 143.696C343.808 142.374 345.014 141.477 346.27 140.96L345.918 140.107L345.567 139.253C343.993 139.901 342.562 140.993 341.266 142.486L341.963 143.091ZM345.918 140.107L346.289 140.952C347.597 140.377 348.884 140.101 350.155 140.106L350.159 139.183L350.163 138.26C348.61 138.254 347.069 138.593 345.547 139.262L345.918 140.107ZM350.159 139.183L350.155 140.106C352.694 140.117 354.583 140.802 355.934 142.063L356.564 141.388L357.193 140.713C355.418 139.057 353.038 138.272 350.163 138.26L350.159 139.183ZM356.564 141.388L355.942 142.07C357.326 143.33 358.038 145.013 358.028 147.219L358.951 147.223L359.874 147.227C359.886 144.57 359.005 142.362 357.185 140.705L356.564 141.388ZM358.951 147.223L358.028 147.219C358.02 149.128 357.51 151.015 356.47 152.888L357.278 153.336L358.085 153.784C359.259 151.665 359.865 149.477 359.874 147.227L358.951 147.223ZM357.278 153.336L356.47 152.888C355.402 154.815 354.025 156.713 352.332 158.583L353.016 159.202L353.7 159.822C355.476 157.861 356.939 155.849 358.085 153.784L357.278 153.336ZM353.016 159.202L352.325 158.591C350.645 160.488 348.888 162.327 347.053 164.107L347.696 164.77L348.339 165.432C350.207 163.619 351.996 161.747 353.707 159.814L353.016 159.202ZM347.696 164.77L347.053 164.107C345.188 165.917 343.517 167.653 342.041 169.314L342.731 169.927L343.421 170.54C344.862 168.918 346.501 167.216 348.339 165.432L347.696 164.77ZM342.731 169.927L342.043 169.311L335.54 176.58L336.227 177.196L336.915 177.811L343.419 170.542L342.731 169.927ZM336.227 177.196L335.54 176.58C335.155 177.009 334.774 177.647 334.982 178.386L335.87 178.136L336.759 177.886C336.769 177.923 336.772 177.959 336.77 177.988C336.768 178.015 336.762 178.028 336.764 178.022C336.767 178.016 336.776 177.995 336.801 177.957C336.825 177.92 336.861 177.871 336.915 177.812L336.227 177.196ZM335.87 178.136L335.02 178.496C335.366 179.311 336.21 179.472 336.806 179.475L336.81 178.552L336.814 177.629C336.727 177.628 336.663 177.622 336.62 177.615C336.577 177.607 336.562 177.6 336.566 177.602C336.572 177.605 336.6 177.618 336.635 177.652C336.671 177.687 336.701 177.73 336.72 177.776L335.87 178.136ZM336.81 178.552L336.806 179.475L343.397 179.503L343.4 178.58L343.404 177.657L336.814 177.629L336.81 178.552ZM343.4 178.58L343.397 179.503C344.985 179.51 346.344 179.334 347.43 178.932L347.11 178.066L346.789 177.2C345.99 177.496 344.875 177.663 343.404 177.657L343.4 178.58ZM347.11 178.066L347.419 178.936C348.569 178.527 349.551 177.82 350.36 176.84L349.648 176.253L348.936 175.665C348.325 176.406 347.615 176.907 346.801 177.196L347.11 178.066ZM349.648 176.253L350.357 176.844C351.182 175.853 351.973 174.477 352.743 172.755L351.9 172.379L351.058 172.002C350.322 173.647 349.612 174.854 348.939 175.662L349.648 176.253ZM351.9 172.379L352.742 172.757L353.93 170.114L353.089 169.736L352.247 169.357L351.059 172L351.9 172.379ZM353.089 169.736L353.927 170.121C353.979 170.008 354.014 169.989 354.001 169.998C353.994 170.003 353.983 170.009 353.971 170.013C353.96 170.017 353.957 170.015 353.97 170.015L353.974 169.092L353.978 168.169C353.601 168.168 353.234 168.274 352.916 168.505C352.608 168.729 352.396 169.033 352.25 169.35L353.089 169.736ZM353.974 169.092L353.97 170.015C354.032 170.015 354.015 170.026 353.959 170C353.929 169.986 353.889 169.963 353.849 169.927C353.809 169.89 353.776 169.848 353.753 169.804C353.706 169.719 353.711 169.664 353.71 169.687C353.71 169.711 353.705 169.779 353.67 169.903L354.558 170.154L355.446 170.405C355.563 169.991 355.649 169.422 355.37 168.915C355.043 168.321 354.438 168.171 353.978 168.169L353.974 169.092ZM354.558 170.154L353.673 169.891L350.449 180.764L351.334 181.026L352.219 181.289L355.443 170.416L354.558 170.154ZM351.334 181.026L350.445 180.78C350.375 181.032 350.292 181.07 350.274 181.079L350.683 181.906L351.092 182.733C351.703 182.431 352.054 181.883 352.223 181.273L351.334 181.026ZM350.683 181.906L350.274 181.079C350.114 181.158 349.888 181.215 349.568 181.214L349.564 182.137L349.56 183.06C350.102 183.062 350.623 182.965 351.092 182.733L350.683 181.906ZM349.564 182.137L349.568 181.214L331.856 181.138L331.852 182.061L331.848 182.984L349.56 183.06L349.564 182.137ZM361.001 181.185L360.381 181.869L360.387 181.874L360.394 181.88L361.001 181.185ZM358.371 176.937L357.493 177.22L357.494 177.225L358.371 176.937ZM358.843 162.875L359.723 163.156L359.724 163.152L358.843 162.875ZM362.526 154.83L361.738 154.348V154.348L362.526 154.83ZM367.97 147.733L367.302 147.095L367.302 147.096L367.97 147.733ZM374.701 142.289L375.176 143.08L375.18 143.078L374.701 142.289ZM382.246 139.32L382.42 140.226L382.431 140.224L382.442 140.222L382.246 139.32ZM383.064 140.559L383.474 141.386L383.548 141.349L383.615 141.3L383.064 140.559ZM382.357 140.791L382.137 139.895L382.123 139.898L382.11 139.902L382.357 140.791ZM372.92 146.047L373.549 146.722L373.549 146.722L372.92 146.047ZM366.053 155.61L366.877 156.026L366.882 156.016L366.053 155.61ZM366.051 156.198L365.31 156.749L365.349 156.801L365.395 156.848L366.051 156.198ZM366.58 156.141L366.146 155.327L366.108 155.347L366.072 155.371L366.58 156.141ZM368.289 155.56L368.133 154.651L368.123 154.652L368.289 155.56ZM375.927 158.417L375.171 158.946V158.946L375.927 158.417ZM377.107 171.486L376.227 171.207L376.227 171.207L377.107 171.486ZM374.554 176.888L375.325 177.395L375.33 177.387L374.554 176.888ZM370.593 181.108L371.128 181.86L371.134 181.856L371.141 181.851L370.593 181.108ZM368.48 179.981L369.084 180.678L369.086 180.677L368.48 179.981ZM371.024 176.697L371.838 177.132L371.843 177.122L371.024 176.697ZM372.808 172.291L373.691 172.56L373.691 172.56L372.808 172.291ZM373.886 167.765L374.797 167.916L374.797 167.913L373.886 167.765ZM373.16 158.7L372.36 159.16L372.365 159.169L372.371 159.179L373.16 158.7ZM366.396 158.082L365.819 157.362L365.812 157.367L365.805 157.373L366.396 158.082ZM363.792 161.367L362.983 160.923L362.979 160.931L363.792 161.367ZM362.009 165.713L362.892 165.982V165.982L362.009 165.713ZM360.93 170.299L360.019 170.151L360.017 170.163L360.015 170.174L360.93 170.299ZM361.715 179.364L360.919 179.832L360.926 179.843L361.715 179.364ZM365.408 182.734L365.412 181.811C363.837 181.804 362.592 181.349 361.609 180.49L361.001 181.185L360.394 181.88C361.756 183.071 363.448 183.648 365.404 183.657L365.408 182.734ZM361.001 181.185L361.622 180.502C360.587 179.562 359.788 178.292 359.248 176.649L358.371 176.937L357.494 177.225C358.116 179.118 359.071 180.68 360.381 181.869L361.001 181.185ZM358.371 176.937L359.25 176.655C358.703 174.953 358.428 173.05 358.437 170.935L357.514 170.931L356.591 170.927C356.582 173.206 356.878 175.307 357.493 177.22L358.371 176.937ZM357.514 170.931L358.437 170.935C358.448 168.409 358.874 165.817 359.723 163.156L358.843 162.875L357.964 162.595C357.063 165.418 356.603 168.197 356.591 170.927L357.514 170.931ZM358.843 162.875L359.724 163.152C360.575 160.445 361.771 157.832 363.313 155.311L362.526 154.83L361.738 154.348C360.121 156.992 358.861 159.742 357.963 162.599L358.843 162.875ZM362.526 154.83L363.313 155.311C364.86 152.784 366.635 150.47 368.638 148.37L367.97 147.733L367.302 147.096C365.207 149.293 363.352 151.711 361.738 154.348L362.526 154.83ZM367.97 147.733L368.637 148.37C370.673 146.237 372.853 144.475 375.176 143.08L374.701 142.289L374.226 141.498C371.75 142.985 369.443 144.852 367.302 147.095L367.97 147.733ZM374.701 142.289L375.18 143.078C377.532 141.65 379.945 140.703 382.42 140.226L382.246 139.32L382.071 138.414C379.364 138.935 376.747 139.967 374.222 141.5L374.701 142.289ZM382.246 139.32L382.442 140.222C382.564 140.195 382.63 140.194 382.654 140.195C382.676 140.197 382.629 140.198 382.555 140.153C382.518 140.13 382.483 140.1 382.452 140.064C382.422 140.028 382.402 139.994 382.391 139.967C382.37 139.918 382.379 139.907 382.379 139.968L383.302 139.972L384.225 139.976C384.227 139.509 384.081 138.925 383.525 138.582C383.039 138.282 382.475 138.325 382.049 138.418L382.246 139.32ZM383.302 139.972L382.379 139.968C382.379 140.021 382.371 140.016 382.386 139.978C382.395 139.958 382.409 139.93 382.432 139.9C382.455 139.869 382.483 139.841 382.514 139.818L383.064 140.559L383.615 141.3C384.09 140.947 384.223 140.417 384.225 139.976L383.302 139.972ZM383.064 140.559L382.655 139.732C382.589 139.764 382.431 139.823 382.137 139.895L382.357 140.791L382.577 141.688C382.912 141.606 383.225 141.509 383.474 141.386L383.064 140.559ZM382.357 140.791L382.11 139.902C378.357 140.945 375.079 142.769 372.29 145.372L372.92 146.047L373.549 146.722C376.117 144.326 379.13 142.647 382.604 141.681L382.357 140.791ZM372.92 146.047L372.29 145.372C369.516 147.961 367.165 151.244 365.224 155.203L366.053 155.61L366.882 156.016C368.741 152.223 370.967 149.132 373.549 146.722L372.92 146.047ZM366.053 155.61L365.229 155.193C365.016 155.616 364.912 156.214 365.31 156.749L366.051 156.198L366.791 155.647C366.818 155.683 366.844 155.729 366.862 155.784C366.88 155.84 366.887 155.892 366.886 155.937C366.886 156.022 366.861 156.057 366.877 156.026L366.053 155.61ZM366.051 156.198L365.395 156.848C365.666 157.121 366.023 157.227 366.369 157.19C366.666 157.158 366.913 157.028 367.089 156.912L366.58 156.141L366.072 155.371C366.011 155.411 366.053 155.368 366.173 155.355C366.242 155.347 366.338 155.35 366.445 155.387C366.554 155.423 366.642 155.483 366.706 155.548L366.051 156.198ZM366.58 156.141L367.015 156.956C367.434 156.733 367.912 156.568 368.456 156.468L368.289 155.56L368.123 154.652C367.411 154.783 366.75 155.005 366.146 155.327L366.58 156.141ZM368.289 155.56L368.446 156.47C369.072 156.362 369.626 156.312 370.11 156.314L370.114 155.391L370.118 154.468C369.505 154.466 368.842 154.529 368.133 154.651L368.289 155.56ZM370.114 155.391L370.11 156.314C372.285 156.324 373.941 157.188 375.171 158.946L375.927 158.417L376.683 157.888C375.106 155.633 372.886 154.48 370.118 154.468L370.114 155.391ZM375.927 158.417L375.171 158.946C376.433 160.751 377.102 163.197 377.088 166.366L378.011 166.37L378.934 166.374C378.949 162.953 378.228 160.097 376.683 157.888L375.927 158.417ZM378.011 166.37L377.088 166.366C377.082 167.78 376.803 169.391 376.227 171.207L377.107 171.486L377.987 171.765C378.604 169.82 378.927 168.02 378.934 166.374L378.011 166.37ZM377.107 171.486L376.227 171.207C375.656 173.007 374.841 174.734 373.777 176.39L374.554 176.888L375.33 177.387C376.478 175.6 377.365 173.725 377.987 171.765L377.107 171.486ZM374.554 176.888L373.782 176.381C372.733 177.977 371.488 179.303 370.046 180.365L370.593 181.108L371.141 181.851C372.768 180.652 374.163 179.164 375.325 177.395L374.554 176.888ZM370.593 181.108L370.058 180.356C368.684 181.334 367.145 181.818 365.412 181.811L365.408 182.734L365.404 183.657C367.515 183.666 369.433 183.067 371.128 181.86L370.593 181.108ZM365.297 181.203L365.293 182.126C366.708 182.132 367.982 181.635 369.084 180.678L368.48 179.981L367.875 179.284C367.087 179.967 366.239 180.284 365.301 180.28L365.297 181.203ZM368.48 179.981L369.086 180.677C370.167 179.734 371.081 178.546 371.838 177.132L371.024 176.697L370.21 176.262C369.543 177.509 368.761 178.511 367.873 179.286L368.48 179.981ZM371.024 176.697L371.843 177.122C372.582 175.699 373.198 174.178 373.691 172.56L372.808 172.291L371.925 172.022C371.463 173.539 370.889 174.954 370.205 176.271L371.024 176.697ZM372.808 172.291L373.691 172.56C374.179 170.959 374.548 169.411 374.797 167.916L373.886 167.765L372.976 167.613C372.742 169.02 372.392 170.489 371.925 172.022L372.808 172.291ZM373.886 167.765L374.797 167.913C375.044 166.392 375.174 165.047 375.179 163.887L374.256 163.883L373.333 163.879C373.329 164.915 373.212 166.159 372.975 167.617L373.886 167.765ZM374.256 163.883L375.179 163.887C375.189 161.569 374.814 159.646 373.949 158.221L373.16 158.7L372.371 159.179C372.986 160.192 373.342 161.725 373.333 163.879L374.256 163.883ZM373.16 158.7L373.96 158.24C373.084 156.715 371.672 155.946 369.877 155.939L369.873 156.862L369.869 157.784C371.055 157.79 371.835 158.246 372.36 159.16L373.16 158.7ZM369.873 156.862L369.877 155.939C368.368 155.932 367.005 156.412 365.819 157.362L366.396 158.082L366.973 158.803C367.833 158.114 368.788 157.78 369.869 157.784L369.873 156.862ZM366.396 158.082L365.805 157.373C364.715 158.281 363.778 159.473 362.983 160.923L363.792 161.367L364.602 161.81C365.309 160.52 366.108 159.523 366.986 158.792L366.396 158.082ZM363.792 161.367L362.979 160.931C362.236 162.319 361.619 163.825 361.126 165.444L362.009 165.713L362.892 165.982C363.353 164.468 363.925 163.075 364.606 161.802L363.792 161.367ZM362.009 165.713L361.126 165.444C360.637 167.048 360.268 168.617 360.019 170.151L360.93 170.299L361.841 170.447C362.076 169.001 362.425 167.513 362.892 165.982L362.009 165.713ZM360.93 170.299L360.015 170.174C359.809 171.692 359.701 173.048 359.696 174.236L360.619 174.24L361.542 174.244C361.547 173.157 361.646 171.885 361.845 170.423L360.93 170.299ZM360.619 174.24L359.696 174.236C359.686 176.485 360.065 178.378 360.919 179.832L361.715 179.364L362.511 178.896C361.886 177.833 361.533 176.31 361.542 174.244L360.619 174.24ZM361.715 179.364L360.926 179.843C361.861 181.384 363.383 182.118 365.293 182.126L365.297 181.203L365.301 180.28C363.915 180.275 363.049 179.783 362.504 178.885L361.715 179.364Z" fill="white" mask="url(#path-5-outside-1_438_33)"/>
<path d="M192.944 67.7846L192.99 56.8801L195.322 56.8901L195.276 67.7945L192.944 67.7846ZM194.558 62.1271L199.487 56.9078L202.592 56.921L197.39 62.1392L194.558 62.1271ZM199.683 67.8133L194.528 62.127L197.39 62.1392L202.848 67.8268L199.683 67.8133ZM203.873 67.8312L203.92 56.9267L206.252 56.9366L206.206 67.8411L203.873 67.8312ZM205.488 62.1737L210.417 56.9544L213.522 56.9676L208.32 62.1857L205.488 62.1737ZM210.613 67.8599L205.458 62.1735L208.32 62.1857L213.778 67.8734L210.613 67.8599ZM214.803 67.8777L214.85 56.9733L217.864 56.9861L222.669 66.6391L221.926 66.8176L221.968 57.0036L224.24 57.0133L224.193 67.9178L221.179 67.9049L216.374 58.252L217.117 58.0734L217.075 67.8874L214.803 67.8777ZM225.869 64.7141L225.877 62.8967L231.42 62.9203L231.412 64.7377L225.869 64.7141ZM233.069 67.9556L233.116 57.0511L238.295 57.0732C239.103 57.0766 239.794 57.2209 240.368 57.5061C240.953 57.7913 241.4 58.187 241.711 58.6931C242.032 59.1994 242.191 59.7907 242.188 60.4672C242.185 61.1437 242.021 61.7387 241.696 62.2522C241.371 62.7658 240.915 63.1677 240.328 63.458C239.751 63.7383 239.064 63.8767 238.266 63.8733L234.934 63.8591L234.942 62.072L238.153 62.0857C238.688 62.088 239.103 61.9433 239.397 61.6518C239.701 61.3502 239.854 60.957 239.856 60.4724C239.858 59.9878 239.708 59.5984 239.407 59.3043C239.115 59.0102 238.702 58.8621 238.167 58.8598L235.44 58.8482L235.402 67.9655L233.069 67.9556ZM243.245 67.9989L243.291 57.0945L248.471 57.1165C249.279 57.12 249.97 57.2643 250.544 57.5494C251.128 57.8347 251.576 58.2303 251.887 58.7365C252.208 59.2427 252.367 59.8341 252.364 60.5106C252.361 61.187 252.197 61.7821 251.872 62.2956C251.546 62.8092 251.09 63.2111 250.504 63.5014C249.927 63.7817 249.24 63.9201 248.442 63.9167L245.11 63.9025L245.118 62.1154L248.328 62.1291C248.864 62.1313 249.278 61.9867 249.572 61.6951C249.876 61.3935 250.03 61.0004 250.032 60.5158C250.034 60.0311 249.884 59.6417 249.582 59.3476C249.291 59.0536 248.877 58.9054 248.342 58.9031L245.616 58.8915L245.577 68.0089L243.245 67.9989ZM253.42 68.0423L253.467 57.1378L257.102 57.1533L260.086 67.6769L258.768 67.6713L261.842 57.1735L265.492 57.1891L265.446 68.0936L263.144 68.0837L263.187 57.8305L263.581 57.8322L260.584 68.0728L258.176 68.0626L255.296 57.8878L255.675 57.8894L255.632 68.0517L253.42 68.0423ZM274.365 68.283C272.81 68.2764 271.646 67.8474 270.872 66.9959C270.108 66.1344 269.73 64.8858 269.737 63.2502L269.763 57.2073L272.095 57.2172L272.068 63.669C272.064 64.6181 272.268 65.3157 272.68 65.7617C273.092 66.2077 273.661 66.4323 274.388 66.4354C275.115 66.4385 275.687 66.2188 276.103 65.7763C276.518 65.3338 276.728 64.643 276.732 63.7041L276.76 57.2371L279.092 57.247L279.066 63.3202C279.059 64.9357 278.665 66.1709 277.884 67.0258C277.103 67.8706 275.93 68.2897 274.365 68.283ZM285.863 68.332C284.681 68.327 283.668 68.0904 282.821 67.6224C281.975 67.1543 281.322 66.5003 280.861 65.6603C280.41 64.8203 280.187 63.8399 280.192 62.7192C280.197 61.6086 280.433 60.6352 280.901 59.7992C281.369 58.953 282.013 58.2944 282.833 57.8233C283.663 57.3523 284.623 57.1191 285.714 57.1238C286.612 57.1276 287.414 57.2926 288.12 57.6187C288.835 57.9448 289.409 58.3916 289.84 58.9588C290.282 59.516 290.542 60.1633 290.62 60.9008L288.287 60.8908C288.189 60.2947 287.908 59.829 287.445 59.4939C286.992 59.1486 286.423 58.9745 285.736 58.9716C285.1 58.9689 284.544 59.118 284.068 59.4189C283.592 59.7097 283.222 60.1322 282.957 60.6864C282.692 61.2406 282.558 61.9064 282.555 62.6838C282.551 63.4916 282.68 64.1838 282.94 64.7604C283.2 65.3269 283.582 65.7627 284.085 66.0678C284.599 66.3628 285.229 66.5119 285.976 66.515C286.582 66.5176 287.097 66.4441 287.522 66.2945C287.947 66.1448 288.271 65.9342 288.494 65.6625L290.702 66.5503C290.114 67.1334 289.43 67.5798 288.651 67.8895C287.883 68.1892 286.953 68.3367 285.863 68.332ZM288.369 66.5404L288.382 63.5417L288.85 64.0132L285.972 64.0009L285.98 62.2138L290.72 62.234L290.702 66.5503L288.369 66.5404ZM292.023 68.2068L292.069 57.3023L295.704 57.3178L298.688 67.8414L297.371 67.8358L300.444 57.338L304.094 57.3536L304.048 68.2581L301.746 68.2482L301.79 57.995L302.183 57.9967L299.186 68.2373L296.778 68.2271L293.899 58.0522L294.277 58.0539L294.234 68.2162L292.023 68.2068ZM308.44 68.2768L308.486 57.3723L313.666 57.3944C314.474 57.3978 315.165 57.5421 315.739 57.8273C316.323 58.1125 316.771 58.5082 317.082 59.0143C317.403 59.5205 317.562 60.1119 317.559 60.7884C317.556 61.4649 317.392 62.0599 317.067 62.5734C316.741 63.087 316.285 63.4889 315.698 63.7792C315.122 64.0595 314.435 64.1979 313.637 64.1945L310.305 64.1803L310.313 62.3932L313.523 62.4069C314.059 62.4092 314.473 62.2645 314.767 61.973C315.071 61.6713 315.224 61.2782 315.227 60.7936C315.229 60.3089 315.079 59.9196 314.777 59.6255C314.486 59.3314 314.072 59.1832 313.537 59.181L310.811 59.1694L310.772 68.2867L308.44 68.2768ZM318.615 68.3201L318.662 57.4157L320.994 57.4256L320.948 68.3301L318.615 68.3201ZM319.706 68.3248L319.713 66.5377L326.741 66.5676L326.733 68.3547L319.706 68.3248ZM319.726 63.6298L319.733 61.873L326.231 61.9006L326.223 63.6575L319.726 63.6298ZM319.745 59.2074L319.752 57.4203L326.598 57.4495L326.59 59.2366L319.745 59.2074ZM327.932 68.3598L327.978 57.4554L332.855 57.4761C333.643 57.4795 334.329 57.6187 334.913 57.8938C335.497 58.1588 335.95 58.5344 336.271 59.0204C336.592 59.5064 336.751 60.0725 336.749 60.7187C336.746 61.3548 336.582 61.9145 336.257 62.3977C335.932 62.8709 335.476 63.2425 334.889 63.5127C334.302 63.7727 333.615 63.901 332.828 63.8977L329.799 63.8848L329.806 62.1734L332.774 62.186C333.33 62.1884 333.754 62.064 334.048 61.8128C334.352 61.5516 334.505 61.1887 334.507 60.7243C334.509 60.2497 334.364 59.8907 334.073 59.6471C333.781 59.3934 333.352 59.2654 332.787 59.263L330.303 59.2524L330.264 68.3698L327.932 68.3598ZM334.081 68.386L329.728 62.7031L332.197 62.7136L337.231 68.3995L334.081 68.386ZM338.109 68.4032L338.155 57.4987L340.488 57.5087L340.441 68.4131L338.109 68.4032ZM347.239 68.5936C346.432 68.5901 345.685 68.4506 345 68.1751C344.324 67.8996 343.735 67.5134 343.232 67.0165C342.74 66.5096 342.354 65.9122 342.074 65.2244C341.804 64.5266 341.671 63.7586 341.675 62.9206C341.68 61.81 341.921 60.8417 342.399 60.0158C342.877 59.1798 343.536 58.5313 344.376 58.0705C345.226 57.6096 346.192 57.3815 347.272 57.3861C348.372 57.3908 349.341 57.6272 350.177 58.0952C351.013 58.5632 351.666 59.2172 352.137 60.0573C352.618 60.8974 352.857 61.8728 352.852 62.9834C352.848 63.8113 352.704 64.573 352.418 65.2685C352.142 65.9539 351.751 66.548 351.244 67.0507C350.747 67.5433 350.155 67.9244 349.467 68.1941C348.79 68.4639 348.047 68.597 347.239 68.5936ZM347.232 66.7458C347.868 66.7485 348.429 66.5893 348.915 66.2683C349.401 65.9473 349.782 65.5046 350.057 64.9404C350.342 64.3661 350.486 63.7003 350.489 62.943C350.492 62.1959 350.359 61.5441 350.089 60.9876C349.818 60.4311 349.442 60.0004 348.958 59.6954C348.475 59.3904 347.91 59.2366 347.264 59.2338C346.628 59.2311 346.067 59.3802 345.581 59.681C345.095 59.9818 344.715 60.4093 344.44 60.9635C344.175 61.5076 344.041 62.1583 344.037 62.9155C344.034 63.6829 344.168 64.3549 344.438 64.9316C344.708 65.4982 345.085 65.944 345.568 66.2692C346.051 66.5843 346.606 66.7431 347.232 66.7458ZM355.461 68.4771L355.469 66.6597L358.226 66.6715C359.013 66.6748 359.68 66.5212 360.227 66.2105C360.783 65.8898 361.204 65.4523 361.489 64.8982C361.785 64.3442 361.934 63.7087 361.937 62.9918C361.94 62.285 361.801 61.6635 361.521 61.1272C361.24 60.5908 360.823 60.17 360.269 59.8648C359.725 59.5595 359.054 59.4052 358.257 59.4018L355.546 59.3903L355.553 57.5729L358.264 57.5844C359.486 57.5896 360.55 57.8163 361.457 58.2644C362.364 58.7024 363.063 59.3314 363.554 60.1514C364.056 60.9613 364.304 61.9215 364.299 63.0322C364.295 64.1428 364.038 65.111 363.53 65.9368C363.021 66.7525 362.312 67.3856 361.401 67.8361C360.501 68.2765 359.445 68.4941 358.233 68.489L355.461 68.4771ZM354.038 68.4711L354.084 57.5666L356.417 57.5765L356.37 68.481L354.038 68.4711ZM365.485 68.5199L365.532 57.6154L367.864 57.6253L367.818 68.5298L365.485 68.5199ZM366.576 68.5245L366.583 66.7374L373.611 66.7673L373.603 68.5545L366.576 68.5245ZM366.596 63.8295L366.603 62.0727L373.101 62.1004L373.093 63.8572L366.596 63.8295ZM366.615 59.4072L366.622 57.62L373.468 57.6492L373.46 59.4363L366.615 59.4072ZM377.85 68.5725L377.896 57.6681L380.229 57.678L380.182 68.5825L377.85 68.5725ZM381.695 68.5889L381.742 57.6845L384.074 57.6944L384.028 68.5989L381.695 68.5889Z" fill="white"/>
</g>
<g filter="url(#filter1_d_438_33)">
<path d="M532.404 172.156C532.404 167.325 528.487 163.408 523.655 163.408C518.824 163.408 514.907 167.325 514.907 172.156V172.801C513.149 169.799 509.889 167.782 506.159 167.782C500.564 167.782 496.028 172.317 496.028 177.912V181.141C493.573 175.707 488.105 171.926 481.755 171.926C475.404 171.926 469.937 175.707 467.481 181.141V177.912C467.481 172.317 462.946 167.782 457.351 167.782C453.621 167.782 450.361 169.799 448.603 172.801V172.156C448.603 167.325 444.686 163.408 439.854 163.408C435.023 163.408 431.106 167.325 431.106 172.156V194.949C431.106 199.78 435.023 203.697 439.854 203.697C442.947 203.697 445.666 202.092 447.221 199.669V203.006C447.221 208.601 451.757 213.137 457.351 213.137C461.082 213.137 464.342 211.12 466.1 208.117V211.41C466.1 220.056 473.109 227.065 481.755 227.065C490.401 227.065 497.41 220.056 497.41 211.41V208.117C499.168 211.12 502.428 213.137 506.159 213.137C511.753 213.137 516.289 208.601 516.289 203.006V199.67C517.844 202.092 520.562 203.697 523.655 203.697C528.487 203.697 532.404 199.78 532.404 194.949V172.156ZM534.287 194.949C534.287 200.82 529.527 205.581 523.655 205.581C521.63 205.581 519.738 205.014 518.128 204.032C517.612 210.136 512.533 214.94 506.314 215.019L506.159 215.02C503.58 215.02 501.193 214.207 499.237 212.825C498.516 221.85 490.965 228.948 481.755 228.948C472.545 228.948 464.994 221.85 464.273 212.825C462.37 214.17 460.058 214.976 457.559 215.018L457.351 215.02C451.062 215.02 445.902 210.187 445.381 204.032C443.771 205.014 441.879 205.581 439.854 205.581C433.983 205.581 429.223 200.82 429.223 194.949V172.156C429.223 166.285 433.983 161.525 439.854 161.525C444.452 161.525 448.368 164.443 449.851 168.528C451.905 166.884 454.513 165.899 457.351 165.899C463.135 165.899 467.964 169.987 469.108 175.431C472.298 172.111 476.784 170.043 481.755 170.043C486.726 170.043 491.212 172.111 494.402 175.431C495.545 169.987 500.375 165.899 506.159 165.899C508.997 165.899 511.604 166.884 513.659 168.528C515.142 164.443 519.058 161.525 523.655 161.525C529.527 161.525 534.287 166.285 534.287 172.156V194.949Z" fill="#28547A"/>
<path d="M432.939 180.047V93.4593C432.939 66.4927 454.788 44.6317 481.739 44.6317C508.691 44.6317 530.539 66.4927 530.539 93.4593V180.047C530.539 181.087 531.38 181.93 532.418 181.93C533.455 181.93 534.296 181.087 534.296 180.047V93.4593C534.296 64.4059 510.759 40.8655 481.739 40.8655C452.719 40.8655 429.182 64.4059 429.182 93.4593V180.047C429.182 181.087 430.023 181.93 431.061 181.93C432.098 181.93 432.939 181.087 432.939 180.047Z" fill="#E87400"/>
<path d="M481.64 23.0609C492.49 23.0609 501.286 31.8572 501.286 42.7074C501.286 53.5578 492.49 62.3539 481.64 62.3539C470.789 62.3537 461.993 53.5577 461.993 42.7074C461.993 31.8573 470.789 23.0611 481.64 23.0609Z" stroke="#E87400" stroke-width="1.71195"/>
<mask id="mask0_438_33" style="mask-type:alpha" maskUnits="userSpaceOnUse" x="430" y="42" width="103" height="143">
<path d="M481.64 42.749C453.585 42.749 430.836 65.4502 430.836 93.4607V184.502H532.443V93.4607C532.443 65.4502 509.694 42.749 481.64 42.749ZM481.64 44.5908C508.68 44.5908 530.601 66.4706 530.601 93.4607V182.66H432.678V93.4607C432.678 66.4706 454.599 44.5908 481.64 44.5908Z" fill="white"/>
<path d="M481.64 44.5908C508.68 44.5908 530.601 66.4706 530.601 93.4607V182.66H432.678V93.4607C432.678 66.4706 454.599 44.5908 481.64 44.5908Z" fill="white"/>
</mask>
<g mask="url(#mask0_438_33)">
<path d="M430.623 90.5568L471.282 43.9061H430.623V90.5568Z" fill="#E97400"/>
<path d="M471.282 43.9061L430.623 90.5568V98.7742H443.12L474.278 43.9061H471.282Z" fill="#F8B316"/>
<path d="M474.278 43.9061L443.12 98.7742H462.294L477.445 43.9061H474.278Z" fill="#E97400"/>
<path d="M477.445 43.9061L462.294 98.7742H474.278L480.184 43.9061H477.445Z" fill="#F8B316"/>
<path d="M532.656 90.5568L491.997 43.9061H532.656V90.5568Z" fill="#E97400"/>
<path d="M491.997 43.9061L532.656 90.5568V98.7742H520.158L489.001 43.9061H491.997Z" fill="#F8B316"/>
<path d="M489.001 43.9061L520.158 98.7742H500.984L485.834 43.9061H489.001Z" fill="#E97400"/>
<path d="M485.834 43.9061L500.984 98.7742H489.001L483.095 43.9061H485.834Z" fill="#F8B316"/>
<path d="M480.184 43.9061L474.278 98.7742H481.639H489.001L483.095 43.9061H481.639H480.184Z" fill="#E97400"/>
</g>
<g filter="url(#filter2_d_438_33)">
<path d="M459.556 84.3698L477.702 73.8928C480.139 72.4861 483.141 72.4861 485.577 73.8928L503.724 84.3698V90.6648V102.086H459.556V90.6648V84.3698Z" fill="#FFD23F"/>
<path d="M504.494 84.8145L503.724 84.3698V90.6648L510.229 88.1257L504.494 84.8145Z" fill="#FFD23F"/>
<path d="M459.556 84.3698L453.05 88.1257L459.556 90.6648V84.3698Z" fill="#FFD23F"/>
<g filter="url(#filter3_d_438_33)">
<path d="M430.966 100.729C430.966 97.9157 432.296 95.316 434.732 93.9092L448.941 85.7056C451.378 84.2988 454.38 84.2988 456.816 85.7056L471.026 93.9092C473.462 95.316 474.963 97.9157 474.963 100.729V108.68C474.963 113.029 471.437 120.492 467.088 120.492H430.966C430.966 120.492 430.966 113.029 430.966 108.68V104.72V100.729Z" fill="#FFE079"/>
</g>
<g filter="url(#filter4_d_438_33)">
<path d="M532.313 100.729C532.313 97.9157 530.984 95.316 528.547 93.9092L514.338 85.7056C511.901 84.2988 508.899 84.2988 506.463 85.7056L492.254 93.9092C489.817 95.316 488.316 97.9157 488.316 100.729V108.68C488.316 113.029 491.842 120.492 496.191 120.492H532.313C532.313 120.492 532.313 113.029 532.313 108.68V104.72V100.729Z" fill="#FFE079"/>
</g>
</g>
<g filter="url(#filter5_d_438_33)">
<path d="M459.556 105.256L477.702 94.7788C480.139 93.3721 483.141 93.3721 485.577 94.7788L503.724 105.256V111.551V115.365C503.724 120.543 498.812 124.312 493.811 122.972L459.556 113.793V112.768V105.256Z" fill="#FFD85D"/>
<path d="M504.494 105.7L503.724 105.256V111.551L510.229 109.012L504.494 105.7Z" fill="#FFD85D"/>
<path d="M459.556 105.256L453.05 109.012L459.556 112.768V105.256Z" fill="#FFD85D"/>
<g filter="url(#filter6_d_438_33)">
<path d="M430.966 121.615C430.966 118.801 432.296 116.202 434.732 114.795L448.941 106.591C451.378 105.184 454.38 105.184 456.816 106.591L471.026 114.795C473.462 116.202 474.963 118.801 474.963 121.615V129.565C474.963 133.915 471.437 141.378 467.088 141.378H430.966C430.966 141.378 430.966 133.915 430.966 129.565V125.606V121.615Z" fill="#FFE48B"/>
</g>
<g filter="url(#filter7_d_438_33)">
<path d="M532.313 121.615C532.313 118.801 530.984 116.202 528.547 114.795L514.338 106.591C511.901 105.184 508.899 105.184 506.463 106.591L492.254 114.795C489.817 116.202 488.316 118.801 488.316 121.615V129.565C488.316 133.915 491.842 141.378 496.191 141.378H532.313C532.313 141.378 532.313 133.915 532.313 129.565V125.606V121.615Z" fill="#FFE48B"/>
</g>
</g>
<path d="M459.556 129.566L477.702 119.089C480.139 117.682 483.141 117.682 485.577 119.089L503.724 129.566V135.861V139.675C503.724 144.853 498.812 148.622 493.811 147.282L459.556 138.103V137.078V129.566Z" fill="#FFE07B"/>
<path d="M504.494 130.01L503.724 129.566V135.861L510.229 133.322L504.494 130.01Z" fill="#FFE07B"/>
<path d="M459.556 129.566L453.05 133.322L459.556 137.078V129.566Z" fill="#FFE07B"/>
<path d="M430.966 145.925C430.966 143.111 432.296 140.512 434.732 139.105L448.941 130.901C451.378 129.494 454.38 129.494 456.816 130.901L471.026 139.105C473.462 140.512 474.963 143.111 474.963 145.925V153.875C474.963 158.225 471.437 161.75 467.088 161.75H430.966C430.966 161.75 430.966 158.225 430.966 153.875V149.915V145.925Z" fill="#FFE591"/>
<path d="M532.313 145.925C532.313 143.111 530.812 140.512 528.376 139.105L514.167 130.901C511.73 129.494 508.728 129.494 506.292 130.901L492.082 139.105C489.646 140.512 488.145 143.111 488.145 145.925V153.875C488.145 158.225 491.671 161.75 496.02 161.75H532.313C532.313 161.75 532.313 158.225 532.313 153.875V149.915V145.925Z" fill="#FBE08B"/>
<g filter="url(#filter8_d_438_33)">
<path d="M459.556 150.643L477.702 140.166C480.139 138.759 483.141 138.759 485.577 140.166L503.724 150.643V156.938V160.752C503.724 165.93 498.812 169.699 493.811 168.359L459.556 159.18V158.154V150.643Z" fill="#FFECAC"/>
<path d="M504.494 151.087L503.724 150.643V156.938L510.229 154.399L504.494 151.087Z" fill="#FFECAC"/>
<path d="M459.556 150.643L453.05 154.399L459.556 158.154V150.643Z" fill="#FFECAC"/>
<path d="M430.795 166.12C430.795 163.852 432.005 161.756 433.969 160.622L448.941 151.978C451.378 150.571 454.38 150.571 456.816 151.978L471.025 160.182C473.462 161.588 474.963 164.188 474.963 167.002V172.564C474.963 177.742 470.051 181.511 465.05 180.171L435.5 172.253C432.725 171.509 430.795 168.994 430.795 166.12Z" fill="#FFF2C4"/>
<g filter="url(#filter9_d_438_33)">
<path d="M532.313 166.12C532.313 163.852 531.103 161.756 529.139 160.622L514.167 151.978C511.73 150.571 508.728 150.571 506.292 151.978L492.082 160.182C489.646 161.588 488.145 164.188 488.145 167.002V172.564C488.145 177.742 493.057 181.511 498.058 180.171L527.608 172.253C530.383 171.509 532.313 168.994 532.313 166.12Z" fill="#FFF2C4"/>
</g>
</g>
<path d="M481.64 43.6697C454.092 43.6698 431.757 65.9605 431.757 93.4608V181.355H531.523V93.4608C531.523 65.9604 509.188 43.6697 481.64 43.6697Z" stroke="white" stroke-width="1.84178" stroke-linecap="round"/>
<mask id="mask1_438_33" style="mask-type:alpha" maskUnits="userSpaceOnUse" x="423" y="178" width="118" height="60">
<path d="M423.278 178.833H540.922V237.079H423.278V178.833Z" fill="#D9D9D9"/>
</mask>
<g mask="url(#mask1_438_33)">
<path d="M481.755 172.847C473.617 172.847 467.02 179.444 467.02 187.582V211.41C467.02 219.547 473.617 226.144 481.755 226.144C489.892 226.144 496.489 219.547 496.489 211.41V187.582C496.489 179.444 489.892 172.847 481.755 172.847Z" fill="#28547A" stroke="white" stroke-width="1.84178" stroke-linecap="round"/>
<path d="M439.854 164.329C444.177 164.329 447.682 167.833 447.682 172.156V194.949C447.682 199.272 444.177 202.776 439.854 202.776C435.531 202.776 432.027 199.272 432.026 194.949V172.156C432.027 167.833 435.531 164.329 439.854 164.329Z" fill="#28547A" stroke="white" stroke-width="1.84178" stroke-linecap="round"/>
<path d="M457.352 168.703C462.438 168.703 466.561 172.826 466.561 177.912V203.006C466.561 208.092 462.438 212.215 457.352 212.215C452.266 212.215 448.143 208.092 448.143 203.006V177.912C448.143 172.826 452.266 168.703 457.352 168.703Z" fill="#92B7CF" stroke="white" stroke-width="1.84178" stroke-linecap="round"/>
<path d="M523.655 164.329C519.332 164.329 515.828 167.833 515.827 172.156V194.949C515.828 199.272 519.333 202.776 523.655 202.776C527.978 202.776 531.482 199.272 531.483 194.949V172.156C531.482 167.833 527.978 164.329 523.655 164.329Z" fill="#28547A" stroke="white" stroke-width="1.84178" stroke-linecap="round"/>
<path d="M506.158 168.703C501.072 168.703 496.949 172.826 496.949 177.912V203.006C496.949 208.092 501.072 212.215 506.158 212.215C511.244 212.215 515.367 208.092 515.367 203.006V177.912C515.367 172.826 511.244 168.703 506.158 168.703Z" fill="#92B7CF" stroke="white" stroke-width="1.84178" stroke-linecap="round"/>
</g>
<path d="M465.646 172.962C471.623 160.11 471.056 143.724 465.646 133.134L481.877 142.458V187.697L465.646 172.962Z" fill="url(#paint2_linear_438_33)"/>
<path d="M498.148 172.968C492.171 160.116 492.737 143.73 498.148 133.14L481.877 142.458V187.697L498.148 172.968Z" fill="url(#paint3_linear_438_33)"/>
<path d="M497.525 172.841C491.307 176.686 485.89 181.666 481.87 187.697C487.061 185.696 491.83 183.925 496.368 182.319C495.814 179.869 496.167 176.873 497.525 172.841Z" fill="#83740F"/>
<path d="M481.87 187.697C489.136 190.465 496.922 191.621 504.662 191.305C500.076 188.44 497.2 185.995 496.368 182.319C491.83 183.925 487.061 185.696 481.87 187.697Z" fill="#988B19"/>
<path d="M516.634 165.088C509.888 166.628 503.355 169.236 497.525 172.841C496.167 176.873 495.814 179.869 496.368 182.319C501.869 180.371 507.032 178.665 512.201 177.082C511.34 173.005 512.441 168.479 516.634 165.088Z" fill="#988B19"/>
<path d="M504.662 191.305C511.422 191.03 518.148 189.632 524.461 187.206C518.576 187.731 513.42 182.856 512.201 177.082C507.032 178.665 501.869 180.371 496.368 182.319C497.2 185.995 500.076 188.44 504.662 191.305Z" fill="#AE9D24"/>
<path d="M531.828 163.453C526.781 163.389 521.649 163.943 516.634 165.088C512.441 168.479 511.34 173.005 512.201 177.082C517.879 175.342 523.563 173.751 529.71 172.152C529.175 169.258 530.035 166.069 531.828 163.453Z" fill="#AE9D24"/>
<path d="M524.461 187.206C529.354 185.325 534 182.827 538.223 179.754C532.926 178.586 530.342 175.574 529.71 172.152C523.563 173.751 517.879 175.342 512.201 177.082C513.42 182.856 518.576 187.731 524.461 187.206Z" fill="#C0AE30"/>
<path d="M550.822 166.977C544.943 164.69 538.459 163.538 531.828 163.453C530.035 166.069 529.175 169.258 529.71 172.152C536.082 170.494 542.95 168.827 550.822 166.977Z" fill="#DBC210"/>
<path d="M538.223 179.754C543.067 176.229 547.355 171.948 550.822 166.977C542.95 168.827 536.082 170.494 529.71 172.152C530.342 175.574 532.926 178.586 538.223 179.754Z" fill="#ECD216"/>
<path d="M466.215 172.841C472.433 176.686 477.85 181.666 481.87 187.697C476.679 185.696 471.91 183.925 467.372 182.319C467.926 179.869 467.573 176.873 466.215 172.841Z" fill="#83740F"/>
<path d="M481.87 187.697C474.604 190.465 466.818 191.621 459.078 191.305C463.664 188.44 466.54 185.995 467.372 182.319C471.91 183.925 476.679 185.696 481.87 187.697Z" fill="#988B19"/>
<path d="M447.106 165.088C453.852 166.628 460.385 169.236 466.215 172.841C467.573 176.873 467.926 179.869 467.372 182.319C461.871 180.371 456.708 178.665 451.539 177.082C452.4 173.005 451.299 168.479 447.106 165.088Z" fill="#988B19"/>
<path d="M459.078 191.305C452.318 191.03 445.592 189.632 439.279 187.206C445.164 187.731 450.32 182.856 451.539 177.082C456.708 178.665 461.871 180.371 467.372 182.319C466.54 185.995 463.664 188.44 459.078 191.305Z" fill="#AE9D24"/>
<path d="M431.912 163.453C436.959 163.389 442.091 163.943 447.106 165.088C451.299 168.479 452.4 173.005 451.539 177.082C445.861 175.342 440.177 173.751 434.03 172.152C434.565 169.258 433.705 166.069 431.912 163.453Z" fill="#AE9D24"/>
<path d="M439.279 187.206C434.386 185.325 429.74 182.827 425.517 179.754C430.814 178.586 433.398 175.574 434.03 172.152C440.177 173.751 445.861 175.342 451.539 177.082C450.32 182.856 445.164 187.731 439.279 187.206Z" fill="#C0AE30"/>
<path d="M412.918 166.977C418.797 164.69 425.281 163.538 431.912 163.453C433.705 166.069 434.565 169.258 434.03 172.152C427.658 170.494 420.79 168.827 412.918 166.977Z" fill="#DBC210"/>
<path d="M425.517 179.754C420.673 176.229 416.385 171.948 412.918 166.977C420.79 168.827 427.658 170.494 434.03 172.152C433.398 175.574 430.814 178.586 425.517 179.754Z" fill="#ECD216"/>
<path d="M449.198 135.067C449.387 135.067 449.541 135.221 449.541 135.41V151.759C449.541 151.948 449.694 152.101 449.883 152.101H460.326C460.515 152.101 460.668 151.948 460.668 151.759V135.41C460.668 135.221 460.822 135.067 461.011 135.067H461.353C461.542 135.067 461.696 135.221 461.696 135.41V155.268H455.105H448.514V135.41C448.514 135.221 448.667 135.067 448.856 135.067H449.198Z" fill="#734D2A"/>
<path d="M461.696 155.268H455.105H448.514V157.922C448.514 158.111 448.667 158.264 448.856 158.264H461.353C461.542 158.264 461.696 158.111 461.696 157.922V155.268Z" fill="#5E4126"/>
<path d="M481.64 99.406C471.51 99.406 461.266 105.046 461.266 117.594V123.004H502.015V117.594C502.015 105.046 491.77 99.406 481.64 99.406Z" fill="url(#paint4_linear_438_33)"/>
<path d="M502.014 108.615C491.885 108.615 481.64 114.256 481.64 126.803V132.213H522.389V126.803C522.389 114.256 512.144 108.615 502.014 108.615Z" fill="url(#paint5_linear_438_33)"/>
<path d="M461.38 108.615C451.251 108.615 441.006 114.256 441.006 126.803V132.213H481.755V126.803C481.755 114.256 471.51 108.615 461.38 108.615Z" fill="url(#paint6_linear_438_33)"/>
<path d="M460.92 136.242H481.295H501.669C501.669 123.695 491.424 118.054 481.295 118.054C471.165 118.054 460.92 123.695 460.92 136.242Z" fill="url(#paint7_linear_438_33)"/>
<path d="M499.578 134.187C499.47 135.317 500.402 136.242 501.536 136.242H519.857H538.177C539.312 136.242 540.243 135.317 540.136 134.187C539.078 123.077 529.416 118.054 519.857 118.054C510.297 118.054 500.636 123.077 499.578 134.187Z" fill="url(#paint8_linear_438_33)"/>
<path d="M422.453 134.187C422.346 135.317 423.278 136.242 424.412 136.242H442.733H461.053C462.187 136.242 463.119 135.317 463.012 134.187C461.954 123.077 452.292 118.054 442.733 118.054C433.173 118.054 423.511 123.077 422.453 134.187Z" fill="url(#paint9_linear_438_33)"/>
<circle cx="481.64" cy="42.7077" r="17.8694" fill="#FFC020" stroke="white" stroke-width="1.84206"/>
<circle cx="481.568" cy="42.7488" r="16.9483" fill="#E97400"/>
<circle cx="481.567" cy="42.7486" r="11.2989" fill="#FFBA1E" stroke="#FC9704" stroke-width="3.7663"/>
<path d="M444.589 37.9552V40.5659V43.1767L458.884 40.5659L444.589 37.9552Z" fill="#E87400"/>
<path d="M519.059 37.9552V40.5659V43.1767L504.764 40.5659L519.059 37.9552Z" fill="#E87400"/>
<path d="M458.199 13.0464L456.359 14.9295L454.518 16.8127L466.288 24.8589L458.199 13.0464Z" fill="#E87400"/>
<path d="M505.577 13.0464L507.418 14.9295L509.258 16.8127L497.489 24.8589L505.577 13.0464Z" fill="#E87400"/>
<path d="M479.171 4.40118H481.824H484.478L481.824 18.4392L479.171 4.40118Z" fill="#E87400"/>
</g>
<defs>
<filter id="filter0_d_438_33" x="-3.45707e-05" y="34.2576" width="387.564" height="168.958" filterUnits="userSpaceOnUse" color-interpolation-filters="sRGB">
<feFlood flood-opacity="0" result="BackgroundImageFix"/>
<feColorMatrix in="SourceAlpha" type="matrix" values="0 0 0 0 0 0 0 0 0 0 0 0 0 0 0 0 0 0 127 0" result="hardAlpha"/>
<feOffset dy="2.93412"/>
<feGaussianBlur stdDeviation="1.46706"/>
<feComposite in2="hardAlpha" operator="out"/>
<feColorMatrix type="matrix" values="0 0 0 0 0 0 0 0 0 0 0 0 0 0 0 0 0 0 0.25 0"/>
<feBlend mode="normal" in2="BackgroundImageFix" result="effect1_dropShadow_438_33"/>
<feBlend mode="normal" in="SourceGraphic" in2="effect1_dropShadow_438_33" result="shape"/>
</filter>
<filter id="filter1_d_438_33" x="405.583" y="9.29832e-06" width="152.574" height="239.217" filterUnits="userSpaceOnUse" color-interpolation-filters="sRGB">
<feFlood flood-opacity="0" result="BackgroundImageFix"/>
<feColorMatrix in="SourceAlpha" type="matrix" values="0 0 0 0 0 0 0 0 0 0 0 0 0 0 0 0 0 0 127 0" result="hardAlpha"/>
<feOffset dy="2.93412"/>
<feGaussianBlur stdDeviation="3.66765"/>
<feComposite in2="hardAlpha" operator="out"/>
<feColorMatrix type="matrix" values="0 0 0 0 0 0 0 0 0 0 0 0 0 0 0 0 0 0 0.25 0"/>
<feBlend mode="normal" in2="BackgroundImageFix" result="effect1_dropShadow_438_33"/>
<feBlend mode="normal" in="SourceGraphic" in2="effect1_dropShadow_438_33" result="shape"/>
</filter>
<filter id="filter2_d_438_33" x="430.281" y="72.8378" width="102.717" height="49.0241" filterUnits="userSpaceOnUse" color-interpolation-filters="sRGB">
<feFlood flood-opacity="0" result="BackgroundImageFix"/>
<feColorMatrix in="SourceAlpha" type="matrix" values="0 0 0 0 0 0 0 0 0 0 0 0 0 0 0 0 0 0 127 0" result="hardAlpha"/>
<feOffset dy="0.684781"/>
<feGaussianBlur stdDeviation="0.342391"/>
<feComposite in2="hardAlpha" operator="out"/>
<feColorMatrix type="matrix" values="0 0 0 0 0 0 0 0 0 0 0 0 0 0 0 0 0 0 0.25 0"/>
<feBlend mode="normal" in2="BackgroundImageFix" result="effect1_dropShadow_438_33"/>
<feBlend mode="normal" in="SourceGraphic" in2="effect1_dropShadow_438_33" result="shape"/>
</filter>
<filter id="filter3_d_438_33" x="429.254" y="82.2538" width="47.421" height="39.2657" filterUnits="userSpaceOnUse" color-interpolation-filters="sRGB">
<feFlood flood-opacity="0" result="BackgroundImageFix"/>
<feColorMatrix in="SourceAlpha" type="matrix" values="0 0 0 0 0 0 0 0 0 0 0 0 0 0 0 0 0 0 127 0" result="hardAlpha"/>
<feOffset dy="-0.684781"/>
<feGaussianBlur stdDeviation="0.855977"/>
<feComposite in2="hardAlpha" operator="out"/>
<feColorMatrix type="matrix" values="0 0 0 0 0.870192 0 0 0 0 0.687726 0 0 0 0 0.0990121 0 0 0 0.4 0"/>
<feBlend mode="normal" in2="BackgroundImageFix" result="effect1_dropShadow_438_33"/>
<feBlend mode="normal" in="SourceGraphic" in2="effect1_dropShadow_438_33" result="shape"/>
</filter>
<filter id="filter4_d_438_33" x="486.604" y="82.2538" width="47.421" height="39.2657" filterUnits="userSpaceOnUse" color-interpolation-filters="sRGB">
<feFlood flood-opacity="0" result="BackgroundImageFix"/>
<feColorMatrix in="SourceAlpha" type="matrix" values="0 0 0 0 0 0 0 0 0 0 0 0 0 0 0 0 0 0 127 0" result="hardAlpha"/>
<feOffset dy="-0.684781"/>
<feGaussianBlur stdDeviation="0.855977"/>
<feComposite in2="hardAlpha" operator="out"/>
<feColorMatrix type="matrix" values="0 0 0 0 0.870192 0 0 0 0 0.687726 0 0 0 0 0.0990121 0 0 0 0.4 0"/>
<feBlend mode="normal" in2="BackgroundImageFix" result="effect1_dropShadow_438_33"/>
<feBlend mode="normal" in="SourceGraphic" in2="effect1_dropShadow_438_33" result="shape"/>
</filter>
<filter id="filter5_d_438_33" x="429.254" y="91.327" width="104.771" height="51.0781" filterUnits="userSpaceOnUse" color-interpolation-filters="sRGB">
<feFlood flood-opacity="0" result="BackgroundImageFix"/>
<feColorMatrix in="SourceAlpha" type="matrix" values="0 0 0 0 0 0 0 0 0 0 0 0 0 0 0 0 0 0 127 0" result="hardAlpha"/>
<feOffset dy="-0.684781"/>
<feGaussianBlur stdDeviation="0.855977"/>
<feComposite in2="hardAlpha" operator="out"/>
<feColorMatrix type="matrix" values="0 0 0 0 0.578526 0 0 0 0 0.514883 0 0 0 0 0.0547002 0 0 0 0.2 0"/>
<feBlend mode="normal" in2="BackgroundImageFix" result="effect1_dropShadow_438_33"/>
<feBlend mode="normal" in="SourceGraphic" in2="effect1_dropShadow_438_33" result="shape"/>
</filter>
<filter id="filter6_d_438_33" x="429.254" y="103.139" width="47.421" height="39.2657" filterUnits="userSpaceOnUse" color-interpolation-filters="sRGB">
<feFlood flood-opacity="0" result="BackgroundImageFix"/>
<feColorMatrix in="SourceAlpha" type="matrix" values="0 0 0 0 0 0 0 0 0 0 0 0 0 0 0 0 0 0 127 0" result="hardAlpha"/>
<feOffset dy="-0.684781"/>
<feGaussianBlur stdDeviation="0.855977"/>
<feComposite in2="hardAlpha" operator="out"/>
<feColorMatrix type="matrix" values="0 0 0 0 0.850962 0 0 0 0 0.719969 0 0 0 0 0.306837 0 0 0 0.2 0"/>
<feBlend mode="normal" in2="BackgroundImageFix" result="effect1_dropShadow_438_33"/>
<feBlend mode="normal" in="SourceGraphic" in2="effect1_dropShadow_438_33" result="shape"/>
</filter>
<filter id="filter7_d_438_33" x="486.604" y="103.139" width="47.421" height="39.2657" filterUnits="userSpaceOnUse" color-interpolation-filters="sRGB">
<feFlood flood-opacity="0" result="BackgroundImageFix"/>
<feColorMatrix in="SourceAlpha" type="matrix" values="0 0 0 0 0 0 0 0 0 0 0 0 0 0 0 0 0 0 127 0" result="hardAlpha"/>
<feOffset dy="-0.684781"/>
<feGaussianBlur stdDeviation="0.855977"/>
<feComposite in2="hardAlpha" operator="out"/>
<feColorMatrix type="matrix" values="0 0 0 0 0.850962 0 0 0 0 0.719969 0 0 0 0 0.306837 0 0 0 0.2 0"/>
<feBlend mode="normal" in2="BackgroundImageFix" result="effect1_dropShadow_438_33"/>
<feBlend mode="normal" in="SourceGraphic" in2="effect1_dropShadow_438_33" result="shape"/>
</filter>
<filter id="filter8_d_438_33" x="429.083" y="136.714" width="104.943" height="44.7569" filterUnits="userSpaceOnUse" color-interpolation-filters="sRGB">
<feFlood flood-opacity="0" result="BackgroundImageFix"/>
<feColorMatrix in="SourceAlpha" type="matrix" values="0 0 0 0 0 0 0 0 0 0 0 0 0 0 0 0 0 0 127 0" result="hardAlpha"/>
<feOffset dy="-0.684781"/>
<feGaussianBlur stdDeviation="0.855977"/>
<feComposite in2="hardAlpha" operator="out"/>
<feColorMatrix type="matrix" values="0 0 0 0 0.942308 0 0 0 0 0.809528 0 0 0 0 0.380547 0 0 0 0.4 0"/>
<feBlend mode="normal" in2="BackgroundImageFix" result="effect1_dropShadow_438_33"/>
<feBlend mode="normal" in="SourceGraphic" in2="effect1_dropShadow_438_33" result="shape"/>
</filter>
<filter id="filter9_d_438_33" x="487.46" y="150.923" width="45.538" height="30.8903" filterUnits="userSpaceOnUse" color-interpolation-filters="sRGB">
<feFlood flood-opacity="0" result="BackgroundImageFix"/>
<feColorMatrix in="SourceAlpha" type="matrix" values="0 0 0 0 0 0 0 0 0 0 0 0 0 0 0 0 0 0 127 0" result="hardAlpha"/>
<feOffset dy="0.684781"/>
<feGaussianBlur stdDeviation="0.342391"/>
<feComposite in2="hardAlpha" operator="out"/>
<feColorMatrix type="matrix" values="0 0 0 0 0.831731 0 0 0 0 0.765519 0 0 0 0 0.542491 0 0 0 1 0"/>
<feBlend mode="normal" in2="BackgroundImageFix" result="effect1_dropShadow_438_33"/>
<feBlend mode="normal" in="SourceGraphic" in2="effect1_dropShadow_438_33" result="shape"/>
</filter>
<linearGradient id="paint0_linear_438_33" x1="100.599" y1="34.258" x2="100.599" y2="188.58" gradientUnits="userSpaceOnUse">
<stop stop-color="#999999"/>
<stop offset="0.961538" stop-color="white"/>
</linearGradient>
<linearGradient id="paint1_linear_438_33" x1="127.147" y1="41.0137" x2="88.8059" y2="156.037" gradientUnits="userSpaceOnUse">
<stop stop-color="white"/>
<stop offset="1" stop-color="#737373"/>
</linearGradient>
<linearGradient id="paint2_linear_438_33" x1="488.8" y1="134.681" x2="481.081" y2="185.259" gradientUnits="userSpaceOnUse">
<stop offset="1" stop-color="#5E4126"/>
</linearGradient>
<linearGradient id="paint3_linear_438_33" x1="486.009" y1="135.971" x2="504.926" y2="173.805" gradientUnits="userSpaceOnUse">
<stop offset="1" stop-color="#734D2A"/>
</linearGradient>
<linearGradient id="paint4_linear_438_33" x1="481.64" y1="99.406" x2="481.64" y2="123.004" gradientUnits="userSpaceOnUse">
<stop stop-color="#6DA712"/>
<stop offset="1" stop-color="#5A8F08"/>
</linearGradient>
<linearGradient id="paint5_linear_438_33" x1="502.014" y1="108.615" x2="502.014" y2="132.213" gradientUnits="userSpaceOnUse">
<stop stop-color="#6DA712"/>
<stop offset="1" stop-color="#4B7903"/>
</linearGradient>
<linearGradient id="paint6_linear_438_33" x1="461.38" y1="108.615" x2="461.38" y2="132.213" gradientUnits="userSpaceOnUse">
<stop stop-color="#6DA712"/>
<stop offset="1" stop-color="#4B7903"/>
</linearGradient>
<linearGradient id="paint7_linear_438_33" x1="481.295" y1="118.054" x2="481.225" y2="144.867" gradientUnits="userSpaceOnUse">
<stop offset="0.10329" stop-color="#63990F"/>
<stop offset="1" stop-color="#44680C"/>
</linearGradient>
<linearGradient id="paint8_linear_438_33" x1="519.857" y1="118.054" x2="519.788" y2="144.867" gradientUnits="userSpaceOnUse">
<stop offset="0.10329" stop-color="#63990F"/>
<stop offset="1" stop-color="#44680C"/>
</linearGradient>
<linearGradient id="paint9_linear_438_33" x1="442.733" y1="118.054" x2="442.663" y2="144.867" gradientUnits="userSpaceOnUse">
<stop offset="0.10329" stop-color="#63990F"/>
<stop offset="1" stop-color="#44680C"/>
</linearGradient>
</defs>
</svg>
